G04 #@! TF.GenerationSoftware,KiCad,Pcbnew,(5.1.6-0-10_14)*
G04 #@! TF.CreationDate,2020-09-02T19:52:59+02:00*
G04 #@! TF.ProjectId,inglorious-bastard,696e676c-6f72-4696-9f75-732d62617374,rev?*
G04 #@! TF.SameCoordinates,Original*
G04 #@! TF.FileFunction,Legend,Top*
G04 #@! TF.FilePolarity,Positive*
%FSLAX46Y46*%
G04 Gerber Fmt 4.6, Leading zero omitted, Abs format (unit mm)*
G04 Created by KiCad (PCBNEW (5.1.6-0-10_14)) date 2020-09-02 19:52:59*
%MOMM*%
%LPD*%
G01*
G04 APERTURE LIST*
%ADD10C,0.200000*%
%ADD11C,0.127000*%
%ADD12C,0.100000*%
%ADD13C,0.010000*%
%ADD14C,0.152400*%
%ADD15C,0.150000*%
%ADD16C,0.032512*%
%ADD17C,0.101600*%
%ADD18C,0.081280*%
%ADD19C,0.097536*%
%ADD20C,0.121920*%
G04 APERTURE END LIST*
D10*
X109082619Y-129940714D02*
X107982619Y-129940714D01*
X108349285Y-129416904D02*
X109082619Y-129416904D01*
X108454047Y-129416904D02*
X108401666Y-129364523D01*
X108349285Y-129259761D01*
X108349285Y-129102619D01*
X108401666Y-128997857D01*
X108506428Y-128945476D01*
X109082619Y-128945476D01*
X108349285Y-127950238D02*
X109239761Y-127950238D01*
X109344523Y-128002619D01*
X109396904Y-128055000D01*
X109449285Y-128159761D01*
X109449285Y-128316904D01*
X109396904Y-128421666D01*
X109030238Y-127950238D02*
X109082619Y-128055000D01*
X109082619Y-128264523D01*
X109030238Y-128369285D01*
X108977857Y-128421666D01*
X108873095Y-128474047D01*
X108558809Y-128474047D01*
X108454047Y-128421666D01*
X108401666Y-128369285D01*
X108349285Y-128264523D01*
X108349285Y-128055000D01*
X108401666Y-127950238D01*
X109082619Y-127269285D02*
X109030238Y-127374047D01*
X108925476Y-127426428D01*
X107982619Y-127426428D01*
X109082619Y-126693095D02*
X109030238Y-126797857D01*
X108977857Y-126850238D01*
X108873095Y-126902619D01*
X108558809Y-126902619D01*
X108454047Y-126850238D01*
X108401666Y-126797857D01*
X108349285Y-126693095D01*
X108349285Y-126535952D01*
X108401666Y-126431190D01*
X108454047Y-126378809D01*
X108558809Y-126326428D01*
X108873095Y-126326428D01*
X108977857Y-126378809D01*
X109030238Y-126431190D01*
X109082619Y-126535952D01*
X109082619Y-126693095D01*
X109082619Y-125855000D02*
X108349285Y-125855000D01*
X108558809Y-125855000D02*
X108454047Y-125802619D01*
X108401666Y-125750238D01*
X108349285Y-125645476D01*
X108349285Y-125540714D01*
X109082619Y-125174047D02*
X108349285Y-125174047D01*
X107982619Y-125174047D02*
X108035000Y-125226428D01*
X108087380Y-125174047D01*
X108035000Y-125121666D01*
X107982619Y-125174047D01*
X108087380Y-125174047D01*
X109082619Y-124493095D02*
X109030238Y-124597857D01*
X108977857Y-124650238D01*
X108873095Y-124702619D01*
X108558809Y-124702619D01*
X108454047Y-124650238D01*
X108401666Y-124597857D01*
X108349285Y-124493095D01*
X108349285Y-124335952D01*
X108401666Y-124231190D01*
X108454047Y-124178809D01*
X108558809Y-124126428D01*
X108873095Y-124126428D01*
X108977857Y-124178809D01*
X109030238Y-124231190D01*
X109082619Y-124335952D01*
X109082619Y-124493095D01*
X108349285Y-123183571D02*
X109082619Y-123183571D01*
X108349285Y-123655000D02*
X108925476Y-123655000D01*
X109030238Y-123602619D01*
X109082619Y-123497857D01*
X109082619Y-123340714D01*
X109030238Y-123235952D01*
X108977857Y-123183571D01*
X109030238Y-122712142D02*
X109082619Y-122607380D01*
X109082619Y-122397857D01*
X109030238Y-122293095D01*
X108925476Y-122240714D01*
X108873095Y-122240714D01*
X108768333Y-122293095D01*
X108715952Y-122397857D01*
X108715952Y-122555000D01*
X108663571Y-122659761D01*
X108558809Y-122712142D01*
X108506428Y-122712142D01*
X108401666Y-122659761D01*
X108349285Y-122555000D01*
X108349285Y-122397857D01*
X108401666Y-122293095D01*
X108506428Y-120564523D02*
X108558809Y-120407380D01*
X108611190Y-120355000D01*
X108715952Y-120302619D01*
X108873095Y-120302619D01*
X108977857Y-120355000D01*
X109030238Y-120407380D01*
X109082619Y-120512142D01*
X109082619Y-120931190D01*
X107982619Y-120931190D01*
X107982619Y-120564523D01*
X108035000Y-120459761D01*
X108087380Y-120407380D01*
X108192142Y-120355000D01*
X108296904Y-120355000D01*
X108401666Y-120407380D01*
X108454047Y-120459761D01*
X108506428Y-120564523D01*
X108506428Y-120931190D01*
X109082619Y-119359761D02*
X108506428Y-119359761D01*
X108401666Y-119412142D01*
X108349285Y-119516904D01*
X108349285Y-119726428D01*
X108401666Y-119831190D01*
X109030238Y-119359761D02*
X109082619Y-119464523D01*
X109082619Y-119726428D01*
X109030238Y-119831190D01*
X108925476Y-119883571D01*
X108820714Y-119883571D01*
X108715952Y-119831190D01*
X108663571Y-119726428D01*
X108663571Y-119464523D01*
X108611190Y-119359761D01*
X109030238Y-118888333D02*
X109082619Y-118783571D01*
X109082619Y-118574047D01*
X109030238Y-118469285D01*
X108925476Y-118416904D01*
X108873095Y-118416904D01*
X108768333Y-118469285D01*
X108715952Y-118574047D01*
X108715952Y-118731190D01*
X108663571Y-118835952D01*
X108558809Y-118888333D01*
X108506428Y-118888333D01*
X108401666Y-118835952D01*
X108349285Y-118731190D01*
X108349285Y-118574047D01*
X108401666Y-118469285D01*
X108349285Y-118102619D02*
X108349285Y-117683571D01*
X107982619Y-117945476D02*
X108925476Y-117945476D01*
X109030238Y-117893095D01*
X109082619Y-117788333D01*
X109082619Y-117683571D01*
X109082619Y-116845476D02*
X108506428Y-116845476D01*
X108401666Y-116897857D01*
X108349285Y-117002619D01*
X108349285Y-117212142D01*
X108401666Y-117316904D01*
X109030238Y-116845476D02*
X109082619Y-116950238D01*
X109082619Y-117212142D01*
X109030238Y-117316904D01*
X108925476Y-117369285D01*
X108820714Y-117369285D01*
X108715952Y-117316904D01*
X108663571Y-117212142D01*
X108663571Y-116950238D01*
X108611190Y-116845476D01*
X109082619Y-116321666D02*
X108349285Y-116321666D01*
X108558809Y-116321666D02*
X108454047Y-116269285D01*
X108401666Y-116216904D01*
X108349285Y-116112142D01*
X108349285Y-116007380D01*
X109082619Y-115169285D02*
X107982619Y-115169285D01*
X109030238Y-115169285D02*
X109082619Y-115274047D01*
X109082619Y-115483571D01*
X109030238Y-115588333D01*
X108977857Y-115640714D01*
X108873095Y-115693095D01*
X108558809Y-115693095D01*
X108454047Y-115640714D01*
X108401666Y-115588333D01*
X108349285Y-115483571D01*
X108349285Y-115274047D01*
X108401666Y-115169285D01*
D11*
X97536000Y-145288000D02*
X97536000Y-144018000D01*
X100584000Y-145288000D02*
X100584000Y-144018000D01*
X97282000Y-144653000D02*
X96774000Y-144653000D01*
X101346000Y-144653000D02*
X100838000Y-144653000D01*
X101092000Y-144907000D02*
X101092000Y-144399000D01*
X101600000Y-144018000D02*
X101600000Y-145288000D01*
X100584000Y-144018000D02*
X101600000Y-144018000D01*
X97536000Y-144018000D02*
X100584000Y-144018000D01*
X96520000Y-144018000D02*
X97536000Y-144018000D01*
X96520000Y-144399000D02*
X96520000Y-144018000D01*
X96520000Y-144526000D02*
X96520000Y-144399000D01*
X96520000Y-144780000D02*
X96520000Y-144526000D01*
X96520000Y-145288000D02*
X96520000Y-144780000D01*
X96520000Y-147828000D02*
X99060000Y-147828000D01*
X99060000Y-145288000D02*
X99060000Y-147828000D01*
X96520000Y-147828000D02*
X96520000Y-145288000D01*
X101600000Y-147828000D02*
X99060000Y-147828000D01*
X101600000Y-145288000D02*
X101600000Y-147828000D01*
X100584000Y-145288000D02*
X101600000Y-145288000D01*
X99060000Y-145288000D02*
X100584000Y-145288000D01*
X97536000Y-145288000D02*
X99060000Y-145288000D01*
X96520000Y-145288000D02*
X97536000Y-145288000D01*
D12*
X77819000Y-131461000D02*
G75*
G03*
X77819000Y-133461000I0J-1000000D01*
G01*
X73819000Y-133461000D02*
G75*
G03*
X73819000Y-131461000I0J1000000D01*
G01*
X94837000Y-131461000D02*
G75*
G03*
X94837000Y-133461000I0J-1000000D01*
G01*
X90837000Y-133461000D02*
G75*
G03*
X90837000Y-131461000I0J1000000D01*
G01*
D13*
G36*
X72631392Y-144761811D02*
G01*
X72708493Y-144835254D01*
X72729760Y-144945260D01*
X72723487Y-144972842D01*
X72650834Y-145082501D01*
X72542944Y-145102354D01*
X72464912Y-145064740D01*
X72408218Y-144971123D01*
X72423430Y-144858595D01*
X72501760Y-144769986D01*
X72527952Y-144757426D01*
X72631392Y-144761811D01*
G37*
X72631392Y-144761811D02*
X72708493Y-144835254D01*
X72729760Y-144945260D01*
X72723487Y-144972842D01*
X72650834Y-145082501D01*
X72542944Y-145102354D01*
X72464912Y-145064740D01*
X72408218Y-144971123D01*
X72423430Y-144858595D01*
X72501760Y-144769986D01*
X72527952Y-144757426D01*
X72631392Y-144761811D01*
G36*
X73039272Y-144967296D02*
G01*
X73068855Y-145057485D01*
X73018287Y-145180568D01*
X72917060Y-145272831D01*
X72818966Y-145271508D01*
X72752010Y-145198377D01*
X72739172Y-145084414D01*
X72801362Y-144984448D01*
X72914234Y-144933625D01*
X72936265Y-144932400D01*
X73039272Y-144967296D01*
G37*
X73039272Y-144967296D02*
X73068855Y-145057485D01*
X73018287Y-145180568D01*
X72917060Y-145272831D01*
X72818966Y-145271508D01*
X72752010Y-145198377D01*
X72739172Y-145084414D01*
X72801362Y-144984448D01*
X72914234Y-144933625D01*
X72936265Y-144932400D01*
X73039272Y-144967296D01*
G36*
X72867830Y-144621423D02*
G01*
X73063100Y-144789504D01*
X73168129Y-144957010D01*
X73197630Y-145133906D01*
X73158764Y-145296809D01*
X73058691Y-145422338D01*
X72904571Y-145487110D01*
X72848219Y-145491200D01*
X72731641Y-145507061D01*
X72669400Y-145542000D01*
X72601076Y-145585906D01*
X72477316Y-145567520D01*
X72402700Y-145540416D01*
X72314293Y-145476241D01*
X72288400Y-145416636D01*
X72266935Y-145347914D01*
X72248043Y-145338800D01*
X72225061Y-145292783D01*
X72221472Y-145268308D01*
X72255441Y-145268308D01*
X72302517Y-145287173D01*
X72339200Y-145288000D01*
X72416326Y-145299139D01*
X72406176Y-145343908D01*
X72393753Y-145359677D01*
X72363979Y-145436024D01*
X72384411Y-145462345D01*
X72446109Y-145450590D01*
X72486933Y-145403368D01*
X72525421Y-145349999D01*
X72539941Y-145384580D01*
X72542470Y-145440400D01*
X72550771Y-145525359D01*
X72580046Y-145519464D01*
X72609467Y-145483489D01*
X72716424Y-145421630D01*
X72803797Y-145424525D01*
X72919833Y-145418507D01*
X73022032Y-145336832D01*
X73043145Y-145311084D01*
X73132427Y-145158310D01*
X73134766Y-145020836D01*
X73047157Y-144877450D01*
X72970582Y-144798698D01*
X72780088Y-144664741D01*
X72596606Y-144619614D01*
X72434343Y-144662934D01*
X72307507Y-144794319D01*
X72294843Y-144816929D01*
X72261084Y-144933019D01*
X72296882Y-145028704D01*
X72332397Y-145125577D01*
X72291823Y-145207674D01*
X72255441Y-145268308D01*
X72221472Y-145268308D01*
X72207620Y-145173858D01*
X72201002Y-145053331D01*
X72204744Y-144873515D01*
X72233515Y-144756577D01*
X72297911Y-144664828D01*
X72315250Y-144646931D01*
X72481011Y-144542572D01*
X72667589Y-144534523D01*
X72867830Y-144621423D01*
G37*
X72867830Y-144621423D02*
X73063100Y-144789504D01*
X73168129Y-144957010D01*
X73197630Y-145133906D01*
X73158764Y-145296809D01*
X73058691Y-145422338D01*
X72904571Y-145487110D01*
X72848219Y-145491200D01*
X72731641Y-145507061D01*
X72669400Y-145542000D01*
X72601076Y-145585906D01*
X72477316Y-145567520D01*
X72402700Y-145540416D01*
X72314293Y-145476241D01*
X72288400Y-145416636D01*
X72266935Y-145347914D01*
X72248043Y-145338800D01*
X72225061Y-145292783D01*
X72221472Y-145268308D01*
X72255441Y-145268308D01*
X72302517Y-145287173D01*
X72339200Y-145288000D01*
X72416326Y-145299139D01*
X72406176Y-145343908D01*
X72393753Y-145359677D01*
X72363979Y-145436024D01*
X72384411Y-145462345D01*
X72446109Y-145450590D01*
X72486933Y-145403368D01*
X72525421Y-145349999D01*
X72539941Y-145384580D01*
X72542470Y-145440400D01*
X72550771Y-145525359D01*
X72580046Y-145519464D01*
X72609467Y-145483489D01*
X72716424Y-145421630D01*
X72803797Y-145424525D01*
X72919833Y-145418507D01*
X73022032Y-145336832D01*
X73043145Y-145311084D01*
X73132427Y-145158310D01*
X73134766Y-145020836D01*
X73047157Y-144877450D01*
X72970582Y-144798698D01*
X72780088Y-144664741D01*
X72596606Y-144619614D01*
X72434343Y-144662934D01*
X72307507Y-144794319D01*
X72294843Y-144816929D01*
X72261084Y-144933019D01*
X72296882Y-145028704D01*
X72332397Y-145125577D01*
X72291823Y-145207674D01*
X72255441Y-145268308D01*
X72221472Y-145268308D01*
X72207620Y-145173858D01*
X72201002Y-145053331D01*
X72204744Y-144873515D01*
X72233515Y-144756577D01*
X72297911Y-144664828D01*
X72315250Y-144646931D01*
X72481011Y-144542572D01*
X72667589Y-144534523D01*
X72867830Y-144621423D01*
G36*
X66852800Y-147599400D02*
G01*
X66827400Y-147624800D01*
X66802000Y-147599400D01*
X66827400Y-147574000D01*
X66852800Y-147599400D01*
G37*
X66852800Y-147599400D02*
X66827400Y-147624800D01*
X66802000Y-147599400D01*
X66827400Y-147574000D01*
X66852800Y-147599400D01*
G36*
X67665600Y-147802600D02*
G01*
X67640200Y-147828000D01*
X67614800Y-147802600D01*
X67640200Y-147777200D01*
X67665600Y-147802600D01*
G37*
X67665600Y-147802600D02*
X67640200Y-147828000D01*
X67614800Y-147802600D01*
X67640200Y-147777200D01*
X67665600Y-147802600D01*
G36*
X68072000Y-147955000D02*
G01*
X68046600Y-147980400D01*
X68021200Y-147955000D01*
X68046600Y-147929600D01*
X68072000Y-147955000D01*
G37*
X68072000Y-147955000D02*
X68046600Y-147980400D01*
X68021200Y-147955000D01*
X68046600Y-147929600D01*
X68072000Y-147955000D01*
G36*
X68216550Y-148407349D02*
G01*
X68271087Y-148458499D01*
X68259899Y-148487905D01*
X68252798Y-148488400D01*
X68209830Y-148452317D01*
X68194149Y-148429750D01*
X68188161Y-148394988D01*
X68216550Y-148407349D01*
G37*
X68216550Y-148407349D02*
X68271087Y-148458499D01*
X68259899Y-148487905D01*
X68252798Y-148488400D01*
X68209830Y-148452317D01*
X68194149Y-148429750D01*
X68188161Y-148394988D01*
X68216550Y-148407349D01*
G36*
X69624153Y-146644134D02*
G01*
X69867057Y-146719225D01*
X69898068Y-146734387D01*
X70019907Y-146810965D01*
X70049965Y-146857915D01*
X69996129Y-146865344D01*
X69866283Y-146823358D01*
X69837300Y-146810631D01*
X69575500Y-146733471D01*
X69289709Y-146715938D01*
X69025708Y-146759566D01*
X68965569Y-146781416D01*
X68837234Y-146846195D01*
X68764392Y-146903714D01*
X68756841Y-146940303D01*
X68824375Y-146942291D01*
X68855143Y-146935529D01*
X68958585Y-146924288D01*
X68982649Y-146951125D01*
X68932521Y-146997800D01*
X68824637Y-147042794D01*
X68690625Y-147100725D01*
X68638124Y-147159149D01*
X68669484Y-147201844D01*
X68787055Y-147212591D01*
X68800180Y-147211591D01*
X68942757Y-147209711D01*
X69008153Y-147229052D01*
X68988169Y-147260972D01*
X68879906Y-147295674D01*
X68776614Y-147324194D01*
X68762093Y-147352035D01*
X68803753Y-147381292D01*
X68920010Y-147407809D01*
X69019799Y-147398731D01*
X69146111Y-147385552D01*
X69255503Y-147402801D01*
X69316243Y-147442147D01*
X69314339Y-147476057D01*
X69334266Y-147510981D01*
X69410968Y-147523200D01*
X69513047Y-147541626D01*
X69554025Y-147575076D01*
X69611419Y-147613999D01*
X69727159Y-147637884D01*
X69735946Y-147638576D01*
X69855048Y-147664226D01*
X69876278Y-147710589D01*
X69798019Y-147767267D01*
X69758483Y-147783411D01*
X69667393Y-147798074D01*
X69646800Y-147770055D01*
X69604896Y-147738128D01*
X69518684Y-147747540D01*
X69406363Y-147751165D01*
X69360849Y-147702247D01*
X69291140Y-147636934D01*
X69234964Y-147624800D01*
X69155523Y-147596468D01*
X69138800Y-147560145D01*
X69090899Y-147514016D01*
X68952321Y-147495705D01*
X68930176Y-147495490D01*
X68736128Y-147456413D01*
X68605360Y-147352598D01*
X68545287Y-147204167D01*
X68563325Y-147031245D01*
X68666887Y-146853954D01*
X68685981Y-146832736D01*
X68855956Y-146717072D01*
X69088826Y-146645474D01*
X69354817Y-146620355D01*
X69624153Y-146644134D01*
G37*
X69624153Y-146644134D02*
X69867057Y-146719225D01*
X69898068Y-146734387D01*
X70019907Y-146810965D01*
X70049965Y-146857915D01*
X69996129Y-146865344D01*
X69866283Y-146823358D01*
X69837300Y-146810631D01*
X69575500Y-146733471D01*
X69289709Y-146715938D01*
X69025708Y-146759566D01*
X68965569Y-146781416D01*
X68837234Y-146846195D01*
X68764392Y-146903714D01*
X68756841Y-146940303D01*
X68824375Y-146942291D01*
X68855143Y-146935529D01*
X68958585Y-146924288D01*
X68982649Y-146951125D01*
X68932521Y-146997800D01*
X68824637Y-147042794D01*
X68690625Y-147100725D01*
X68638124Y-147159149D01*
X68669484Y-147201844D01*
X68787055Y-147212591D01*
X68800180Y-147211591D01*
X68942757Y-147209711D01*
X69008153Y-147229052D01*
X68988169Y-147260972D01*
X68879906Y-147295674D01*
X68776614Y-147324194D01*
X68762093Y-147352035D01*
X68803753Y-147381292D01*
X68920010Y-147407809D01*
X69019799Y-147398731D01*
X69146111Y-147385552D01*
X69255503Y-147402801D01*
X69316243Y-147442147D01*
X69314339Y-147476057D01*
X69334266Y-147510981D01*
X69410968Y-147523200D01*
X69513047Y-147541626D01*
X69554025Y-147575076D01*
X69611419Y-147613999D01*
X69727159Y-147637884D01*
X69735946Y-147638576D01*
X69855048Y-147664226D01*
X69876278Y-147710589D01*
X69798019Y-147767267D01*
X69758483Y-147783411D01*
X69667393Y-147798074D01*
X69646800Y-147770055D01*
X69604896Y-147738128D01*
X69518684Y-147747540D01*
X69406363Y-147751165D01*
X69360849Y-147702247D01*
X69291140Y-147636934D01*
X69234964Y-147624800D01*
X69155523Y-147596468D01*
X69138800Y-147560145D01*
X69090899Y-147514016D01*
X68952321Y-147495705D01*
X68930176Y-147495490D01*
X68736128Y-147456413D01*
X68605360Y-147352598D01*
X68545287Y-147204167D01*
X68563325Y-147031245D01*
X68666887Y-146853954D01*
X68685981Y-146832736D01*
X68855956Y-146717072D01*
X69088826Y-146645474D01*
X69354817Y-146620355D01*
X69624153Y-146644134D01*
G36*
X71335543Y-147310630D02*
G01*
X71373292Y-147422426D01*
X71395679Y-147541493D01*
X71429081Y-147764237D01*
X71668240Y-147744422D01*
X71802057Y-147737332D01*
X71842969Y-147747371D01*
X71805800Y-147772680D01*
X71676061Y-147820843D01*
X71565567Y-147850475D01*
X71481372Y-147875886D01*
X71446380Y-147924187D01*
X71447734Y-148026219D01*
X71458172Y-148108099D01*
X71468772Y-148266234D01*
X71444013Y-148333069D01*
X71431704Y-148336000D01*
X71394068Y-148289890D01*
X71375019Y-148169051D01*
X71374000Y-148126336D01*
X71374000Y-147916673D01*
X71118479Y-147941225D01*
X70943537Y-147948019D01*
X70853741Y-147932660D01*
X70853392Y-147903828D01*
X70946791Y-147870205D01*
X71072382Y-147848182D01*
X71333107Y-147813596D01*
X71298386Y-147535701D01*
X71287893Y-147366660D01*
X71303677Y-147291839D01*
X71335543Y-147310630D01*
G37*
X71335543Y-147310630D02*
X71373292Y-147422426D01*
X71395679Y-147541493D01*
X71429081Y-147764237D01*
X71668240Y-147744422D01*
X71802057Y-147737332D01*
X71842969Y-147747371D01*
X71805800Y-147772680D01*
X71676061Y-147820843D01*
X71565567Y-147850475D01*
X71481372Y-147875886D01*
X71446380Y-147924187D01*
X71447734Y-148026219D01*
X71458172Y-148108099D01*
X71468772Y-148266234D01*
X71444013Y-148333069D01*
X71431704Y-148336000D01*
X71394068Y-148289890D01*
X71375019Y-148169051D01*
X71374000Y-148126336D01*
X71374000Y-147916673D01*
X71118479Y-147941225D01*
X70943537Y-147948019D01*
X70853741Y-147932660D01*
X70853392Y-147903828D01*
X70946791Y-147870205D01*
X71072382Y-147848182D01*
X71333107Y-147813596D01*
X71298386Y-147535701D01*
X71287893Y-147366660D01*
X71303677Y-147291839D01*
X71335543Y-147310630D01*
G36*
X71300881Y-148493000D02*
G01*
X71316241Y-148575902D01*
X71301614Y-148669087D01*
X71252931Y-148771090D01*
X71189872Y-148788183D01*
X71148667Y-148747687D01*
X71149772Y-148674581D01*
X71191133Y-148566103D01*
X71254474Y-148485349D01*
X71300881Y-148493000D01*
G37*
X71300881Y-148493000D02*
X71316241Y-148575902D01*
X71301614Y-148669087D01*
X71252931Y-148771090D01*
X71189872Y-148788183D01*
X71148667Y-148747687D01*
X71149772Y-148674581D01*
X71191133Y-148566103D01*
X71254474Y-148485349D01*
X71300881Y-148493000D01*
G36*
X67860950Y-148610549D02*
G01*
X67915487Y-148661699D01*
X67904299Y-148691105D01*
X67897198Y-148691600D01*
X67854230Y-148655517D01*
X67838549Y-148632950D01*
X67832561Y-148598188D01*
X67860950Y-148610549D01*
G37*
X67860950Y-148610549D02*
X67915487Y-148661699D01*
X67904299Y-148691105D01*
X67897198Y-148691600D01*
X67854230Y-148655517D01*
X67838549Y-148632950D01*
X67832561Y-148598188D01*
X67860950Y-148610549D01*
G36*
X70528365Y-143935513D02*
G01*
X70582179Y-143972798D01*
X70669608Y-144054567D01*
X70676336Y-144106606D01*
X70654382Y-144125877D01*
X70524115Y-144168283D01*
X70420939Y-144129007D01*
X70384843Y-144068800D01*
X70561200Y-144068800D01*
X70579786Y-144110614D01*
X70595066Y-144102666D01*
X70601146Y-144042378D01*
X70595066Y-144034933D01*
X70564866Y-144041906D01*
X70561200Y-144068800D01*
X70384843Y-144068800D01*
X70381776Y-144063686D01*
X70374440Y-143984133D01*
X70425733Y-143984133D01*
X70432706Y-144014333D01*
X70459600Y-144018000D01*
X70501414Y-143999413D01*
X70493466Y-143984133D01*
X70433178Y-143978053D01*
X70425733Y-143984133D01*
X70374440Y-143984133D01*
X70371074Y-143947632D01*
X70424591Y-143902797D01*
X70528365Y-143935513D01*
G37*
X70528365Y-143935513D02*
X70582179Y-143972798D01*
X70669608Y-144054567D01*
X70676336Y-144106606D01*
X70654382Y-144125877D01*
X70524115Y-144168283D01*
X70420939Y-144129007D01*
X70384843Y-144068800D01*
X70561200Y-144068800D01*
X70579786Y-144110614D01*
X70595066Y-144102666D01*
X70601146Y-144042378D01*
X70595066Y-144034933D01*
X70564866Y-144041906D01*
X70561200Y-144068800D01*
X70384843Y-144068800D01*
X70381776Y-144063686D01*
X70374440Y-143984133D01*
X70425733Y-143984133D01*
X70432706Y-144014333D01*
X70459600Y-144018000D01*
X70501414Y-143999413D01*
X70493466Y-143984133D01*
X70433178Y-143978053D01*
X70425733Y-143984133D01*
X70374440Y-143984133D01*
X70371074Y-143947632D01*
X70424591Y-143902797D01*
X70528365Y-143935513D01*
G36*
X71141074Y-144860207D02*
G01*
X71204218Y-144937395D01*
X71210064Y-144978189D01*
X71155340Y-145038534D01*
X71054842Y-145070842D01*
X70963560Y-145060068D01*
X70949269Y-145049535D01*
X70918612Y-144965332D01*
X70929447Y-144862161D01*
X70987981Y-144862161D01*
X71018400Y-144907000D01*
X71093570Y-144970961D01*
X71129848Y-144983200D01*
X71138856Y-144954664D01*
X71101857Y-144907000D01*
X71025234Y-144845119D01*
X70990408Y-144830800D01*
X70987981Y-144862161D01*
X70929447Y-144862161D01*
X70929543Y-144861255D01*
X70965533Y-144806677D01*
X71046976Y-144806438D01*
X71141074Y-144860207D01*
G37*
X71141074Y-144860207D02*
X71204218Y-144937395D01*
X71210064Y-144978189D01*
X71155340Y-145038534D01*
X71054842Y-145070842D01*
X70963560Y-145060068D01*
X70949269Y-145049535D01*
X70918612Y-144965332D01*
X70929447Y-144862161D01*
X70987981Y-144862161D01*
X71018400Y-144907000D01*
X71093570Y-144970961D01*
X71129848Y-144983200D01*
X71138856Y-144954664D01*
X71101857Y-144907000D01*
X71025234Y-144845119D01*
X70990408Y-144830800D01*
X70987981Y-144862161D01*
X70929447Y-144862161D01*
X70929543Y-144861255D01*
X70965533Y-144806677D01*
X71046976Y-144806438D01*
X71141074Y-144860207D01*
G36*
X72886250Y-146542542D02*
G01*
X72898000Y-146580875D01*
X72937749Y-146665029D01*
X72984500Y-146702959D01*
X73042049Y-146754022D01*
X73013306Y-146820604D01*
X73003680Y-146832483D01*
X72943374Y-146893694D01*
X72880696Y-146903457D01*
X72772343Y-146866843D01*
X72758300Y-146861216D01*
X72694996Y-146812000D01*
X72847200Y-146812000D01*
X72864532Y-146861479D01*
X72869601Y-146862800D01*
X72912973Y-146827202D01*
X72923400Y-146812000D01*
X72919372Y-146765188D01*
X72900998Y-146761200D01*
X72849267Y-146798076D01*
X72847200Y-146812000D01*
X72694996Y-146812000D01*
X72662576Y-146786795D01*
X72651007Y-146666792D01*
X72651366Y-146665596D01*
X72745600Y-146665596D01*
X72776899Y-146693138D01*
X72796400Y-146685000D01*
X72845303Y-146617704D01*
X72847200Y-146602803D01*
X72815900Y-146575261D01*
X72796400Y-146583400D01*
X72747496Y-146650695D01*
X72745600Y-146665596D01*
X72651366Y-146665596D01*
X72674835Y-146587554D01*
X72735039Y-146525205D01*
X72820389Y-146509756D01*
X72886250Y-146542542D01*
G37*
X72886250Y-146542542D02*
X72898000Y-146580875D01*
X72937749Y-146665029D01*
X72984500Y-146702959D01*
X73042049Y-146754022D01*
X73013306Y-146820604D01*
X73003680Y-146832483D01*
X72943374Y-146893694D01*
X72880696Y-146903457D01*
X72772343Y-146866843D01*
X72758300Y-146861216D01*
X72694996Y-146812000D01*
X72847200Y-146812000D01*
X72864532Y-146861479D01*
X72869601Y-146862800D01*
X72912973Y-146827202D01*
X72923400Y-146812000D01*
X72919372Y-146765188D01*
X72900998Y-146761200D01*
X72849267Y-146798076D01*
X72847200Y-146812000D01*
X72694996Y-146812000D01*
X72662576Y-146786795D01*
X72651007Y-146666792D01*
X72651366Y-146665596D01*
X72745600Y-146665596D01*
X72776899Y-146693138D01*
X72796400Y-146685000D01*
X72845303Y-146617704D01*
X72847200Y-146602803D01*
X72815900Y-146575261D01*
X72796400Y-146583400D01*
X72747496Y-146650695D01*
X72745600Y-146665596D01*
X72651366Y-146665596D01*
X72674835Y-146587554D01*
X72735039Y-146525205D01*
X72820389Y-146509756D01*
X72886250Y-146542542D01*
G36*
X72927595Y-147474601D02*
G01*
X72968769Y-147498913D01*
X73060121Y-147582047D01*
X73100961Y-147664441D01*
X73081771Y-147718553D01*
X73047401Y-147726400D01*
X73017062Y-147695278D01*
X73025000Y-147675600D01*
X73024078Y-147628653D01*
X73008033Y-147624800D01*
X72949801Y-147665300D01*
X72930429Y-147701000D01*
X72877182Y-147771609D01*
X72819332Y-147748257D01*
X72773695Y-147642852D01*
X72767848Y-147554321D01*
X72813862Y-147554321D01*
X72821800Y-147574000D01*
X72867449Y-147622462D01*
X72875598Y-147624800D01*
X72897417Y-147585496D01*
X72898000Y-147574000D01*
X72858947Y-147525152D01*
X72844201Y-147523200D01*
X72813862Y-147554321D01*
X72767848Y-147554321D01*
X72764735Y-147507208D01*
X72818813Y-147449075D01*
X72927595Y-147474601D01*
G37*
X72927595Y-147474601D02*
X72968769Y-147498913D01*
X73060121Y-147582047D01*
X73100961Y-147664441D01*
X73081771Y-147718553D01*
X73047401Y-147726400D01*
X73017062Y-147695278D01*
X73025000Y-147675600D01*
X73024078Y-147628653D01*
X73008033Y-147624800D01*
X72949801Y-147665300D01*
X72930429Y-147701000D01*
X72877182Y-147771609D01*
X72819332Y-147748257D01*
X72773695Y-147642852D01*
X72767848Y-147554321D01*
X72813862Y-147554321D01*
X72821800Y-147574000D01*
X72867449Y-147622462D01*
X72875598Y-147624800D01*
X72897417Y-147585496D01*
X72898000Y-147574000D01*
X72858947Y-147525152D01*
X72844201Y-147523200D01*
X72813862Y-147554321D01*
X72767848Y-147554321D01*
X72764735Y-147507208D01*
X72818813Y-147449075D01*
X72927595Y-147474601D01*
G36*
X69360068Y-144113163D02*
G01*
X69535616Y-144246036D01*
X69661256Y-144467089D01*
X69725331Y-144705555D01*
X69761625Y-144861601D01*
X69804330Y-144987781D01*
X69812021Y-145004023D01*
X69855584Y-145069994D01*
X69891761Y-145046647D01*
X69909458Y-145016723D01*
X70001364Y-144950791D01*
X70133555Y-144932399D01*
X70414452Y-144978186D01*
X70648735Y-145108878D01*
X70826058Y-145314471D01*
X70936072Y-145584962D01*
X70961718Y-145732920D01*
X70988723Y-145909559D01*
X71026924Y-146005322D01*
X71082858Y-146040595D01*
X71164357Y-146015380D01*
X71238557Y-145899459D01*
X71248132Y-145877323D01*
X71341142Y-145731225D01*
X71464706Y-145624014D01*
X71472552Y-145619775D01*
X71607887Y-145535436D01*
X71651601Y-145454915D01*
X71609427Y-145352968D01*
X71550398Y-145277070D01*
X71455931Y-145114968D01*
X71443431Y-144939928D01*
X71514611Y-144737967D01*
X71641325Y-144535892D01*
X71798077Y-144343973D01*
X71946421Y-144233051D01*
X72114047Y-144189151D01*
X72313800Y-144196491D01*
X72565619Y-144247740D01*
X72800498Y-144346807D01*
X73041864Y-144506453D01*
X73313143Y-144739443D01*
X73317100Y-144743132D01*
X73478070Y-144895521D01*
X73578637Y-145003240D01*
X73633006Y-145090584D01*
X73655381Y-145181846D01*
X73659967Y-145301322D01*
X73660000Y-145329596D01*
X73624180Y-145642230D01*
X73519261Y-145892646D01*
X73407535Y-146024600D01*
X73317248Y-146083438D01*
X73194472Y-146114329D01*
X73008445Y-146124045D01*
X72956023Y-146124014D01*
X72652882Y-146094660D01*
X72366251Y-146003332D01*
X72062561Y-145838861D01*
X72023433Y-145813715D01*
X71923908Y-145756102D01*
X71861716Y-145757082D01*
X71794833Y-145813020D01*
X71678450Y-145914959D01*
X71604247Y-145970835D01*
X71549120Y-146016374D01*
X71557998Y-146052019D01*
X71643622Y-146096877D01*
X71705847Y-146123190D01*
X71906251Y-146240944D01*
X72121181Y-146422288D01*
X72322587Y-146638562D01*
X72482420Y-146861107D01*
X72544137Y-146979698D01*
X72593779Y-147106999D01*
X72622761Y-147225176D01*
X72633816Y-147363210D01*
X72629674Y-147550083D01*
X72617205Y-147754952D01*
X72598896Y-147991932D01*
X72580397Y-148143151D01*
X72558049Y-148224390D01*
X72528195Y-148251426D01*
X72503026Y-148247408D01*
X72448739Y-148245036D01*
X72450167Y-148314711D01*
X72454327Y-148331444D01*
X72462842Y-148412758D01*
X72417057Y-148419571D01*
X72406037Y-148415636D01*
X72351371Y-148413663D01*
X72359698Y-148468546D01*
X72364671Y-148526752D01*
X72298066Y-148526781D01*
X72281371Y-148522642D01*
X72157174Y-148524444D01*
X72031949Y-148565867D01*
X71885742Y-148622715D01*
X71712421Y-148666475D01*
X71691992Y-148669982D01*
X71525959Y-148721954D01*
X71417770Y-148827714D01*
X71404387Y-148849235D01*
X71300479Y-148966666D01*
X71177703Y-148987545D01*
X71024687Y-148913806D01*
X71024638Y-148913772D01*
X70937905Y-148819567D01*
X70933389Y-148697552D01*
X70938560Y-148619513D01*
X70905003Y-148556226D01*
X70814450Y-148487257D01*
X70671753Y-148404888D01*
X70457106Y-148305053D01*
X70216840Y-148220179D01*
X70078600Y-148184791D01*
X69879818Y-148139752D01*
X69618161Y-148073234D01*
X69327614Y-147994428D01*
X69042162Y-147912526D01*
X68818298Y-147843953D01*
X68738324Y-147849974D01*
X68694899Y-147935030D01*
X68638664Y-148085727D01*
X68544289Y-148280692D01*
X68432210Y-148482435D01*
X68322863Y-148653468D01*
X68258893Y-148734840D01*
X68132658Y-148836837D01*
X67943191Y-148951735D01*
X67724384Y-149062613D01*
X67510130Y-149152549D01*
X67334321Y-149204624D01*
X67310000Y-149208587D01*
X67151955Y-149215551D01*
X66955209Y-149206000D01*
X66864949Y-149196048D01*
X66686250Y-149159945D01*
X66531970Y-149108880D01*
X66477129Y-149080763D01*
X66456658Y-149060082D01*
X66863723Y-149060082D01*
X66905799Y-149087768D01*
X66929000Y-149098000D01*
X67024938Y-149137333D01*
X67050467Y-149136111D01*
X67030600Y-149098000D01*
X66958384Y-149055325D01*
X66913301Y-149050770D01*
X66863723Y-149060082D01*
X66456658Y-149060082D01*
X66342687Y-148944945D01*
X66248493Y-148781316D01*
X66376953Y-148781316D01*
X66422939Y-148877209D01*
X66449826Y-148913018D01*
X66558459Y-149020424D01*
X66659295Y-149039731D01*
X66745008Y-149001301D01*
X66746329Y-148999672D01*
X67096145Y-148999672D01*
X67114158Y-149030666D01*
X67208764Y-149079889D01*
X67352045Y-149095501D01*
X67496241Y-149075866D01*
X67564000Y-149046048D01*
X67605244Y-149001289D01*
X67573767Y-148947554D01*
X67516429Y-148899764D01*
X67425115Y-148839673D01*
X67346280Y-148834492D01*
X67229998Y-148881446D01*
X67225467Y-148883604D01*
X67118591Y-148946270D01*
X67096145Y-148999672D01*
X66746329Y-148999672D01*
X66785124Y-148951853D01*
X66764193Y-148877031D01*
X66675564Y-148757100D01*
X66654223Y-148731900D01*
X66545719Y-148649560D01*
X66445507Y-148667908D01*
X66401560Y-148709818D01*
X66376953Y-148781316D01*
X66248493Y-148781316D01*
X66224607Y-148739823D01*
X66136805Y-148497667D01*
X66110414Y-148348234D01*
X66197706Y-148348234D01*
X66214098Y-148461136D01*
X66242906Y-148577289D01*
X66282075Y-148612229D01*
X66348779Y-148587870D01*
X66377006Y-148569981D01*
X66688279Y-148569981D01*
X66740943Y-148687224D01*
X66781405Y-148738846D01*
X66872020Y-148834738D01*
X66936568Y-148881906D01*
X66948008Y-148882600D01*
X67012190Y-148850056D01*
X67119500Y-148796115D01*
X67214921Y-148739626D01*
X67540314Y-148739626D01*
X67558557Y-148793650D01*
X67643831Y-148858315D01*
X67651030Y-148862172D01*
X67814475Y-148900762D01*
X67960300Y-148850539D01*
X68029199Y-148777501D01*
X68041938Y-148679620D01*
X67978953Y-148591226D01*
X67937854Y-148568887D01*
X67842749Y-148572530D01*
X67712882Y-148618221D01*
X67594161Y-148686243D01*
X67540314Y-148739626D01*
X67214921Y-148739626D01*
X67216940Y-148738431D01*
X67257716Y-148696669D01*
X67257710Y-148696145D01*
X67225582Y-148643661D01*
X67146377Y-148546527D01*
X67104714Y-148499631D01*
X66997653Y-148396445D01*
X66919443Y-148365170D01*
X66860726Y-148382558D01*
X66726718Y-148475114D01*
X66688279Y-148569981D01*
X66377006Y-148569981D01*
X66411862Y-148547892D01*
X66418547Y-148502785D01*
X66367544Y-148418926D01*
X66340841Y-148381240D01*
X66253776Y-148277036D01*
X66206360Y-148265848D01*
X66197706Y-148348234D01*
X66110414Y-148348234D01*
X66093195Y-148250742D01*
X66090799Y-148184929D01*
X66095213Y-148142696D01*
X66294128Y-148142696D01*
X66400895Y-148292637D01*
X66478749Y-148386550D01*
X66534348Y-148426581D01*
X66540531Y-148425759D01*
X66605558Y-148392920D01*
X66713100Y-148338915D01*
X66748089Y-148319065D01*
X67085272Y-148319065D01*
X67139904Y-148390961D01*
X67212944Y-148467688D01*
X67325057Y-148579890D01*
X67397241Y-148628032D01*
X67460785Y-148620510D01*
X67546982Y-148565723D01*
X67555643Y-148559655D01*
X67633549Y-148497038D01*
X67633107Y-148485256D01*
X68076375Y-148485256D01*
X68128435Y-148575278D01*
X68131681Y-148578561D01*
X68184971Y-148597414D01*
X68252183Y-148542199D01*
X68309481Y-148464416D01*
X68383200Y-148349927D01*
X68424438Y-148274229D01*
X68427600Y-148263317D01*
X68387454Y-148265248D01*
X68287383Y-148303525D01*
X68249800Y-148320830D01*
X68115175Y-148404049D01*
X68076375Y-148485256D01*
X67633107Y-148485256D01*
X67631844Y-148451652D01*
X67579647Y-148404452D01*
X67522536Y-148355505D01*
X67545356Y-148359177D01*
X67606450Y-148388113D01*
X67716454Y-148425865D01*
X67752327Y-148401755D01*
X67713447Y-148324061D01*
X67619103Y-148220071D01*
X67501732Y-148122432D01*
X67436422Y-148107144D01*
X67426974Y-148120100D01*
X67361893Y-148177616D01*
X67327827Y-148183600D01*
X67223757Y-148206649D01*
X67148839Y-148239088D01*
X67090617Y-148276882D01*
X67085272Y-148319065D01*
X66748089Y-148319065D01*
X66813768Y-148281804D01*
X66841041Y-148228516D01*
X66797615Y-148148207D01*
X66736493Y-148071468D01*
X66623841Y-147933936D01*
X66458984Y-148038316D01*
X66294128Y-148142696D01*
X66095213Y-148142696D01*
X66113832Y-147964578D01*
X66192400Y-147964578D01*
X66203676Y-148019478D01*
X66251449Y-148019447D01*
X66356635Y-147962355D01*
X66384687Y-147944975D01*
X66443063Y-147908573D01*
X66745438Y-147908573D01*
X66853097Y-148045440D01*
X66928143Y-148131317D01*
X66993854Y-148155358D01*
X67093685Y-148126433D01*
X67145469Y-148105129D01*
X67268640Y-148050665D01*
X67291778Y-148038731D01*
X67620726Y-148038731D01*
X67753160Y-148187365D01*
X67840106Y-148281653D01*
X67893075Y-148332903D01*
X67898442Y-148336000D01*
X67949998Y-148320494D01*
X67991353Y-148305276D01*
X68046257Y-148257766D01*
X68043669Y-148229658D01*
X68053846Y-148202937D01*
X68082061Y-148209048D01*
X68179079Y-148205548D01*
X68223068Y-148185742D01*
X68263558Y-148141626D01*
X68238718Y-148080069D01*
X68180455Y-148013097D01*
X68102825Y-147938537D01*
X68033856Y-147913881D01*
X67933440Y-147933242D01*
X67841849Y-147963387D01*
X67620726Y-148038731D01*
X67291778Y-148038731D01*
X67344735Y-148011418D01*
X67352371Y-148005761D01*
X67343774Y-147952718D01*
X67293141Y-147859307D01*
X67198263Y-147767123D01*
X67109031Y-147761897D01*
X67040611Y-147803658D01*
X67039020Y-147841624D01*
X67038643Y-147870488D01*
X67017740Y-147861150D01*
X66931370Y-147850631D01*
X66854610Y-147868188D01*
X66745438Y-147908573D01*
X66443063Y-147908573D01*
X66483900Y-147883108D01*
X66535736Y-147851094D01*
X66536495Y-147850646D01*
X66537023Y-147803475D01*
X66500245Y-147729053D01*
X66453492Y-147678517D01*
X66442943Y-147675600D01*
X66371815Y-147713543D01*
X66284419Y-147801772D01*
X66214054Y-147901878D01*
X66192400Y-147964578D01*
X66113832Y-147964578D01*
X66115286Y-147950669D01*
X66195073Y-147752480D01*
X66339652Y-147581595D01*
X66344355Y-147578321D01*
X66555924Y-147578321D01*
X66583225Y-147646517D01*
X66596471Y-147671249D01*
X66636318Y-147742921D01*
X66675120Y-147768915D01*
X66745306Y-147752580D01*
X66873158Y-147699832D01*
X66941979Y-147666320D01*
X67323929Y-147666320D01*
X67339813Y-147721200D01*
X67393907Y-147797529D01*
X67458842Y-147885730D01*
X67507072Y-147918706D01*
X67577393Y-147904050D01*
X67648205Y-147874519D01*
X68212566Y-147874519D01*
X68264132Y-147936569D01*
X68376305Y-148018025D01*
X68477217Y-148010196D01*
X68507505Y-147992322D01*
X68584021Y-147899609D01*
X68592535Y-147797300D01*
X68540708Y-147731830D01*
X68429116Y-147717345D01*
X68315851Y-147765875D01*
X68224522Y-147827080D01*
X68212566Y-147874519D01*
X67648205Y-147874519D01*
X67692631Y-147855992D01*
X67823680Y-147788084D01*
X67861237Y-147722558D01*
X67811327Y-147641326D01*
X67775588Y-147606991D01*
X67693816Y-147554255D01*
X67596962Y-147555409D01*
X67508888Y-147581259D01*
X67375673Y-147628354D01*
X67323929Y-147666320D01*
X66941979Y-147666320D01*
X66989654Y-147643105D01*
X67027306Y-147591875D01*
X67004575Y-147522032D01*
X66917299Y-147435601D01*
X66788809Y-147435955D01*
X66684360Y-147479281D01*
X66584022Y-147534837D01*
X66555924Y-147578321D01*
X66344355Y-147578321D01*
X66558513Y-147429245D01*
X66670866Y-147376311D01*
X67065535Y-147376311D01*
X67117406Y-147470506D01*
X67185789Y-147533516D01*
X67231706Y-147527621D01*
X67263796Y-147512165D01*
X67844474Y-147512165D01*
X67909502Y-147588630D01*
X67925517Y-147605699D01*
X68023867Y-147682871D01*
X68106675Y-147704066D01*
X68111816Y-147702497D01*
X68205778Y-147677594D01*
X68228554Y-147675600D01*
X68272910Y-147651105D01*
X68237521Y-147586600D01*
X68145622Y-147507388D01*
X68002375Y-147443965D01*
X67914274Y-147448690D01*
X67846772Y-147475394D01*
X67844474Y-147512165D01*
X67263796Y-147512165D01*
X67316630Y-147486718D01*
X67436938Y-147449864D01*
X67536062Y-147420209D01*
X67547535Y-147388844D01*
X67501228Y-147348937D01*
X67446179Y-147282096D01*
X67450489Y-147243383D01*
X67443491Y-147223963D01*
X67394180Y-147235922D01*
X67268206Y-147275787D01*
X67178280Y-147300323D01*
X67081451Y-147331169D01*
X67065535Y-147376311D01*
X66670866Y-147376311D01*
X66861147Y-147286663D01*
X67097820Y-147200666D01*
X67575532Y-147200666D01*
X67608205Y-147272389D01*
X67622375Y-147289325D01*
X67704692Y-147361067D01*
X67767235Y-147351886D01*
X67783810Y-147337256D01*
X67773669Y-147287569D01*
X67712791Y-147230474D01*
X67615997Y-147183046D01*
X67575532Y-147200666D01*
X67097820Y-147200666D01*
X67194073Y-147165692D01*
X67384933Y-147098165D01*
X67499908Y-147042377D01*
X67561168Y-146983465D01*
X67590884Y-146906569D01*
X67592722Y-146898472D01*
X67591754Y-146751962D01*
X67521533Y-146642742D01*
X67384651Y-146442363D01*
X67333027Y-146242535D01*
X67339850Y-146186373D01*
X67411600Y-146186373D01*
X67448139Y-146322591D01*
X67548952Y-146502679D01*
X67700829Y-146704789D01*
X67777978Y-146792409D01*
X67878468Y-146909042D01*
X67934538Y-146989690D01*
X67936229Y-147015200D01*
X67861749Y-146983152D01*
X67832586Y-146958666D01*
X67752218Y-146930172D01*
X67681517Y-146967933D01*
X67665599Y-147016305D01*
X67707482Y-147072525D01*
X67820698Y-147163828D01*
X67986598Y-147278118D01*
X68186531Y-147403299D01*
X68401848Y-147527277D01*
X68613900Y-147637955D01*
X68653757Y-147657184D01*
X68854032Y-147739491D01*
X69118490Y-147830289D01*
X69411684Y-147918167D01*
X69679464Y-147987364D01*
X70025423Y-148077863D01*
X70339928Y-148177788D01*
X70593658Y-148277488D01*
X70664854Y-148311660D01*
X70837477Y-148397791D01*
X70943314Y-148439693D01*
X71004535Y-148442226D01*
X71043309Y-148410249D01*
X71052596Y-148396655D01*
X71111109Y-148331709D01*
X71140442Y-148346859D01*
X71136257Y-148423687D01*
X71094218Y-148543774D01*
X71089570Y-148553693D01*
X71041465Y-148689738D01*
X71031092Y-148798437D01*
X71034998Y-148813982D01*
X71104867Y-148882522D01*
X71207863Y-148885658D01*
X71301609Y-148825970D01*
X71321412Y-148796539D01*
X71362205Y-148670266D01*
X71375615Y-148555239D01*
X71381736Y-148460667D01*
X71406825Y-148455904D01*
X71444715Y-148501100D01*
X71563266Y-148577743D01*
X71737269Y-148572868D01*
X71959669Y-148487650D01*
X72097352Y-148430588D01*
X72205192Y-148408607D01*
X72230067Y-148412026D01*
X72277288Y-148407552D01*
X72268080Y-148356320D01*
X72263827Y-148297538D01*
X72312278Y-148302986D01*
X72368968Y-148298490D01*
X72376354Y-148219742D01*
X72388532Y-148136683D01*
X72422216Y-148118138D01*
X72459847Y-148076543D01*
X72499401Y-147948908D01*
X72535397Y-147755289D01*
X72560324Y-147411425D01*
X72516745Y-147122176D01*
X72396744Y-146860602D01*
X72197429Y-146605210D01*
X71956764Y-146343476D01*
X71779682Y-146442042D01*
X71655994Y-146529882D01*
X71600218Y-146636531D01*
X71586833Y-146727104D01*
X71563527Y-146848113D01*
X71525871Y-146911064D01*
X71516726Y-146913600D01*
X71485397Y-146866838D01*
X71483314Y-146735057D01*
X71487824Y-146687914D01*
X71494863Y-146532938D01*
X71468116Y-146453078D01*
X71439476Y-146433914D01*
X71337201Y-146407849D01*
X71246517Y-146424204D01*
X71151960Y-146494458D01*
X71038068Y-146630091D01*
X70889728Y-146842064D01*
X70717927Y-147084996D01*
X70580393Y-147245539D01*
X70465386Y-147331891D01*
X70361167Y-147352250D01*
X70255996Y-147314815D01*
X70233080Y-147300634D01*
X70123656Y-147183046D01*
X70113151Y-147068214D01*
X70217194Y-147068214D01*
X70222181Y-147178184D01*
X70264655Y-147225291D01*
X70363447Y-147257851D01*
X70466037Y-147218276D01*
X70588245Y-147098177D01*
X70649647Y-147021155D01*
X70753889Y-146867842D01*
X70786398Y-146784603D01*
X70753756Y-146776784D01*
X70662540Y-146849734D01*
X70566052Y-146953230D01*
X70458936Y-147065207D01*
X70376413Y-147129919D01*
X70343509Y-147136176D01*
X70355113Y-147082902D01*
X70421759Y-146982757D01*
X70489862Y-146901528D01*
X70601422Y-146763846D01*
X70637561Y-146687205D01*
X70601650Y-146676801D01*
X70497061Y-146737833D01*
X70421269Y-146795791D01*
X70285925Y-146934255D01*
X70217194Y-147068214D01*
X70113151Y-147068214D01*
X70110651Y-147040894D01*
X70193494Y-146879869D01*
X70285417Y-146779898D01*
X70400787Y-146680108D01*
X70490487Y-146618451D01*
X70517440Y-146608800D01*
X70545333Y-146569311D01*
X70536732Y-146510136D01*
X70541264Y-146457557D01*
X70595377Y-146457557D01*
X70714143Y-146583978D01*
X70821016Y-146683360D01*
X70887935Y-146700975D01*
X70931895Y-146639194D01*
X70940073Y-146615499D01*
X71000270Y-146509297D01*
X71074177Y-146426495D01*
X71138591Y-146361905D01*
X71132770Y-146323524D01*
X71045461Y-146284393D01*
X71009380Y-146271260D01*
X70921871Y-146231602D01*
X70912331Y-146208325D01*
X70926192Y-146206264D01*
X71037931Y-146220950D01*
X71142092Y-146251942D01*
X71242224Y-146275196D01*
X71266877Y-146257658D01*
X71333696Y-146257658D01*
X71390639Y-146327866D01*
X71418952Y-146350230D01*
X71515659Y-146409126D01*
X71601836Y-146405984D01*
X71686186Y-146368900D01*
X71778307Y-146307092D01*
X71806172Y-146254605D01*
X71804551Y-146251180D01*
X71727052Y-146202158D01*
X71596317Y-146172424D01*
X71459647Y-146167521D01*
X71364341Y-146192994D01*
X71357505Y-146198777D01*
X71333696Y-146257658D01*
X71266877Y-146257658D01*
X71272400Y-146253729D01*
X71227353Y-146187164D01*
X71115033Y-146131539D01*
X70969670Y-146102219D01*
X70931691Y-146100800D01*
X70818859Y-146124041D01*
X70732331Y-146210190D01*
X70691440Y-146279178D01*
X70595377Y-146457557D01*
X70541264Y-146457557D01*
X70545307Y-146410672D01*
X70600313Y-146271552D01*
X70681613Y-146129881D01*
X70741428Y-146056621D01*
X71265912Y-146056621D01*
X71269960Y-146122258D01*
X71327113Y-146105313D01*
X71428464Y-146003398D01*
X71524295Y-145903877D01*
X71601013Y-145849964D01*
X71614762Y-145846800D01*
X71680345Y-145809338D01*
X71763729Y-145718479D01*
X71768808Y-145711605D01*
X71867291Y-145576410D01*
X72041190Y-145709049D01*
X72309598Y-145877214D01*
X72593132Y-145991922D01*
X72870907Y-146049426D01*
X73122033Y-146045982D01*
X73325626Y-145977843D01*
X73370329Y-145947403D01*
X73465434Y-145824340D01*
X73542905Y-145638844D01*
X73591743Y-145429864D01*
X73600954Y-145236350D01*
X73590225Y-145168514D01*
X73529565Y-145063163D01*
X73403244Y-144923538D01*
X73232810Y-144767490D01*
X73039810Y-144612872D01*
X72845793Y-144477535D01*
X72672306Y-144379331D01*
X72603244Y-144350826D01*
X72353530Y-144288936D01*
X72123613Y-144273899D01*
X71962261Y-144302870D01*
X71871062Y-144374742D01*
X71763828Y-144510685D01*
X71659900Y-144679527D01*
X71578621Y-144850098D01*
X71540317Y-144982898D01*
X71541006Y-145132483D01*
X71602516Y-145238367D01*
X71622976Y-145258054D01*
X71718478Y-145392893D01*
X71719934Y-145524511D01*
X71629967Y-145632886D01*
X71569655Y-145664956D01*
X71418601Y-145774445D01*
X71321393Y-145913776D01*
X71265912Y-146056621D01*
X70741428Y-146056621D01*
X70769074Y-146022761D01*
X70819337Y-145989354D01*
X70847579Y-145946335D01*
X70814452Y-145845026D01*
X70796875Y-145809683D01*
X70707835Y-145665323D01*
X70626885Y-145615758D01*
X70534289Y-145658066D01*
X70438140Y-145756587D01*
X70232387Y-145949127D01*
X70034526Y-146041029D01*
X69842566Y-146032775D01*
X69674354Y-145941018D01*
X69582008Y-145851037D01*
X69573974Y-145821268D01*
X69662799Y-145821268D01*
X69684742Y-145854262D01*
X69750319Y-145885495D01*
X69832488Y-145837150D01*
X69840099Y-145830359D01*
X69940367Y-145764486D01*
X70006400Y-145746329D01*
X70026317Y-145771163D01*
X69963809Y-145837054D01*
X69951600Y-145846800D01*
X69824600Y-145946140D01*
X69973931Y-145947270D01*
X70077201Y-145928196D01*
X70188276Y-145859374D01*
X70329559Y-145725826D01*
X70371176Y-145681700D01*
X70619090Y-145415000D01*
X70876016Y-145719800D01*
X70842974Y-145573465D01*
X70739992Y-145336450D01*
X70557560Y-145157642D01*
X70477322Y-145111880D01*
X70327998Y-145057069D01*
X70191370Y-145035849D01*
X70094890Y-145049179D01*
X70065900Y-145097500D01*
X70035219Y-145143979D01*
X69964300Y-145148898D01*
X69870159Y-145166299D01*
X69850000Y-145212398D01*
X69825037Y-145279655D01*
X69804169Y-145288000D01*
X69757565Y-145330721D01*
X69707417Y-145434193D01*
X69705095Y-145440733D01*
X69674327Y-145544536D01*
X69695834Y-145577747D01*
X69786296Y-145564939D01*
X69789026Y-145564360D01*
X69926200Y-145535253D01*
X69774843Y-145664129D01*
X69680469Y-145757721D01*
X69662799Y-145821268D01*
X69573974Y-145821268D01*
X69555830Y-145754049D01*
X69567841Y-145648918D01*
X69590841Y-145491280D01*
X69603083Y-145357843D01*
X69603311Y-145351500D01*
X69622556Y-145262182D01*
X69650579Y-145237200D01*
X69673908Y-145199748D01*
X69665170Y-145161000D01*
X69668233Y-145095802D01*
X69693952Y-145084800D01*
X69726442Y-145058126D01*
X69699387Y-144986539D01*
X69656572Y-144854843D01*
X69646800Y-144765520D01*
X69610548Y-144545111D01*
X69513668Y-144364955D01*
X69373973Y-144237212D01*
X69209275Y-144174043D01*
X69037388Y-144187607D01*
X68907729Y-144260990D01*
X68802736Y-144369437D01*
X68775391Y-144469519D01*
X68828065Y-144582909D01*
X68958702Y-144726945D01*
X69176792Y-144940984D01*
X69050273Y-145076392D01*
X68927855Y-145216712D01*
X68784055Y-145395074D01*
X68640096Y-145583591D01*
X68517201Y-145754378D01*
X68436595Y-145879548D01*
X68430439Y-145890806D01*
X68394534Y-145996863D01*
X68402519Y-146124842D01*
X68428676Y-146231644D01*
X68459559Y-146403299D01*
X68458914Y-146559168D01*
X68429682Y-146670913D01*
X68379025Y-146710400D01*
X68355079Y-146666772D01*
X68357173Y-146559712D01*
X68360154Y-146539294D01*
X68354614Y-146336476D01*
X68281956Y-146154128D01*
X68159932Y-146004014D01*
X68006297Y-145897894D01*
X67838805Y-145847530D01*
X67675210Y-145864684D01*
X67533265Y-145961117D01*
X67516887Y-145980650D01*
X67443921Y-146093589D01*
X67411682Y-146183420D01*
X67411600Y-146186373D01*
X67339850Y-146186373D01*
X67355415Y-146058267D01*
X67440567Y-145904565D01*
X67577237Y-145796437D01*
X67754178Y-145748889D01*
X67960145Y-145776929D01*
X68115829Y-145849727D01*
X68225578Y-145911911D01*
X68289875Y-145939330D01*
X68295742Y-145938437D01*
X68454837Y-145690293D01*
X68653502Y-145413325D01*
X68813834Y-145208067D01*
X69053934Y-144913290D01*
X68867767Y-144752361D01*
X68724642Y-144588502D01*
X68682624Y-144430528D01*
X68741524Y-144276424D01*
X68816017Y-144193374D01*
X68996580Y-144087730D01*
X69134914Y-144068799D01*
X69360068Y-144113163D01*
G37*
X69360068Y-144113163D02*
X69535616Y-144246036D01*
X69661256Y-144467089D01*
X69725331Y-144705555D01*
X69761625Y-144861601D01*
X69804330Y-144987781D01*
X69812021Y-145004023D01*
X69855584Y-145069994D01*
X69891761Y-145046647D01*
X69909458Y-145016723D01*
X70001364Y-144950791D01*
X70133555Y-144932399D01*
X70414452Y-144978186D01*
X70648735Y-145108878D01*
X70826058Y-145314471D01*
X70936072Y-145584962D01*
X70961718Y-145732920D01*
X70988723Y-145909559D01*
X71026924Y-146005322D01*
X71082858Y-146040595D01*
X71164357Y-146015380D01*
X71238557Y-145899459D01*
X71248132Y-145877323D01*
X71341142Y-145731225D01*
X71464706Y-145624014D01*
X71472552Y-145619775D01*
X71607887Y-145535436D01*
X71651601Y-145454915D01*
X71609427Y-145352968D01*
X71550398Y-145277070D01*
X71455931Y-145114968D01*
X71443431Y-144939928D01*
X71514611Y-144737967D01*
X71641325Y-144535892D01*
X71798077Y-144343973D01*
X71946421Y-144233051D01*
X72114047Y-144189151D01*
X72313800Y-144196491D01*
X72565619Y-144247740D01*
X72800498Y-144346807D01*
X73041864Y-144506453D01*
X73313143Y-144739443D01*
X73317100Y-144743132D01*
X73478070Y-144895521D01*
X73578637Y-145003240D01*
X73633006Y-145090584D01*
X73655381Y-145181846D01*
X73659967Y-145301322D01*
X73660000Y-145329596D01*
X73624180Y-145642230D01*
X73519261Y-145892646D01*
X73407535Y-146024600D01*
X73317248Y-146083438D01*
X73194472Y-146114329D01*
X73008445Y-146124045D01*
X72956023Y-146124014D01*
X72652882Y-146094660D01*
X72366251Y-146003332D01*
X72062561Y-145838861D01*
X72023433Y-145813715D01*
X71923908Y-145756102D01*
X71861716Y-145757082D01*
X71794833Y-145813020D01*
X71678450Y-145914959D01*
X71604247Y-145970835D01*
X71549120Y-146016374D01*
X71557998Y-146052019D01*
X71643622Y-146096877D01*
X71705847Y-146123190D01*
X71906251Y-146240944D01*
X72121181Y-146422288D01*
X72322587Y-146638562D01*
X72482420Y-146861107D01*
X72544137Y-146979698D01*
X72593779Y-147106999D01*
X72622761Y-147225176D01*
X72633816Y-147363210D01*
X72629674Y-147550083D01*
X72617205Y-147754952D01*
X72598896Y-147991932D01*
X72580397Y-148143151D01*
X72558049Y-148224390D01*
X72528195Y-148251426D01*
X72503026Y-148247408D01*
X72448739Y-148245036D01*
X72450167Y-148314711D01*
X72454327Y-148331444D01*
X72462842Y-148412758D01*
X72417057Y-148419571D01*
X72406037Y-148415636D01*
X72351371Y-148413663D01*
X72359698Y-148468546D01*
X72364671Y-148526752D01*
X72298066Y-148526781D01*
X72281371Y-148522642D01*
X72157174Y-148524444D01*
X72031949Y-148565867D01*
X71885742Y-148622715D01*
X71712421Y-148666475D01*
X71691992Y-148669982D01*
X71525959Y-148721954D01*
X71417770Y-148827714D01*
X71404387Y-148849235D01*
X71300479Y-148966666D01*
X71177703Y-148987545D01*
X71024687Y-148913806D01*
X71024638Y-148913772D01*
X70937905Y-148819567D01*
X70933389Y-148697552D01*
X70938560Y-148619513D01*
X70905003Y-148556226D01*
X70814450Y-148487257D01*
X70671753Y-148404888D01*
X70457106Y-148305053D01*
X70216840Y-148220179D01*
X70078600Y-148184791D01*
X69879818Y-148139752D01*
X69618161Y-148073234D01*
X69327614Y-147994428D01*
X69042162Y-147912526D01*
X68818298Y-147843953D01*
X68738324Y-147849974D01*
X68694899Y-147935030D01*
X68638664Y-148085727D01*
X68544289Y-148280692D01*
X68432210Y-148482435D01*
X68322863Y-148653468D01*
X68258893Y-148734840D01*
X68132658Y-148836837D01*
X67943191Y-148951735D01*
X67724384Y-149062613D01*
X67510130Y-149152549D01*
X67334321Y-149204624D01*
X67310000Y-149208587D01*
X67151955Y-149215551D01*
X66955209Y-149206000D01*
X66864949Y-149196048D01*
X66686250Y-149159945D01*
X66531970Y-149108880D01*
X66477129Y-149080763D01*
X66456658Y-149060082D01*
X66863723Y-149060082D01*
X66905799Y-149087768D01*
X66929000Y-149098000D01*
X67024938Y-149137333D01*
X67050467Y-149136111D01*
X67030600Y-149098000D01*
X66958384Y-149055325D01*
X66913301Y-149050770D01*
X66863723Y-149060082D01*
X66456658Y-149060082D01*
X66342687Y-148944945D01*
X66248493Y-148781316D01*
X66376953Y-148781316D01*
X66422939Y-148877209D01*
X66449826Y-148913018D01*
X66558459Y-149020424D01*
X66659295Y-149039731D01*
X66745008Y-149001301D01*
X66746329Y-148999672D01*
X67096145Y-148999672D01*
X67114158Y-149030666D01*
X67208764Y-149079889D01*
X67352045Y-149095501D01*
X67496241Y-149075866D01*
X67564000Y-149046048D01*
X67605244Y-149001289D01*
X67573767Y-148947554D01*
X67516429Y-148899764D01*
X67425115Y-148839673D01*
X67346280Y-148834492D01*
X67229998Y-148881446D01*
X67225467Y-148883604D01*
X67118591Y-148946270D01*
X67096145Y-148999672D01*
X66746329Y-148999672D01*
X66785124Y-148951853D01*
X66764193Y-148877031D01*
X66675564Y-148757100D01*
X66654223Y-148731900D01*
X66545719Y-148649560D01*
X66445507Y-148667908D01*
X66401560Y-148709818D01*
X66376953Y-148781316D01*
X66248493Y-148781316D01*
X66224607Y-148739823D01*
X66136805Y-148497667D01*
X66110414Y-148348234D01*
X66197706Y-148348234D01*
X66214098Y-148461136D01*
X66242906Y-148577289D01*
X66282075Y-148612229D01*
X66348779Y-148587870D01*
X66377006Y-148569981D01*
X66688279Y-148569981D01*
X66740943Y-148687224D01*
X66781405Y-148738846D01*
X66872020Y-148834738D01*
X66936568Y-148881906D01*
X66948008Y-148882600D01*
X67012190Y-148850056D01*
X67119500Y-148796115D01*
X67214921Y-148739626D01*
X67540314Y-148739626D01*
X67558557Y-148793650D01*
X67643831Y-148858315D01*
X67651030Y-148862172D01*
X67814475Y-148900762D01*
X67960300Y-148850539D01*
X68029199Y-148777501D01*
X68041938Y-148679620D01*
X67978953Y-148591226D01*
X67937854Y-148568887D01*
X67842749Y-148572530D01*
X67712882Y-148618221D01*
X67594161Y-148686243D01*
X67540314Y-148739626D01*
X67214921Y-148739626D01*
X67216940Y-148738431D01*
X67257716Y-148696669D01*
X67257710Y-148696145D01*
X67225582Y-148643661D01*
X67146377Y-148546527D01*
X67104714Y-148499631D01*
X66997653Y-148396445D01*
X66919443Y-148365170D01*
X66860726Y-148382558D01*
X66726718Y-148475114D01*
X66688279Y-148569981D01*
X66377006Y-148569981D01*
X66411862Y-148547892D01*
X66418547Y-148502785D01*
X66367544Y-148418926D01*
X66340841Y-148381240D01*
X66253776Y-148277036D01*
X66206360Y-148265848D01*
X66197706Y-148348234D01*
X66110414Y-148348234D01*
X66093195Y-148250742D01*
X66090799Y-148184929D01*
X66095213Y-148142696D01*
X66294128Y-148142696D01*
X66400895Y-148292637D01*
X66478749Y-148386550D01*
X66534348Y-148426581D01*
X66540531Y-148425759D01*
X66605558Y-148392920D01*
X66713100Y-148338915D01*
X66748089Y-148319065D01*
X67085272Y-148319065D01*
X67139904Y-148390961D01*
X67212944Y-148467688D01*
X67325057Y-148579890D01*
X67397241Y-148628032D01*
X67460785Y-148620510D01*
X67546982Y-148565723D01*
X67555643Y-148559655D01*
X67633549Y-148497038D01*
X67633107Y-148485256D01*
X68076375Y-148485256D01*
X68128435Y-148575278D01*
X68131681Y-148578561D01*
X68184971Y-148597414D01*
X68252183Y-148542199D01*
X68309481Y-148464416D01*
X68383200Y-148349927D01*
X68424438Y-148274229D01*
X68427600Y-148263317D01*
X68387454Y-148265248D01*
X68287383Y-148303525D01*
X68249800Y-148320830D01*
X68115175Y-148404049D01*
X68076375Y-148485256D01*
X67633107Y-148485256D01*
X67631844Y-148451652D01*
X67579647Y-148404452D01*
X67522536Y-148355505D01*
X67545356Y-148359177D01*
X67606450Y-148388113D01*
X67716454Y-148425865D01*
X67752327Y-148401755D01*
X67713447Y-148324061D01*
X67619103Y-148220071D01*
X67501732Y-148122432D01*
X67436422Y-148107144D01*
X67426974Y-148120100D01*
X67361893Y-148177616D01*
X67327827Y-148183600D01*
X67223757Y-148206649D01*
X67148839Y-148239088D01*
X67090617Y-148276882D01*
X67085272Y-148319065D01*
X66748089Y-148319065D01*
X66813768Y-148281804D01*
X66841041Y-148228516D01*
X66797615Y-148148207D01*
X66736493Y-148071468D01*
X66623841Y-147933936D01*
X66458984Y-148038316D01*
X66294128Y-148142696D01*
X66095213Y-148142696D01*
X66113832Y-147964578D01*
X66192400Y-147964578D01*
X66203676Y-148019478D01*
X66251449Y-148019447D01*
X66356635Y-147962355D01*
X66384687Y-147944975D01*
X66443063Y-147908573D01*
X66745438Y-147908573D01*
X66853097Y-148045440D01*
X66928143Y-148131317D01*
X66993854Y-148155358D01*
X67093685Y-148126433D01*
X67145469Y-148105129D01*
X67268640Y-148050665D01*
X67291778Y-148038731D01*
X67620726Y-148038731D01*
X67753160Y-148187365D01*
X67840106Y-148281653D01*
X67893075Y-148332903D01*
X67898442Y-148336000D01*
X67949998Y-148320494D01*
X67991353Y-148305276D01*
X68046257Y-148257766D01*
X68043669Y-148229658D01*
X68053846Y-148202937D01*
X68082061Y-148209048D01*
X68179079Y-148205548D01*
X68223068Y-148185742D01*
X68263558Y-148141626D01*
X68238718Y-148080069D01*
X68180455Y-148013097D01*
X68102825Y-147938537D01*
X68033856Y-147913881D01*
X67933440Y-147933242D01*
X67841849Y-147963387D01*
X67620726Y-148038731D01*
X67291778Y-148038731D01*
X67344735Y-148011418D01*
X67352371Y-148005761D01*
X67343774Y-147952718D01*
X67293141Y-147859307D01*
X67198263Y-147767123D01*
X67109031Y-147761897D01*
X67040611Y-147803658D01*
X67039020Y-147841624D01*
X67038643Y-147870488D01*
X67017740Y-147861150D01*
X66931370Y-147850631D01*
X66854610Y-147868188D01*
X66745438Y-147908573D01*
X66443063Y-147908573D01*
X66483900Y-147883108D01*
X66535736Y-147851094D01*
X66536495Y-147850646D01*
X66537023Y-147803475D01*
X66500245Y-147729053D01*
X66453492Y-147678517D01*
X66442943Y-147675600D01*
X66371815Y-147713543D01*
X66284419Y-147801772D01*
X66214054Y-147901878D01*
X66192400Y-147964578D01*
X66113832Y-147964578D01*
X66115286Y-147950669D01*
X66195073Y-147752480D01*
X66339652Y-147581595D01*
X66344355Y-147578321D01*
X66555924Y-147578321D01*
X66583225Y-147646517D01*
X66596471Y-147671249D01*
X66636318Y-147742921D01*
X66675120Y-147768915D01*
X66745306Y-147752580D01*
X66873158Y-147699832D01*
X66941979Y-147666320D01*
X67323929Y-147666320D01*
X67339813Y-147721200D01*
X67393907Y-147797529D01*
X67458842Y-147885730D01*
X67507072Y-147918706D01*
X67577393Y-147904050D01*
X67648205Y-147874519D01*
X68212566Y-147874519D01*
X68264132Y-147936569D01*
X68376305Y-148018025D01*
X68477217Y-148010196D01*
X68507505Y-147992322D01*
X68584021Y-147899609D01*
X68592535Y-147797300D01*
X68540708Y-147731830D01*
X68429116Y-147717345D01*
X68315851Y-147765875D01*
X68224522Y-147827080D01*
X68212566Y-147874519D01*
X67648205Y-147874519D01*
X67692631Y-147855992D01*
X67823680Y-147788084D01*
X67861237Y-147722558D01*
X67811327Y-147641326D01*
X67775588Y-147606991D01*
X67693816Y-147554255D01*
X67596962Y-147555409D01*
X67508888Y-147581259D01*
X67375673Y-147628354D01*
X67323929Y-147666320D01*
X66941979Y-147666320D01*
X66989654Y-147643105D01*
X67027306Y-147591875D01*
X67004575Y-147522032D01*
X66917299Y-147435601D01*
X66788809Y-147435955D01*
X66684360Y-147479281D01*
X66584022Y-147534837D01*
X66555924Y-147578321D01*
X66344355Y-147578321D01*
X66558513Y-147429245D01*
X66670866Y-147376311D01*
X67065535Y-147376311D01*
X67117406Y-147470506D01*
X67185789Y-147533516D01*
X67231706Y-147527621D01*
X67263796Y-147512165D01*
X67844474Y-147512165D01*
X67909502Y-147588630D01*
X67925517Y-147605699D01*
X68023867Y-147682871D01*
X68106675Y-147704066D01*
X68111816Y-147702497D01*
X68205778Y-147677594D01*
X68228554Y-147675600D01*
X68272910Y-147651105D01*
X68237521Y-147586600D01*
X68145622Y-147507388D01*
X68002375Y-147443965D01*
X67914274Y-147448690D01*
X67846772Y-147475394D01*
X67844474Y-147512165D01*
X67263796Y-147512165D01*
X67316630Y-147486718D01*
X67436938Y-147449864D01*
X67536062Y-147420209D01*
X67547535Y-147388844D01*
X67501228Y-147348937D01*
X67446179Y-147282096D01*
X67450489Y-147243383D01*
X67443491Y-147223963D01*
X67394180Y-147235922D01*
X67268206Y-147275787D01*
X67178280Y-147300323D01*
X67081451Y-147331169D01*
X67065535Y-147376311D01*
X66670866Y-147376311D01*
X66861147Y-147286663D01*
X67097820Y-147200666D01*
X67575532Y-147200666D01*
X67608205Y-147272389D01*
X67622375Y-147289325D01*
X67704692Y-147361067D01*
X67767235Y-147351886D01*
X67783810Y-147337256D01*
X67773669Y-147287569D01*
X67712791Y-147230474D01*
X67615997Y-147183046D01*
X67575532Y-147200666D01*
X67097820Y-147200666D01*
X67194073Y-147165692D01*
X67384933Y-147098165D01*
X67499908Y-147042377D01*
X67561168Y-146983465D01*
X67590884Y-146906569D01*
X67592722Y-146898472D01*
X67591754Y-146751962D01*
X67521533Y-146642742D01*
X67384651Y-146442363D01*
X67333027Y-146242535D01*
X67339850Y-146186373D01*
X67411600Y-146186373D01*
X67448139Y-146322591D01*
X67548952Y-146502679D01*
X67700829Y-146704789D01*
X67777978Y-146792409D01*
X67878468Y-146909042D01*
X67934538Y-146989690D01*
X67936229Y-147015200D01*
X67861749Y-146983152D01*
X67832586Y-146958666D01*
X67752218Y-146930172D01*
X67681517Y-146967933D01*
X67665599Y-147016305D01*
X67707482Y-147072525D01*
X67820698Y-147163828D01*
X67986598Y-147278118D01*
X68186531Y-147403299D01*
X68401848Y-147527277D01*
X68613900Y-147637955D01*
X68653757Y-147657184D01*
X68854032Y-147739491D01*
X69118490Y-147830289D01*
X69411684Y-147918167D01*
X69679464Y-147987364D01*
X70025423Y-148077863D01*
X70339928Y-148177788D01*
X70593658Y-148277488D01*
X70664854Y-148311660D01*
X70837477Y-148397791D01*
X70943314Y-148439693D01*
X71004535Y-148442226D01*
X71043309Y-148410249D01*
X71052596Y-148396655D01*
X71111109Y-148331709D01*
X71140442Y-148346859D01*
X71136257Y-148423687D01*
X71094218Y-148543774D01*
X71089570Y-148553693D01*
X71041465Y-148689738D01*
X71031092Y-148798437D01*
X71034998Y-148813982D01*
X71104867Y-148882522D01*
X71207863Y-148885658D01*
X71301609Y-148825970D01*
X71321412Y-148796539D01*
X71362205Y-148670266D01*
X71375615Y-148555239D01*
X71381736Y-148460667D01*
X71406825Y-148455904D01*
X71444715Y-148501100D01*
X71563266Y-148577743D01*
X71737269Y-148572868D01*
X71959669Y-148487650D01*
X72097352Y-148430588D01*
X72205192Y-148408607D01*
X72230067Y-148412026D01*
X72277288Y-148407552D01*
X72268080Y-148356320D01*
X72263827Y-148297538D01*
X72312278Y-148302986D01*
X72368968Y-148298490D01*
X72376354Y-148219742D01*
X72388532Y-148136683D01*
X72422216Y-148118138D01*
X72459847Y-148076543D01*
X72499401Y-147948908D01*
X72535397Y-147755289D01*
X72560324Y-147411425D01*
X72516745Y-147122176D01*
X72396744Y-146860602D01*
X72197429Y-146605210D01*
X71956764Y-146343476D01*
X71779682Y-146442042D01*
X71655994Y-146529882D01*
X71600218Y-146636531D01*
X71586833Y-146727104D01*
X71563527Y-146848113D01*
X71525871Y-146911064D01*
X71516726Y-146913600D01*
X71485397Y-146866838D01*
X71483314Y-146735057D01*
X71487824Y-146687914D01*
X71494863Y-146532938D01*
X71468116Y-146453078D01*
X71439476Y-146433914D01*
X71337201Y-146407849D01*
X71246517Y-146424204D01*
X71151960Y-146494458D01*
X71038068Y-146630091D01*
X70889728Y-146842064D01*
X70717927Y-147084996D01*
X70580393Y-147245539D01*
X70465386Y-147331891D01*
X70361167Y-147352250D01*
X70255996Y-147314815D01*
X70233080Y-147300634D01*
X70123656Y-147183046D01*
X70113151Y-147068214D01*
X70217194Y-147068214D01*
X70222181Y-147178184D01*
X70264655Y-147225291D01*
X70363447Y-147257851D01*
X70466037Y-147218276D01*
X70588245Y-147098177D01*
X70649647Y-147021155D01*
X70753889Y-146867842D01*
X70786398Y-146784603D01*
X70753756Y-146776784D01*
X70662540Y-146849734D01*
X70566052Y-146953230D01*
X70458936Y-147065207D01*
X70376413Y-147129919D01*
X70343509Y-147136176D01*
X70355113Y-147082902D01*
X70421759Y-146982757D01*
X70489862Y-146901528D01*
X70601422Y-146763846D01*
X70637561Y-146687205D01*
X70601650Y-146676801D01*
X70497061Y-146737833D01*
X70421269Y-146795791D01*
X70285925Y-146934255D01*
X70217194Y-147068214D01*
X70113151Y-147068214D01*
X70110651Y-147040894D01*
X70193494Y-146879869D01*
X70285417Y-146779898D01*
X70400787Y-146680108D01*
X70490487Y-146618451D01*
X70517440Y-146608800D01*
X70545333Y-146569311D01*
X70536732Y-146510136D01*
X70541264Y-146457557D01*
X70595377Y-146457557D01*
X70714143Y-146583978D01*
X70821016Y-146683360D01*
X70887935Y-146700975D01*
X70931895Y-146639194D01*
X70940073Y-146615499D01*
X71000270Y-146509297D01*
X71074177Y-146426495D01*
X71138591Y-146361905D01*
X71132770Y-146323524D01*
X71045461Y-146284393D01*
X71009380Y-146271260D01*
X70921871Y-146231602D01*
X70912331Y-146208325D01*
X70926192Y-146206264D01*
X71037931Y-146220950D01*
X71142092Y-146251942D01*
X71242224Y-146275196D01*
X71266877Y-146257658D01*
X71333696Y-146257658D01*
X71390639Y-146327866D01*
X71418952Y-146350230D01*
X71515659Y-146409126D01*
X71601836Y-146405984D01*
X71686186Y-146368900D01*
X71778307Y-146307092D01*
X71806172Y-146254605D01*
X71804551Y-146251180D01*
X71727052Y-146202158D01*
X71596317Y-146172424D01*
X71459647Y-146167521D01*
X71364341Y-146192994D01*
X71357505Y-146198777D01*
X71333696Y-146257658D01*
X71266877Y-146257658D01*
X71272400Y-146253729D01*
X71227353Y-146187164D01*
X71115033Y-146131539D01*
X70969670Y-146102219D01*
X70931691Y-146100800D01*
X70818859Y-146124041D01*
X70732331Y-146210190D01*
X70691440Y-146279178D01*
X70595377Y-146457557D01*
X70541264Y-146457557D01*
X70545307Y-146410672D01*
X70600313Y-146271552D01*
X70681613Y-146129881D01*
X70741428Y-146056621D01*
X71265912Y-146056621D01*
X71269960Y-146122258D01*
X71327113Y-146105313D01*
X71428464Y-146003398D01*
X71524295Y-145903877D01*
X71601013Y-145849964D01*
X71614762Y-145846800D01*
X71680345Y-145809338D01*
X71763729Y-145718479D01*
X71768808Y-145711605D01*
X71867291Y-145576410D01*
X72041190Y-145709049D01*
X72309598Y-145877214D01*
X72593132Y-145991922D01*
X72870907Y-146049426D01*
X73122033Y-146045982D01*
X73325626Y-145977843D01*
X73370329Y-145947403D01*
X73465434Y-145824340D01*
X73542905Y-145638844D01*
X73591743Y-145429864D01*
X73600954Y-145236350D01*
X73590225Y-145168514D01*
X73529565Y-145063163D01*
X73403244Y-144923538D01*
X73232810Y-144767490D01*
X73039810Y-144612872D01*
X72845793Y-144477535D01*
X72672306Y-144379331D01*
X72603244Y-144350826D01*
X72353530Y-144288936D01*
X72123613Y-144273899D01*
X71962261Y-144302870D01*
X71871062Y-144374742D01*
X71763828Y-144510685D01*
X71659900Y-144679527D01*
X71578621Y-144850098D01*
X71540317Y-144982898D01*
X71541006Y-145132483D01*
X71602516Y-145238367D01*
X71622976Y-145258054D01*
X71718478Y-145392893D01*
X71719934Y-145524511D01*
X71629967Y-145632886D01*
X71569655Y-145664956D01*
X71418601Y-145774445D01*
X71321393Y-145913776D01*
X71265912Y-146056621D01*
X70741428Y-146056621D01*
X70769074Y-146022761D01*
X70819337Y-145989354D01*
X70847579Y-145946335D01*
X70814452Y-145845026D01*
X70796875Y-145809683D01*
X70707835Y-145665323D01*
X70626885Y-145615758D01*
X70534289Y-145658066D01*
X70438140Y-145756587D01*
X70232387Y-145949127D01*
X70034526Y-146041029D01*
X69842566Y-146032775D01*
X69674354Y-145941018D01*
X69582008Y-145851037D01*
X69573974Y-145821268D01*
X69662799Y-145821268D01*
X69684742Y-145854262D01*
X69750319Y-145885495D01*
X69832488Y-145837150D01*
X69840099Y-145830359D01*
X69940367Y-145764486D01*
X70006400Y-145746329D01*
X70026317Y-145771163D01*
X69963809Y-145837054D01*
X69951600Y-145846800D01*
X69824600Y-145946140D01*
X69973931Y-145947270D01*
X70077201Y-145928196D01*
X70188276Y-145859374D01*
X70329559Y-145725826D01*
X70371176Y-145681700D01*
X70619090Y-145415000D01*
X70876016Y-145719800D01*
X70842974Y-145573465D01*
X70739992Y-145336450D01*
X70557560Y-145157642D01*
X70477322Y-145111880D01*
X70327998Y-145057069D01*
X70191370Y-145035849D01*
X70094890Y-145049179D01*
X70065900Y-145097500D01*
X70035219Y-145143979D01*
X69964300Y-145148898D01*
X69870159Y-145166299D01*
X69850000Y-145212398D01*
X69825037Y-145279655D01*
X69804169Y-145288000D01*
X69757565Y-145330721D01*
X69707417Y-145434193D01*
X69705095Y-145440733D01*
X69674327Y-145544536D01*
X69695834Y-145577747D01*
X69786296Y-145564939D01*
X69789026Y-145564360D01*
X69926200Y-145535253D01*
X69774843Y-145664129D01*
X69680469Y-145757721D01*
X69662799Y-145821268D01*
X69573974Y-145821268D01*
X69555830Y-145754049D01*
X69567841Y-145648918D01*
X69590841Y-145491280D01*
X69603083Y-145357843D01*
X69603311Y-145351500D01*
X69622556Y-145262182D01*
X69650579Y-145237200D01*
X69673908Y-145199748D01*
X69665170Y-145161000D01*
X69668233Y-145095802D01*
X69693952Y-145084800D01*
X69726442Y-145058126D01*
X69699387Y-144986539D01*
X69656572Y-144854843D01*
X69646800Y-144765520D01*
X69610548Y-144545111D01*
X69513668Y-144364955D01*
X69373973Y-144237212D01*
X69209275Y-144174043D01*
X69037388Y-144187607D01*
X68907729Y-144260990D01*
X68802736Y-144369437D01*
X68775391Y-144469519D01*
X68828065Y-144582909D01*
X68958702Y-144726945D01*
X69176792Y-144940984D01*
X69050273Y-145076392D01*
X68927855Y-145216712D01*
X68784055Y-145395074D01*
X68640096Y-145583591D01*
X68517201Y-145754378D01*
X68436595Y-145879548D01*
X68430439Y-145890806D01*
X68394534Y-145996863D01*
X68402519Y-146124842D01*
X68428676Y-146231644D01*
X68459559Y-146403299D01*
X68458914Y-146559168D01*
X68429682Y-146670913D01*
X68379025Y-146710400D01*
X68355079Y-146666772D01*
X68357173Y-146559712D01*
X68360154Y-146539294D01*
X68354614Y-146336476D01*
X68281956Y-146154128D01*
X68159932Y-146004014D01*
X68006297Y-145897894D01*
X67838805Y-145847530D01*
X67675210Y-145864684D01*
X67533265Y-145961117D01*
X67516887Y-145980650D01*
X67443921Y-146093589D01*
X67411682Y-146183420D01*
X67411600Y-146186373D01*
X67339850Y-146186373D01*
X67355415Y-146058267D01*
X67440567Y-145904565D01*
X67577237Y-145796437D01*
X67754178Y-145748889D01*
X67960145Y-145776929D01*
X68115829Y-145849727D01*
X68225578Y-145911911D01*
X68289875Y-145939330D01*
X68295742Y-145938437D01*
X68454837Y-145690293D01*
X68653502Y-145413325D01*
X68813834Y-145208067D01*
X69053934Y-144913290D01*
X68867767Y-144752361D01*
X68724642Y-144588502D01*
X68682624Y-144430528D01*
X68741524Y-144276424D01*
X68816017Y-144193374D01*
X68996580Y-144087730D01*
X69134914Y-144068799D01*
X69360068Y-144113163D01*
D14*
X79375000Y-103886000D02*
X79375000Y-101981000D01*
X79375000Y-98044000D02*
X79375000Y-99949000D01*
X89535000Y-98044000D02*
X89535000Y-103886000D01*
X79375000Y-103886000D02*
X89535000Y-103886000D01*
X89535000Y-98044000D02*
X79375000Y-98044000D01*
X79375000Y-101981000D02*
G75*
G03*
X79375000Y-99949000I0J1016000D01*
G01*
D11*
X84455000Y-120904000D02*
X84201000Y-120650000D01*
X84455000Y-120904000D02*
X84709000Y-120650000D01*
X84455000Y-120396000D02*
X84455000Y-120904000D01*
X84455000Y-115824000D02*
X84709000Y-116078000D01*
X84455000Y-115824000D02*
X84201000Y-116078000D01*
X84455000Y-116332000D02*
X84455000Y-115824000D01*
D14*
X82804000Y-112014000D02*
X82804000Y-111379000D01*
X82169000Y-112014000D02*
X82804000Y-112014000D01*
X82169000Y-124714000D02*
X82169000Y-112014000D01*
X82804000Y-124714000D02*
X82169000Y-124714000D01*
X82804000Y-125349000D02*
X82804000Y-124714000D01*
X86106000Y-125349000D02*
X82804000Y-125349000D01*
X86106000Y-124714000D02*
X86106000Y-125349000D01*
X86741000Y-124714000D02*
X86106000Y-124714000D01*
X86741000Y-112014000D02*
X86741000Y-124714000D01*
X86106000Y-112014000D02*
X86741000Y-112014000D01*
X86106000Y-111379000D02*
X86106000Y-112014000D01*
X82804000Y-111379000D02*
X86106000Y-111379000D01*
D11*
X87249000Y-85090000D02*
X86995000Y-85344000D01*
X87249000Y-85090000D02*
X86995000Y-84836000D01*
X86741000Y-85090000D02*
X87249000Y-85090000D01*
X82169000Y-85090000D02*
X82423000Y-84836000D01*
X82169000Y-85090000D02*
X82423000Y-85344000D01*
X82677000Y-85090000D02*
X82169000Y-85090000D01*
D14*
X78359000Y-86741000D02*
X77724000Y-86741000D01*
X78359000Y-87376000D02*
X78359000Y-86741000D01*
X91059000Y-87376000D02*
X78359000Y-87376000D01*
X91059000Y-86741000D02*
X91059000Y-87376000D01*
X91694000Y-86741000D02*
X91059000Y-86741000D01*
X91694000Y-83439000D02*
X91694000Y-86741000D01*
X91059000Y-83439000D02*
X91694000Y-83439000D01*
X91059000Y-82804000D02*
X91059000Y-83439000D01*
X78359000Y-82804000D02*
X91059000Y-82804000D01*
X78359000Y-83439000D02*
X78359000Y-82804000D01*
X77724000Y-83439000D02*
X78359000Y-83439000D01*
X77724000Y-86741000D02*
X77724000Y-83439000D01*
D11*
X68826000Y-117983000D02*
X69461000Y-117348000D01*
X68826000Y-117983000D02*
X69461000Y-118618000D01*
X70096000Y-117983000D02*
X68826000Y-117983000D01*
X73906000Y-117983000D02*
X73271000Y-118618000D01*
X73906000Y-117983000D02*
X73271000Y-117348000D01*
X72636000Y-117983000D02*
X73906000Y-117983000D01*
D14*
X64762000Y-113411000D02*
X77970000Y-113411000D01*
X64762000Y-113919000D02*
X64762000Y-113411000D01*
X64254000Y-113919000D02*
X64762000Y-113919000D01*
X64254000Y-122047000D02*
X64254000Y-113919000D01*
X64762000Y-122047000D02*
X64254000Y-122047000D01*
X64762000Y-122555000D02*
X64762000Y-122047000D01*
X77970000Y-122555000D02*
X64762000Y-122555000D01*
X77970000Y-122047000D02*
X77970000Y-122555000D01*
X78478000Y-122047000D02*
X77970000Y-122047000D01*
X78478000Y-113919000D02*
X78478000Y-122047000D01*
X77970000Y-113919000D02*
X78478000Y-113919000D01*
X77970000Y-113411000D02*
X77970000Y-113919000D01*
X76835000Y-154178000D02*
X76835000Y-138938000D01*
X92075000Y-154178000D02*
X76835000Y-154178000D01*
X92075000Y-138938000D02*
X92075000Y-154178000D01*
X76835000Y-138938000D02*
X92075000Y-138938000D01*
D11*
X104394000Y-81534000D02*
X104394000Y-78486000D01*
X101346000Y-81534000D02*
X104394000Y-81534000D01*
X101346000Y-78486000D02*
X101346000Y-81534000D01*
X99314000Y-81534000D02*
X99314000Y-78486000D01*
X96266000Y-81534000D02*
X99314000Y-81534000D01*
X96266000Y-78486000D02*
X96266000Y-81534000D01*
X94234000Y-81534000D02*
X94234000Y-78486000D01*
X91186000Y-81534000D02*
X94234000Y-81534000D01*
X91186000Y-78486000D02*
X91186000Y-81534000D01*
X101346000Y-78486000D02*
X104394000Y-78486000D01*
X96266000Y-78486000D02*
X99314000Y-78486000D01*
X91186000Y-78486000D02*
X94234000Y-78486000D01*
X77724000Y-81534000D02*
X77724000Y-78486000D01*
X74676000Y-81534000D02*
X77724000Y-81534000D01*
X74676000Y-78486000D02*
X74676000Y-81534000D01*
X72644000Y-81534000D02*
X72644000Y-78486000D01*
X69596000Y-81534000D02*
X72644000Y-81534000D01*
X69596000Y-78486000D02*
X69596000Y-81534000D01*
X67564000Y-81534000D02*
X67564000Y-78486000D01*
X64516000Y-81534000D02*
X67564000Y-81534000D01*
X64516000Y-78486000D02*
X64516000Y-81534000D01*
X74676000Y-78486000D02*
X77724000Y-78486000D01*
X69596000Y-78486000D02*
X72644000Y-78486000D01*
X64516000Y-78486000D02*
X67564000Y-78486000D01*
X77724000Y-110109000D02*
X77724000Y-107061000D01*
X74676000Y-110109000D02*
X77724000Y-110109000D01*
X74676000Y-107061000D02*
X74676000Y-110109000D01*
X72644000Y-110109000D02*
X72644000Y-107061000D01*
X69596000Y-110109000D02*
X72644000Y-110109000D01*
X69596000Y-107061000D02*
X69596000Y-110109000D01*
X67564000Y-110109000D02*
X67564000Y-107061000D01*
X64516000Y-110109000D02*
X67564000Y-110109000D01*
X64516000Y-107061000D02*
X64516000Y-110109000D01*
X74676000Y-107061000D02*
X77724000Y-107061000D01*
X69596000Y-107061000D02*
X72644000Y-107061000D01*
X64516000Y-107061000D02*
X67564000Y-107061000D01*
X104394000Y-110109000D02*
X104394000Y-107061000D01*
X101346000Y-110109000D02*
X104394000Y-110109000D01*
X101346000Y-107061000D02*
X101346000Y-110109000D01*
X99314000Y-110109000D02*
X99314000Y-107061000D01*
X96266000Y-110109000D02*
X99314000Y-110109000D01*
X96266000Y-107061000D02*
X96266000Y-110109000D01*
X94234000Y-110109000D02*
X94234000Y-107061000D01*
X91186000Y-110109000D02*
X94234000Y-110109000D01*
X91186000Y-107061000D02*
X91186000Y-110109000D01*
X101346000Y-107061000D02*
X104394000Y-107061000D01*
X96266000Y-107061000D02*
X99314000Y-107061000D01*
X91186000Y-107061000D02*
X94234000Y-107061000D01*
D14*
X89265000Y-117983000D02*
X89265000Y-119507000D01*
X89519000Y-117729000D02*
X90535000Y-117729000D01*
X89519000Y-119761000D02*
X90535000Y-119761000D01*
X90662000Y-117856000D02*
X93488000Y-117856000D01*
X90662000Y-117856000D02*
X90535000Y-117729000D01*
X90662000Y-119634000D02*
X93488000Y-119634000D01*
X90662000Y-119634000D02*
X90535000Y-119761000D01*
X93488000Y-117856000D02*
X93615000Y-117729000D01*
X94631000Y-117729000D02*
X93615000Y-117729000D01*
X93488000Y-119634000D02*
X93615000Y-119761000D01*
X94631000Y-119761000D02*
X93615000Y-119761000D01*
X94885000Y-117983000D02*
X94885000Y-119507000D01*
X89265000Y-119507000D02*
G75*
G03*
X89519000Y-119761000I254000J0D01*
G01*
X89265000Y-117983000D02*
G75*
G02*
X89519000Y-117729000I254000J0D01*
G01*
X94631000Y-117729000D02*
G75*
G02*
X94885000Y-117983000I0J-254000D01*
G01*
X94631000Y-119761000D02*
G75*
G03*
X94885000Y-119507000I0J254000D01*
G01*
X89265000Y-121158000D02*
X89265000Y-122682000D01*
X89519000Y-120904000D02*
X90535000Y-120904000D01*
X89519000Y-122936000D02*
X90535000Y-122936000D01*
X90662000Y-121031000D02*
X93488000Y-121031000D01*
X90662000Y-121031000D02*
X90535000Y-120904000D01*
X90662000Y-122809000D02*
X93488000Y-122809000D01*
X90662000Y-122809000D02*
X90535000Y-122936000D01*
X93488000Y-121031000D02*
X93615000Y-120904000D01*
X94631000Y-120904000D02*
X93615000Y-120904000D01*
X93488000Y-122809000D02*
X93615000Y-122936000D01*
X94631000Y-122936000D02*
X93615000Y-122936000D01*
X94885000Y-121158000D02*
X94885000Y-122682000D01*
X89265000Y-122682000D02*
G75*
G03*
X89519000Y-122936000I254000J0D01*
G01*
X89265000Y-121158000D02*
G75*
G02*
X89519000Y-120904000I254000J0D01*
G01*
X94631000Y-120904000D02*
G75*
G02*
X94885000Y-121158000I0J-254000D01*
G01*
X94631000Y-122936000D02*
G75*
G03*
X94885000Y-122682000I0J254000D01*
G01*
X96250000Y-150876000D02*
X96250000Y-152400000D01*
X96504000Y-150622000D02*
X97520000Y-150622000D01*
X96504000Y-152654000D02*
X97520000Y-152654000D01*
X97647000Y-150749000D02*
X100473000Y-150749000D01*
X97647000Y-150749000D02*
X97520000Y-150622000D01*
X97647000Y-152527000D02*
X100473000Y-152527000D01*
X97647000Y-152527000D02*
X97520000Y-152654000D01*
X100473000Y-150749000D02*
X100600000Y-150622000D01*
X101616000Y-150622000D02*
X100600000Y-150622000D01*
X100473000Y-152527000D02*
X100600000Y-152654000D01*
X101616000Y-152654000D02*
X100600000Y-152654000D01*
X101870000Y-150876000D02*
X101870000Y-152400000D01*
X96250000Y-152400000D02*
G75*
G03*
X96504000Y-152654000I254000J0D01*
G01*
X96250000Y-150876000D02*
G75*
G02*
X96504000Y-150622000I254000J0D01*
G01*
X101616000Y-150622000D02*
G75*
G02*
X101870000Y-150876000I0J-254000D01*
G01*
X101616000Y-152654000D02*
G75*
G03*
X101870000Y-152400000I0J254000D01*
G01*
X72660000Y-112522000D02*
X72660000Y-110998000D01*
X72406000Y-112776000D02*
X71390000Y-112776000D01*
X72406000Y-110744000D02*
X71390000Y-110744000D01*
X71263000Y-112649000D02*
X68437000Y-112649000D01*
X71263000Y-112649000D02*
X71390000Y-112776000D01*
X71263000Y-110871000D02*
X68437000Y-110871000D01*
X71263000Y-110871000D02*
X71390000Y-110744000D01*
X68437000Y-112649000D02*
X68310000Y-112776000D01*
X67294000Y-112776000D02*
X68310000Y-112776000D01*
X68437000Y-110871000D02*
X68310000Y-110744000D01*
X67294000Y-110744000D02*
X68310000Y-110744000D01*
X67040000Y-112522000D02*
X67040000Y-110998000D01*
X72660000Y-110998000D02*
G75*
G03*
X72406000Y-110744000I-254000J0D01*
G01*
X72660000Y-112522000D02*
G75*
G02*
X72406000Y-112776000I-254000J0D01*
G01*
X67294000Y-112776000D02*
G75*
G02*
X67040000Y-112522000I0J254000D01*
G01*
X67294000Y-110744000D02*
G75*
G03*
X67040000Y-110998000I0J-254000D01*
G01*
X65770000Y-124333000D02*
X65770000Y-125857000D01*
X66024000Y-124079000D02*
X67040000Y-124079000D01*
X66024000Y-126111000D02*
X67040000Y-126111000D01*
X67167000Y-124206000D02*
X69993000Y-124206000D01*
X67167000Y-124206000D02*
X67040000Y-124079000D01*
X67167000Y-125984000D02*
X69993000Y-125984000D01*
X67167000Y-125984000D02*
X67040000Y-126111000D01*
X69993000Y-124206000D02*
X70120000Y-124079000D01*
X71136000Y-124079000D02*
X70120000Y-124079000D01*
X69993000Y-125984000D02*
X70120000Y-126111000D01*
X71136000Y-126111000D02*
X70120000Y-126111000D01*
X71390000Y-124333000D02*
X71390000Y-125857000D01*
X65770000Y-125857000D02*
G75*
G03*
X66024000Y-126111000I254000J0D01*
G01*
X65770000Y-124333000D02*
G75*
G02*
X66024000Y-124079000I254000J0D01*
G01*
X71136000Y-124079000D02*
G75*
G02*
X71390000Y-124333000I0J-254000D01*
G01*
X71136000Y-126111000D02*
G75*
G03*
X71390000Y-125857000I0J254000D01*
G01*
X68310000Y-82423000D02*
X68310000Y-83947000D01*
X68564000Y-82169000D02*
X69580000Y-82169000D01*
X68564000Y-84201000D02*
X69580000Y-84201000D01*
X69707000Y-82296000D02*
X72533000Y-82296000D01*
X69707000Y-82296000D02*
X69580000Y-82169000D01*
X69707000Y-84074000D02*
X72533000Y-84074000D01*
X69707000Y-84074000D02*
X69580000Y-84201000D01*
X72533000Y-82296000D02*
X72660000Y-82169000D01*
X73676000Y-82169000D02*
X72660000Y-82169000D01*
X72533000Y-84074000D02*
X72660000Y-84201000D01*
X73676000Y-84201000D02*
X72660000Y-84201000D01*
X73930000Y-82423000D02*
X73930000Y-83947000D01*
X68310000Y-83947000D02*
G75*
G03*
X68564000Y-84201000I254000J0D01*
G01*
X68310000Y-82423000D02*
G75*
G02*
X68564000Y-82169000I254000J0D01*
G01*
X73676000Y-82169000D02*
G75*
G02*
X73930000Y-82423000I0J-254000D01*
G01*
X73676000Y-84201000D02*
G75*
G03*
X73930000Y-83947000I0J254000D01*
G01*
X87265000Y-94107000D02*
X87265000Y-92583000D01*
X87011000Y-94361000D02*
X85995000Y-94361000D01*
X87011000Y-92329000D02*
X85995000Y-92329000D01*
X85868000Y-94234000D02*
X83042000Y-94234000D01*
X85868000Y-94234000D02*
X85995000Y-94361000D01*
X85868000Y-92456000D02*
X83042000Y-92456000D01*
X85868000Y-92456000D02*
X85995000Y-92329000D01*
X83042000Y-94234000D02*
X82915000Y-94361000D01*
X81899000Y-94361000D02*
X82915000Y-94361000D01*
X83042000Y-92456000D02*
X82915000Y-92329000D01*
X81899000Y-92329000D02*
X82915000Y-92329000D01*
X81645000Y-94107000D02*
X81645000Y-92583000D01*
X87265000Y-92583000D02*
G75*
G03*
X87011000Y-92329000I-254000J0D01*
G01*
X87265000Y-94107000D02*
G75*
G02*
X87011000Y-94361000I-254000J0D01*
G01*
X81899000Y-94361000D02*
G75*
G02*
X81645000Y-94107000I0J254000D01*
G01*
X81899000Y-92329000D02*
G75*
G03*
X81645000Y-92583000I0J-254000D01*
G01*
X79248000Y-119015000D02*
X80772000Y-119015000D01*
X78994000Y-118761000D02*
X78994000Y-117745000D01*
X81026000Y-118761000D02*
X81026000Y-117745000D01*
X79121000Y-117618000D02*
X79121000Y-114792000D01*
X79121000Y-117618000D02*
X78994000Y-117745000D01*
X80899000Y-117618000D02*
X80899000Y-114792000D01*
X80899000Y-117618000D02*
X81026000Y-117745000D01*
X79121000Y-114792000D02*
X78994000Y-114665000D01*
X78994000Y-113649000D02*
X78994000Y-114665000D01*
X80899000Y-114792000D02*
X81026000Y-114665000D01*
X81026000Y-113649000D02*
X81026000Y-114665000D01*
X79248000Y-113395000D02*
X80772000Y-113395000D01*
X80772000Y-119015000D02*
G75*
G03*
X81026000Y-118761000I0J254000D01*
G01*
X79248000Y-119015000D02*
G75*
G02*
X78994000Y-118761000I0J254000D01*
G01*
X78994000Y-113649000D02*
G75*
G02*
X79248000Y-113395000I254000J0D01*
G01*
X81026000Y-113649000D02*
G75*
G03*
X80772000Y-113395000I-254000J0D01*
G01*
X65770000Y-127508000D02*
X65770000Y-129032000D01*
X66024000Y-127254000D02*
X67040000Y-127254000D01*
X66024000Y-129286000D02*
X67040000Y-129286000D01*
X67167000Y-127381000D02*
X69993000Y-127381000D01*
X67167000Y-127381000D02*
X67040000Y-127254000D01*
X67167000Y-129159000D02*
X69993000Y-129159000D01*
X67167000Y-129159000D02*
X67040000Y-129286000D01*
X69993000Y-127381000D02*
X70120000Y-127254000D01*
X71136000Y-127254000D02*
X70120000Y-127254000D01*
X69993000Y-129159000D02*
X70120000Y-129286000D01*
X71136000Y-129286000D02*
X70120000Y-129286000D01*
X71390000Y-127508000D02*
X71390000Y-129032000D01*
X65770000Y-129032000D02*
G75*
G03*
X66024000Y-129286000I254000J0D01*
G01*
X65770000Y-127508000D02*
G75*
G02*
X66024000Y-127254000I254000J0D01*
G01*
X71136000Y-127254000D02*
G75*
G02*
X71390000Y-127508000I0J-254000D01*
G01*
X71136000Y-129286000D02*
G75*
G03*
X71390000Y-129032000I0J254000D01*
G01*
X89265000Y-124333000D02*
X89265000Y-125857000D01*
X89519000Y-124079000D02*
X90535000Y-124079000D01*
X89519000Y-126111000D02*
X90535000Y-126111000D01*
X90662000Y-124206000D02*
X93488000Y-124206000D01*
X90662000Y-124206000D02*
X90535000Y-124079000D01*
X90662000Y-125984000D02*
X93488000Y-125984000D01*
X90662000Y-125984000D02*
X90535000Y-126111000D01*
X93488000Y-124206000D02*
X93615000Y-124079000D01*
X94631000Y-124079000D02*
X93615000Y-124079000D01*
X93488000Y-125984000D02*
X93615000Y-126111000D01*
X94631000Y-126111000D02*
X93615000Y-126111000D01*
X94885000Y-124333000D02*
X94885000Y-125857000D01*
X89265000Y-125857000D02*
G75*
G03*
X89519000Y-126111000I254000J0D01*
G01*
X89265000Y-124333000D02*
G75*
G02*
X89519000Y-124079000I254000J0D01*
G01*
X94631000Y-124079000D02*
G75*
G02*
X94885000Y-124333000I0J-254000D01*
G01*
X94631000Y-126111000D02*
G75*
G03*
X94885000Y-125857000I0J254000D01*
G01*
X98298000Y-124730000D02*
X99822000Y-124730000D01*
X98044000Y-124476000D02*
X98044000Y-123460000D01*
X100076000Y-124476000D02*
X100076000Y-123460000D01*
X98171000Y-123333000D02*
X98171000Y-120507000D01*
X98171000Y-123333000D02*
X98044000Y-123460000D01*
X99949000Y-123333000D02*
X99949000Y-120507000D01*
X99949000Y-123333000D02*
X100076000Y-123460000D01*
X98171000Y-120507000D02*
X98044000Y-120380000D01*
X98044000Y-119364000D02*
X98044000Y-120380000D01*
X99949000Y-120507000D02*
X100076000Y-120380000D01*
X100076000Y-119364000D02*
X100076000Y-120380000D01*
X98298000Y-119110000D02*
X99822000Y-119110000D01*
X99822000Y-124730000D02*
G75*
G03*
X100076000Y-124476000I0J254000D01*
G01*
X98298000Y-124730000D02*
G75*
G02*
X98044000Y-124476000I0J254000D01*
G01*
X98044000Y-119364000D02*
G75*
G02*
X98298000Y-119110000I254000J0D01*
G01*
X100076000Y-119364000D02*
G75*
G03*
X99822000Y-119110000I-254000J0D01*
G01*
X106172000Y-119110000D02*
X104648000Y-119110000D01*
X106426000Y-119364000D02*
X106426000Y-120380000D01*
X104394000Y-119364000D02*
X104394000Y-120380000D01*
X106299000Y-120507000D02*
X106299000Y-123333000D01*
X106299000Y-120507000D02*
X106426000Y-120380000D01*
X104521000Y-120507000D02*
X104521000Y-123333000D01*
X104521000Y-120507000D02*
X104394000Y-120380000D01*
X106299000Y-123333000D02*
X106426000Y-123460000D01*
X106426000Y-124476000D02*
X106426000Y-123460000D01*
X104521000Y-123333000D02*
X104394000Y-123460000D01*
X104394000Y-124476000D02*
X104394000Y-123460000D01*
X106172000Y-124730000D02*
X104648000Y-124730000D01*
X104648000Y-119110000D02*
G75*
G03*
X104394000Y-119364000I0J-254000D01*
G01*
X106172000Y-119110000D02*
G75*
G02*
X106426000Y-119364000I0J-254000D01*
G01*
X106426000Y-124476000D02*
G75*
G02*
X106172000Y-124730000I-254000J0D01*
G01*
X104394000Y-124476000D02*
G75*
G03*
X104648000Y-124730000I254000J0D01*
G01*
X107442000Y-86090000D02*
X105918000Y-86090000D01*
X107696000Y-86344000D02*
X107696000Y-87360000D01*
X105664000Y-86344000D02*
X105664000Y-87360000D01*
X107569000Y-87487000D02*
X107569000Y-90313000D01*
X107569000Y-87487000D02*
X107696000Y-87360000D01*
X105791000Y-87487000D02*
X105791000Y-90313000D01*
X105791000Y-87487000D02*
X105664000Y-87360000D01*
X107569000Y-90313000D02*
X107696000Y-90440000D01*
X107696000Y-91456000D02*
X107696000Y-90440000D01*
X105791000Y-90313000D02*
X105664000Y-90440000D01*
X105664000Y-91456000D02*
X105664000Y-90440000D01*
X107442000Y-91710000D02*
X105918000Y-91710000D01*
X105918000Y-86090000D02*
G75*
G03*
X105664000Y-86344000I0J-254000D01*
G01*
X107442000Y-86090000D02*
G75*
G02*
X107696000Y-86344000I0J-254000D01*
G01*
X107696000Y-91456000D02*
G75*
G02*
X107442000Y-91710000I-254000J0D01*
G01*
X105664000Y-91456000D02*
G75*
G03*
X105918000Y-91710000I254000J0D01*
G01*
X92440000Y-95758000D02*
X92440000Y-97282000D01*
X92694000Y-95504000D02*
X93710000Y-95504000D01*
X92694000Y-97536000D02*
X93710000Y-97536000D01*
X93837000Y-95631000D02*
X96663000Y-95631000D01*
X93837000Y-95631000D02*
X93710000Y-95504000D01*
X93837000Y-97409000D02*
X96663000Y-97409000D01*
X93837000Y-97409000D02*
X93710000Y-97536000D01*
X96663000Y-95631000D02*
X96790000Y-95504000D01*
X97806000Y-95504000D02*
X96790000Y-95504000D01*
X96663000Y-97409000D02*
X96790000Y-97536000D01*
X97806000Y-97536000D02*
X96790000Y-97536000D01*
X98060000Y-95758000D02*
X98060000Y-97282000D01*
X92440000Y-97282000D02*
G75*
G03*
X92694000Y-97536000I254000J0D01*
G01*
X92440000Y-95758000D02*
G75*
G02*
X92694000Y-95504000I254000J0D01*
G01*
X97806000Y-95504000D02*
G75*
G02*
X98060000Y-95758000I0J-254000D01*
G01*
X97806000Y-97536000D02*
G75*
G03*
X98060000Y-97282000I0J254000D01*
G01*
X97520000Y-111633000D02*
X97520000Y-113157000D01*
X97774000Y-111379000D02*
X98790000Y-111379000D01*
X97774000Y-113411000D02*
X98790000Y-113411000D01*
X98917000Y-111506000D02*
X101743000Y-111506000D01*
X98917000Y-111506000D02*
X98790000Y-111379000D01*
X98917000Y-113284000D02*
X101743000Y-113284000D01*
X98917000Y-113284000D02*
X98790000Y-113411000D01*
X101743000Y-111506000D02*
X101870000Y-111379000D01*
X102886000Y-111379000D02*
X101870000Y-111379000D01*
X101743000Y-113284000D02*
X101870000Y-113411000D01*
X102886000Y-113411000D02*
X101870000Y-113411000D01*
X103140000Y-111633000D02*
X103140000Y-113157000D01*
X97520000Y-113157000D02*
G75*
G03*
X97774000Y-113411000I254000J0D01*
G01*
X97520000Y-111633000D02*
G75*
G02*
X97774000Y-111379000I254000J0D01*
G01*
X102886000Y-111379000D02*
G75*
G02*
X103140000Y-111633000I0J-254000D01*
G01*
X102886000Y-113411000D02*
G75*
G03*
X103140000Y-113157000I0J254000D01*
G01*
X77597000Y-97520000D02*
X76073000Y-97520000D01*
X77851000Y-97774000D02*
X77851000Y-98790000D01*
X75819000Y-97774000D02*
X75819000Y-98790000D01*
X77724000Y-98917000D02*
X77724000Y-101743000D01*
X77724000Y-98917000D02*
X77851000Y-98790000D01*
X75946000Y-98917000D02*
X75946000Y-101743000D01*
X75946000Y-98917000D02*
X75819000Y-98790000D01*
X77724000Y-101743000D02*
X77851000Y-101870000D01*
X77851000Y-102886000D02*
X77851000Y-101870000D01*
X75946000Y-101743000D02*
X75819000Y-101870000D01*
X75819000Y-102886000D02*
X75819000Y-101870000D01*
X77597000Y-103140000D02*
X76073000Y-103140000D01*
X76073000Y-97520000D02*
G75*
G03*
X75819000Y-97774000I0J-254000D01*
G01*
X77597000Y-97520000D02*
G75*
G02*
X77851000Y-97774000I0J-254000D01*
G01*
X77851000Y-102886000D02*
G75*
G02*
X77597000Y-103140000I-254000J0D01*
G01*
X75819000Y-102886000D02*
G75*
G03*
X76073000Y-103140000I254000J0D01*
G01*
X102997000Y-119110000D02*
X101473000Y-119110000D01*
X103251000Y-119364000D02*
X103251000Y-120380000D01*
X101219000Y-119364000D02*
X101219000Y-120380000D01*
X103124000Y-120507000D02*
X103124000Y-123333000D01*
X103124000Y-120507000D02*
X103251000Y-120380000D01*
X101346000Y-120507000D02*
X101346000Y-123333000D01*
X101346000Y-120507000D02*
X101219000Y-120380000D01*
X103124000Y-123333000D02*
X103251000Y-123460000D01*
X103251000Y-124476000D02*
X103251000Y-123460000D01*
X101346000Y-123333000D02*
X101219000Y-123460000D01*
X101219000Y-124476000D02*
X101219000Y-123460000D01*
X102997000Y-124730000D02*
X101473000Y-124730000D01*
X101473000Y-119110000D02*
G75*
G03*
X101219000Y-119364000I0J-254000D01*
G01*
X102997000Y-119110000D02*
G75*
G02*
X103251000Y-119364000I0J-254000D01*
G01*
X103251000Y-124476000D02*
G75*
G02*
X102997000Y-124730000I-254000J0D01*
G01*
X101219000Y-124476000D02*
G75*
G03*
X101473000Y-124730000I254000J0D01*
G01*
X87265000Y-109982000D02*
X87265000Y-108458000D01*
X87011000Y-110236000D02*
X85995000Y-110236000D01*
X87011000Y-108204000D02*
X85995000Y-108204000D01*
X85868000Y-110109000D02*
X83042000Y-110109000D01*
X85868000Y-110109000D02*
X85995000Y-110236000D01*
X85868000Y-108331000D02*
X83042000Y-108331000D01*
X85868000Y-108331000D02*
X85995000Y-108204000D01*
X83042000Y-110109000D02*
X82915000Y-110236000D01*
X81899000Y-110236000D02*
X82915000Y-110236000D01*
X83042000Y-108331000D02*
X82915000Y-108204000D01*
X81899000Y-108204000D02*
X82915000Y-108204000D01*
X81645000Y-109982000D02*
X81645000Y-108458000D01*
X87265000Y-108458000D02*
G75*
G03*
X87011000Y-108204000I-254000J0D01*
G01*
X87265000Y-109982000D02*
G75*
G02*
X87011000Y-110236000I-254000J0D01*
G01*
X81899000Y-110236000D02*
G75*
G02*
X81645000Y-109982000I0J254000D01*
G01*
X81899000Y-108204000D02*
G75*
G03*
X81645000Y-108458000I0J-254000D01*
G01*
X64008000Y-110851000D02*
X64008000Y-107589000D01*
X64008001Y-107588999D02*
G75*
G03*
X60020200Y-108251100I-1778018J-1631301D01*
G01*
X60020201Y-110188899D02*
G75*
G03*
X64008000Y-110851000I2209782J969199D01*
G01*
X60020200Y-108250800D02*
G75*
G03*
X60020200Y-110189200I2209800J-969200D01*
G01*
X60452000Y-98699000D02*
X60452000Y-101961000D01*
X60451999Y-101961001D02*
G75*
G03*
X64439800Y-101298900I1778018J1631301D01*
G01*
X64439799Y-99361101D02*
G75*
G03*
X60452000Y-98699000I-2209782J-969199D01*
G01*
X64439800Y-101299200D02*
G75*
G03*
X64439800Y-99360800I-2209800J969200D01*
G01*
X97516000Y-126492000D02*
X94254000Y-126492000D01*
X94253999Y-126491999D02*
G75*
G03*
X94916100Y-130479800I1631301J-1778018D01*
G01*
X96853899Y-130479799D02*
G75*
G03*
X97516000Y-126492000I-969199J2209782D01*
G01*
X94915800Y-130479800D02*
G75*
G03*
X96854200Y-130479800I969200J2209800D01*
G01*
X83820000Y-130810000D02*
X83820000Y-129540000D01*
X81280000Y-130810000D02*
X83820000Y-130810000D01*
X81280000Y-129540000D02*
X81280000Y-130810000D01*
X81280000Y-129540000D02*
X81280000Y-127000000D01*
X83820000Y-129540000D02*
X81280000Y-129540000D01*
X83820000Y-127000000D02*
X83820000Y-129540000D01*
X81280000Y-127000000D02*
X83820000Y-127000000D01*
X88265000Y-81280000D02*
X88265000Y-80010000D01*
X85725000Y-81280000D02*
X88265000Y-81280000D01*
X85725000Y-80010000D02*
X85725000Y-81280000D01*
X85725000Y-80010000D02*
X85725000Y-77470000D01*
X88265000Y-80010000D02*
X85725000Y-80010000D01*
X88265000Y-77470000D02*
X88265000Y-80010000D01*
X85725000Y-77470000D02*
X88265000Y-77470000D01*
X87630000Y-130810000D02*
X87630000Y-129540000D01*
X85090000Y-130810000D02*
X87630000Y-130810000D01*
X85090000Y-129540000D02*
X85090000Y-130810000D01*
X85090000Y-129540000D02*
X85090000Y-127000000D01*
X87630000Y-129540000D02*
X85090000Y-129540000D01*
X87630000Y-127000000D02*
X87630000Y-129540000D01*
X85090000Y-127000000D02*
X87630000Y-127000000D01*
X95250000Y-138303000D02*
X95250000Y-137033000D01*
X92710000Y-138303000D02*
X95250000Y-138303000D01*
X92710000Y-137033000D02*
X92710000Y-138303000D01*
X92710000Y-137033000D02*
X92710000Y-134493000D01*
X95250000Y-137033000D02*
X92710000Y-137033000D01*
X95250000Y-134493000D02*
X95250000Y-137033000D01*
X92710000Y-134493000D02*
X95250000Y-134493000D01*
X63500000Y-81280000D02*
X63500000Y-80010000D01*
X60960000Y-81280000D02*
X63500000Y-81280000D01*
X60960000Y-80010000D02*
X60960000Y-81280000D01*
X60960000Y-80010000D02*
X60960000Y-77470000D01*
X63500000Y-80010000D02*
X60960000Y-80010000D01*
X63500000Y-77470000D02*
X63500000Y-80010000D01*
X60960000Y-77470000D02*
X63500000Y-77470000D01*
X91440000Y-138303000D02*
X91440000Y-137033000D01*
X88900000Y-138303000D02*
X91440000Y-138303000D01*
X88900000Y-137033000D02*
X88900000Y-138303000D01*
X88900000Y-137033000D02*
X88900000Y-134493000D01*
X91440000Y-137033000D02*
X88900000Y-137033000D01*
X91440000Y-134493000D02*
X91440000Y-137033000D01*
X88900000Y-134493000D02*
X91440000Y-134493000D01*
X83820000Y-138303000D02*
X83820000Y-137033000D01*
X81280000Y-138303000D02*
X83820000Y-138303000D01*
X81280000Y-137033000D02*
X81280000Y-138303000D01*
X81280000Y-137033000D02*
X81280000Y-134493000D01*
X83820000Y-137033000D02*
X81280000Y-137033000D01*
X83820000Y-134493000D02*
X83820000Y-137033000D01*
X81280000Y-134493000D02*
X83820000Y-134493000D01*
X87630000Y-138303000D02*
X87630000Y-137033000D01*
X85090000Y-138303000D02*
X87630000Y-138303000D01*
X85090000Y-137033000D02*
X85090000Y-138303000D01*
X85090000Y-137033000D02*
X85090000Y-134493000D01*
X87630000Y-137033000D02*
X85090000Y-137033000D01*
X87630000Y-134493000D02*
X87630000Y-137033000D01*
X85090000Y-134493000D02*
X87630000Y-134493000D01*
X76200000Y-138303000D02*
X76200000Y-137033000D01*
X73660000Y-138303000D02*
X76200000Y-138303000D01*
X73660000Y-137033000D02*
X73660000Y-138303000D01*
X73660000Y-137033000D02*
X73660000Y-134493000D01*
X76200000Y-137033000D02*
X73660000Y-137033000D01*
X76200000Y-134493000D02*
X76200000Y-137033000D01*
X73660000Y-134493000D02*
X76200000Y-134493000D01*
X80010000Y-138303000D02*
X80010000Y-137033000D01*
X77470000Y-138303000D02*
X80010000Y-138303000D01*
X77470000Y-137033000D02*
X77470000Y-138303000D01*
X77470000Y-137033000D02*
X77470000Y-134493000D01*
X80010000Y-137033000D02*
X77470000Y-137033000D01*
X80010000Y-134493000D02*
X80010000Y-137033000D01*
X77470000Y-134493000D02*
X80010000Y-134493000D01*
X80010000Y-130810000D02*
X80010000Y-129540000D01*
X77470000Y-130810000D02*
X80010000Y-130810000D01*
X77470000Y-129540000D02*
X77470000Y-130810000D01*
X77470000Y-129540000D02*
X77470000Y-127000000D01*
X80010000Y-129540000D02*
X77470000Y-129540000D01*
X80010000Y-127000000D02*
X80010000Y-129540000D01*
X77470000Y-127000000D02*
X80010000Y-127000000D01*
X83820000Y-81280000D02*
X83820000Y-80010000D01*
X81280000Y-81280000D02*
X83820000Y-81280000D01*
X81280000Y-80010000D02*
X81280000Y-81280000D01*
X81280000Y-80010000D02*
X81280000Y-77470000D01*
X83820000Y-80010000D02*
X81280000Y-80010000D01*
X83820000Y-77470000D02*
X83820000Y-80010000D01*
X81280000Y-77470000D02*
X83820000Y-77470000D01*
X91440000Y-130810000D02*
X91440000Y-129540000D01*
X88900000Y-130810000D02*
X91440000Y-130810000D01*
X88900000Y-129540000D02*
X88900000Y-130810000D01*
X88900000Y-129540000D02*
X88900000Y-127000000D01*
X91440000Y-129540000D02*
X88900000Y-129540000D01*
X91440000Y-127000000D02*
X91440000Y-129540000D01*
X88900000Y-127000000D02*
X91440000Y-127000000D01*
X109220000Y-81280000D02*
X109220000Y-80010000D01*
X106680000Y-81280000D02*
X109220000Y-81280000D01*
X106680000Y-80010000D02*
X106680000Y-81280000D01*
X106680000Y-80010000D02*
X106680000Y-77470000D01*
X109220000Y-80010000D02*
X106680000Y-80010000D01*
X109220000Y-77470000D02*
X109220000Y-80010000D01*
X106680000Y-77470000D02*
X109220000Y-77470000D01*
D12*
G36*
X107696000Y-106553000D02*
G01*
X107696000Y-106172000D01*
X106934000Y-106172000D01*
X106934000Y-106553000D01*
X107696000Y-106553000D01*
G37*
G36*
X107696000Y-110998000D02*
G01*
X107696000Y-110617000D01*
X106934000Y-110617000D01*
X106934000Y-110998000D01*
X107696000Y-110998000D01*
G37*
G36*
X108585000Y-110236000D02*
G01*
X108585000Y-109728000D01*
X106045000Y-109728000D01*
X106045000Y-110236000D01*
X108585000Y-110236000D01*
G37*
D14*
X106045000Y-110617000D02*
X108585000Y-110617000D01*
X106045000Y-110617000D02*
X106045000Y-106553000D01*
X108585000Y-106553000D02*
X106045000Y-106553000D01*
X108585000Y-106553000D02*
X108585000Y-110617000D01*
D11*
X61468000Y-87757000D02*
X60452000Y-87757000D01*
X59690000Y-86868000D02*
X59690000Y-83566000D01*
X62230000Y-86868000D02*
X62230000Y-83566000D01*
X59309000Y-83185000D02*
X59309000Y-82550000D01*
X59309000Y-82550000D02*
X62611000Y-82550000D01*
X62611000Y-82550000D02*
X62611000Y-83185000D01*
X62611000Y-83185000D02*
G75*
G03*
X62230000Y-83566000I0J-381000D01*
G01*
X59309000Y-83185000D02*
G75*
G02*
X59690000Y-83566000I0J-381000D01*
G01*
X59690001Y-86867999D02*
G75*
G03*
X60452000Y-87757000I825500J-63501D01*
G01*
X61467999Y-87757001D02*
G75*
G03*
X62230000Y-86868000I-63500J825501D01*
G01*
X60452000Y-89408000D02*
X61468000Y-89408000D01*
X62230000Y-90297000D02*
X62230000Y-93599000D01*
X59690000Y-90297000D02*
X59690000Y-93599000D01*
X62611000Y-93980000D02*
X62611000Y-94615000D01*
X62611000Y-94615000D02*
X59309000Y-94615000D01*
X59309000Y-94615000D02*
X59309000Y-93980000D01*
X59309000Y-93980000D02*
G75*
G03*
X59690000Y-93599000I0J381000D01*
G01*
X62611000Y-93980000D02*
G75*
G02*
X62230000Y-93599000I0J381000D01*
G01*
X62229999Y-90297001D02*
G75*
G03*
X61468000Y-89408000I-825500J63501D01*
G01*
X60452001Y-89407999D02*
G75*
G03*
X59690000Y-90297000I63500J-825501D01*
G01*
D12*
G36*
X66294000Y-103251000D02*
G01*
X66294000Y-102616000D01*
X65786000Y-102616000D01*
X65786000Y-103251000D01*
X66294000Y-103251000D01*
G37*
G36*
X66294000Y-98044000D02*
G01*
X66294000Y-97409000D01*
X65786000Y-97409000D01*
X65786000Y-98044000D01*
X66294000Y-98044000D01*
G37*
G36*
X67056000Y-102235000D02*
G01*
X67056000Y-101727000D01*
X65024000Y-101727000D01*
X65024000Y-102235000D01*
X67056000Y-102235000D01*
G37*
D14*
X65024000Y-102362000D02*
X65024000Y-98298000D01*
X65278000Y-102616000D02*
X66802000Y-102616000D01*
X67056000Y-102362000D02*
X67056000Y-98298000D01*
X65278000Y-98044000D02*
X66802000Y-98044000D01*
X67056000Y-102362000D02*
G75*
G02*
X66802000Y-102616000I-254000J0D01*
G01*
X65024000Y-102362000D02*
G75*
G03*
X65278000Y-102616000I254000J0D01*
G01*
X66802000Y-98044000D02*
G75*
G02*
X67056000Y-98298000I0J-254000D01*
G01*
X65278000Y-98044000D02*
G75*
G03*
X65024000Y-98298000I0J-254000D01*
G01*
D12*
G36*
X75819000Y-92456000D02*
G01*
X75819000Y-91821000D01*
X75311000Y-91821000D01*
X75311000Y-92456000D01*
X75819000Y-92456000D01*
G37*
G36*
X75819000Y-87249000D02*
G01*
X75819000Y-86614000D01*
X75311000Y-86614000D01*
X75311000Y-87249000D01*
X75819000Y-87249000D01*
G37*
G36*
X76581000Y-91440000D02*
G01*
X76581000Y-90932000D01*
X74549000Y-90932000D01*
X74549000Y-91440000D01*
X76581000Y-91440000D01*
G37*
D14*
X74549000Y-91567000D02*
X74549000Y-87503000D01*
X74803000Y-91821000D02*
X76327000Y-91821000D01*
X76581000Y-91567000D02*
X76581000Y-87503000D01*
X74803000Y-87249000D02*
X76327000Y-87249000D01*
X76581000Y-91567000D02*
G75*
G02*
X76327000Y-91821000I-254000J0D01*
G01*
X74549000Y-91567000D02*
G75*
G03*
X74803000Y-91821000I254000J0D01*
G01*
X76327000Y-87249000D02*
G75*
G02*
X76581000Y-87503000I0J-254000D01*
G01*
X74803000Y-87249000D02*
G75*
G03*
X74549000Y-87503000I0J-254000D01*
G01*
D12*
G36*
X72136000Y-86614000D02*
G01*
X72136000Y-87249000D01*
X72644000Y-87249000D01*
X72644000Y-86614000D01*
X72136000Y-86614000D01*
G37*
G36*
X72136000Y-91821000D02*
G01*
X72136000Y-92456000D01*
X72644000Y-92456000D01*
X72644000Y-91821000D01*
X72136000Y-91821000D01*
G37*
G36*
X71374000Y-87630000D02*
G01*
X71374000Y-88138000D01*
X73406000Y-88138000D01*
X73406000Y-87630000D01*
X71374000Y-87630000D01*
G37*
D14*
X73406000Y-87503000D02*
X73406000Y-91567000D01*
X73152000Y-87249000D02*
X71628000Y-87249000D01*
X71374000Y-87503000D02*
X71374000Y-91567000D01*
X73152000Y-91821000D02*
X71628000Y-91821000D01*
X71374000Y-87503000D02*
G75*
G02*
X71628000Y-87249000I254000J0D01*
G01*
X73406000Y-87503000D02*
G75*
G03*
X73152000Y-87249000I-254000J0D01*
G01*
X71628000Y-91821000D02*
G75*
G02*
X71374000Y-91567000I0J254000D01*
G01*
X73152000Y-91821000D02*
G75*
G03*
X73406000Y-91567000I0J254000D01*
G01*
D12*
G36*
X68961000Y-86614000D02*
G01*
X68961000Y-87249000D01*
X69469000Y-87249000D01*
X69469000Y-86614000D01*
X68961000Y-86614000D01*
G37*
G36*
X68961000Y-91821000D02*
G01*
X68961000Y-92456000D01*
X69469000Y-92456000D01*
X69469000Y-91821000D01*
X68961000Y-91821000D01*
G37*
G36*
X68199000Y-87630000D02*
G01*
X68199000Y-88138000D01*
X70231000Y-88138000D01*
X70231000Y-87630000D01*
X68199000Y-87630000D01*
G37*
D14*
X70231000Y-87503000D02*
X70231000Y-91567000D01*
X69977000Y-87249000D02*
X68453000Y-87249000D01*
X68199000Y-87503000D02*
X68199000Y-91567000D01*
X69977000Y-91821000D02*
X68453000Y-91821000D01*
X68199000Y-87503000D02*
G75*
G02*
X68453000Y-87249000I254000J0D01*
G01*
X70231000Y-87503000D02*
G75*
G03*
X69977000Y-87249000I-254000J0D01*
G01*
X68453000Y-91821000D02*
G75*
G02*
X68199000Y-91567000I0J254000D01*
G01*
X69977000Y-91821000D02*
G75*
G03*
X70231000Y-91567000I0J254000D01*
G01*
D12*
G36*
X66294000Y-92456000D02*
G01*
X66294000Y-91821000D01*
X65786000Y-91821000D01*
X65786000Y-92456000D01*
X66294000Y-92456000D01*
G37*
G36*
X66294000Y-87249000D02*
G01*
X66294000Y-86614000D01*
X65786000Y-86614000D01*
X65786000Y-87249000D01*
X66294000Y-87249000D01*
G37*
G36*
X67056000Y-91440000D02*
G01*
X67056000Y-90932000D01*
X65024000Y-90932000D01*
X65024000Y-91440000D01*
X67056000Y-91440000D01*
G37*
D14*
X65024000Y-91567000D02*
X65024000Y-87503000D01*
X65278000Y-91821000D02*
X66802000Y-91821000D01*
X67056000Y-91567000D02*
X67056000Y-87503000D01*
X65278000Y-87249000D02*
X66802000Y-87249000D01*
X67056000Y-91567000D02*
G75*
G02*
X66802000Y-91821000I-254000J0D01*
G01*
X65024000Y-91567000D02*
G75*
G03*
X65278000Y-91821000I254000J0D01*
G01*
X66802000Y-87249000D02*
G75*
G02*
X67056000Y-87503000I0J-254000D01*
G01*
X65278000Y-87249000D02*
G75*
G03*
X65024000Y-87503000I0J-254000D01*
G01*
D12*
G36*
X72644000Y-103251000D02*
G01*
X72644000Y-102616000D01*
X72136000Y-102616000D01*
X72136000Y-103251000D01*
X72644000Y-103251000D01*
G37*
G36*
X72644000Y-98044000D02*
G01*
X72644000Y-97409000D01*
X72136000Y-97409000D01*
X72136000Y-98044000D01*
X72644000Y-98044000D01*
G37*
G36*
X73406000Y-102235000D02*
G01*
X73406000Y-101727000D01*
X71374000Y-101727000D01*
X71374000Y-102235000D01*
X73406000Y-102235000D01*
G37*
D14*
X71374000Y-102362000D02*
X71374000Y-98298000D01*
X71628000Y-102616000D02*
X73152000Y-102616000D01*
X73406000Y-102362000D02*
X73406000Y-98298000D01*
X71628000Y-98044000D02*
X73152000Y-98044000D01*
X73406000Y-102362000D02*
G75*
G02*
X73152000Y-102616000I-254000J0D01*
G01*
X71374000Y-102362000D02*
G75*
G03*
X71628000Y-102616000I254000J0D01*
G01*
X73152000Y-98044000D02*
G75*
G02*
X73406000Y-98298000I0J-254000D01*
G01*
X71628000Y-98044000D02*
G75*
G03*
X71374000Y-98298000I0J-254000D01*
G01*
D12*
G36*
X68961000Y-97409000D02*
G01*
X68961000Y-98044000D01*
X69469000Y-98044000D01*
X69469000Y-97409000D01*
X68961000Y-97409000D01*
G37*
G36*
X68961000Y-102616000D02*
G01*
X68961000Y-103251000D01*
X69469000Y-103251000D01*
X69469000Y-102616000D01*
X68961000Y-102616000D01*
G37*
G36*
X68199000Y-98425000D02*
G01*
X68199000Y-98933000D01*
X70231000Y-98933000D01*
X70231000Y-98425000D01*
X68199000Y-98425000D01*
G37*
D14*
X70231000Y-98298000D02*
X70231000Y-102362000D01*
X69977000Y-98044000D02*
X68453000Y-98044000D01*
X68199000Y-98298000D02*
X68199000Y-102362000D01*
X69977000Y-102616000D02*
X68453000Y-102616000D01*
X68199000Y-98298000D02*
G75*
G02*
X68453000Y-98044000I254000J0D01*
G01*
X70231000Y-98298000D02*
G75*
G03*
X69977000Y-98044000I-254000J0D01*
G01*
X68453000Y-102616000D02*
G75*
G02*
X68199000Y-102362000I0J254000D01*
G01*
X69977000Y-102616000D02*
G75*
G03*
X70231000Y-102362000I0J254000D01*
G01*
X102971600Y-84912200D02*
X102971600Y-84251800D01*
X103276400Y-84582000D02*
X102641400Y-84582000D01*
X104100000Y-85725000D02*
G75*
G03*
X104100000Y-85725000I-2500000J0D01*
G01*
X102971600Y-90627200D02*
X102971600Y-89966800D01*
X103276400Y-90297000D02*
X102641400Y-90297000D01*
X104100000Y-91440000D02*
G75*
G03*
X104100000Y-91440000I-2500000J0D01*
G01*
X102235000Y-114300000D02*
X99695000Y-114300000D01*
X101600000Y-116840000D02*
X102235000Y-116840000D01*
X99695000Y-116840000D02*
X101600000Y-116840000D01*
X102235000Y-114300000D02*
G75*
G02*
X103505000Y-115570000I0J-1270000D01*
G01*
X103505000Y-115570000D02*
G75*
G02*
X102235000Y-116840000I-1270000J0D01*
G01*
X99695000Y-116840000D02*
G75*
G02*
X98425000Y-115570000I0J1270000D01*
G01*
X98425000Y-115570000D02*
G75*
G02*
X99695000Y-114300000I1270000J0D01*
G01*
X64095000Y-117745000D02*
G75*
G03*
X64095000Y-117745000I-2500000J0D01*
G01*
X59918600Y-118253000D02*
X60553600Y-118253000D01*
X60223400Y-117922800D02*
X60223400Y-118583200D01*
X76835000Y-127635000D02*
X76835000Y-125095000D01*
X74295000Y-127000000D02*
X74295000Y-127635000D01*
X74295000Y-125095000D02*
X74295000Y-127000000D01*
X76835000Y-127635000D02*
G75*
G02*
X75565000Y-128905000I-1270000J0D01*
G01*
X75565000Y-128905000D02*
G75*
G02*
X74295000Y-127635000I0J1270000D01*
G01*
X74295000Y-125095000D02*
G75*
G02*
X75565000Y-123825000I1270000J0D01*
G01*
X75565000Y-123825000D02*
G75*
G02*
X76835000Y-125095000I0J-1270000D01*
G01*
X95250000Y-88011000D02*
X95250000Y-91059000D01*
X88138000Y-87503000D02*
X94742000Y-87503000D01*
X87630000Y-91059000D02*
X87630000Y-88011000D01*
X94742000Y-91567000D02*
X88138000Y-91567000D01*
X94742000Y-91567000D02*
G75*
G03*
X95250000Y-91059000I0J508000D01*
G01*
X95250000Y-88011000D02*
G75*
G03*
X94742000Y-87503000I-508000J0D01*
G01*
X88138000Y-87503000D02*
G75*
G03*
X87630000Y-88011000I0J-508000D01*
G01*
X87630000Y-91059000D02*
G75*
G03*
X88138000Y-91567000I508000J0D01*
G01*
X62865000Y-127635000D02*
X62865000Y-125095000D01*
X60325000Y-127000000D02*
X60325000Y-127635000D01*
X60325000Y-125095000D02*
X60325000Y-127000000D01*
X62865000Y-127635000D02*
G75*
G02*
X61595000Y-128905000I-1270000J0D01*
G01*
X61595000Y-128905000D02*
G75*
G02*
X60325000Y-127635000I0J1270000D01*
G01*
X60325000Y-125095000D02*
G75*
G02*
X61595000Y-123825000I1270000J0D01*
G01*
X61595000Y-123825000D02*
G75*
G02*
X62865000Y-125095000I0J-1270000D01*
G01*
X100965000Y-101600000D02*
X103505000Y-101600000D01*
X101600000Y-99060000D02*
X100965000Y-99060000D01*
X103505000Y-99060000D02*
X101600000Y-99060000D01*
X100965000Y-101600000D02*
G75*
G02*
X99695000Y-100330000I0J1270000D01*
G01*
X99695000Y-100330000D02*
G75*
G02*
X100965000Y-99060000I1270000J0D01*
G01*
X103505000Y-99060000D02*
G75*
G02*
X104775000Y-100330000I0J-1270000D01*
G01*
X104775000Y-100330000D02*
G75*
G02*
X103505000Y-101600000I-1270000J0D01*
G01*
X92710000Y-101600000D02*
X95250000Y-101600000D01*
X93345000Y-99060000D02*
X92710000Y-99060000D01*
X95250000Y-99060000D02*
X93345000Y-99060000D01*
X92710000Y-101600000D02*
G75*
G02*
X91440000Y-100330000I0J1270000D01*
G01*
X91440000Y-100330000D02*
G75*
G02*
X92710000Y-99060000I1270000J0D01*
G01*
X95250000Y-99060000D02*
G75*
G02*
X96520000Y-100330000I0J-1270000D01*
G01*
X96520000Y-100330000D02*
G75*
G02*
X95250000Y-101600000I-1270000J0D01*
G01*
X86360000Y-88011000D02*
X86360000Y-91059000D01*
X79248000Y-87503000D02*
X85852000Y-87503000D01*
X78740000Y-91059000D02*
X78740000Y-88011000D01*
X85852000Y-91567000D02*
X79248000Y-91567000D01*
X85852000Y-91567000D02*
G75*
G03*
X86360000Y-91059000I0J508000D01*
G01*
X86360000Y-88011000D02*
G75*
G03*
X85852000Y-87503000I-508000J0D01*
G01*
X79248000Y-87503000D02*
G75*
G03*
X78740000Y-88011000I0J-508000D01*
G01*
X78740000Y-91059000D02*
G75*
G03*
X79248000Y-91567000I508000J0D01*
G01*
X97750000Y-84455000D02*
G75*
G03*
X97750000Y-84455000I-2500000J0D01*
G01*
X94742000Y-82778600D02*
X94742000Y-83413600D01*
X95072200Y-83083400D02*
X94411800Y-83083400D01*
X95885000Y-92075000D02*
X93345000Y-92075000D01*
X95250000Y-94615000D02*
X95885000Y-94615000D01*
X93345000Y-94615000D02*
X95250000Y-94615000D01*
X95885000Y-92075000D02*
G75*
G02*
X97155000Y-93345000I0J-1270000D01*
G01*
X97155000Y-93345000D02*
G75*
G02*
X95885000Y-94615000I-1270000J0D01*
G01*
X93345000Y-94615000D02*
G75*
G02*
X92075000Y-93345000I0J1270000D01*
G01*
X92075000Y-93345000D02*
G75*
G02*
X93345000Y-92075000I1270000J0D01*
G01*
X92710000Y-104775000D02*
X95250000Y-104775000D01*
X93345000Y-102235000D02*
X92710000Y-102235000D01*
X95250000Y-102235000D02*
X93345000Y-102235000D01*
X92710000Y-104775000D02*
G75*
G02*
X91440000Y-103505000I0J1270000D01*
G01*
X91440000Y-103505000D02*
G75*
G02*
X92710000Y-102235000I1270000J0D01*
G01*
X95250000Y-102235000D02*
G75*
G02*
X96520000Y-103505000I0J-1270000D01*
G01*
X96520000Y-103505000D02*
G75*
G02*
X95250000Y-104775000I-1270000J0D01*
G01*
X101965000Y-105005000D02*
X99965000Y-105005000D01*
X99965000Y-102005000D02*
X101965000Y-102005000D01*
X98465001Y-103504999D02*
G75*
G03*
X99965000Y-105005000I1500000J-1D01*
G01*
X101964999Y-105005001D02*
G75*
G03*
X103465000Y-103505000I0J1500001D01*
G01*
X103464999Y-103505001D02*
G75*
G03*
X101965000Y-102005000I-1500000J1D01*
G01*
X99965001Y-102004999D02*
G75*
G03*
X98465000Y-103505000I0J-1500001D01*
G01*
X89535000Y-113665000D02*
X92075000Y-113665000D01*
X90170000Y-111125000D02*
X89535000Y-111125000D01*
X92075000Y-111125000D02*
X90170000Y-111125000D01*
X89535000Y-113665000D02*
G75*
G02*
X88265000Y-112395000I0J1270000D01*
G01*
X88265000Y-112395000D02*
G75*
G02*
X89535000Y-111125000I1270000J0D01*
G01*
X92075000Y-111125000D02*
G75*
G02*
X93345000Y-112395000I0J-1270000D01*
G01*
X93345000Y-112395000D02*
G75*
G02*
X92075000Y-113665000I-1270000J0D01*
G01*
X92075000Y-114300000D02*
X89535000Y-114300000D01*
X91440000Y-116840000D02*
X92075000Y-116840000D01*
X89535000Y-116840000D02*
X91440000Y-116840000D01*
X92075000Y-114300000D02*
G75*
G02*
X93345000Y-115570000I0J-1270000D01*
G01*
X93345000Y-115570000D02*
G75*
G02*
X92075000Y-116840000I-1270000J0D01*
G01*
X89535000Y-116840000D02*
G75*
G02*
X88265000Y-115570000I0J1270000D01*
G01*
X88265000Y-115570000D02*
G75*
G02*
X89535000Y-114300000I1270000J0D01*
G01*
D15*
X98439514Y-149534638D02*
X97979895Y-149534638D01*
X97979895Y-148569438D01*
X98761247Y-149029057D02*
X99082980Y-149029057D01*
X99220866Y-149534638D02*
X98761247Y-149534638D01*
X98761247Y-148569438D01*
X99220866Y-148569438D01*
X99634523Y-149534638D02*
X99634523Y-148569438D01*
X99864333Y-148569438D01*
X100002219Y-148615400D01*
X100094142Y-148707323D01*
X100140104Y-148799247D01*
X100186066Y-148983095D01*
X100186066Y-149120980D01*
X100140104Y-149304828D01*
X100094142Y-149396752D01*
X100002219Y-149488676D01*
X99864333Y-149534638D01*
X99634523Y-149534638D01*
D12*
D15*
D14*
X83535761Y-100304297D02*
X83535761Y-101280988D01*
X83593214Y-101395892D01*
X83650666Y-101453345D01*
X83765571Y-101510797D01*
X83995380Y-101510797D01*
X84110285Y-101453345D01*
X84167738Y-101395892D01*
X84225190Y-101280988D01*
X84225190Y-100304297D01*
X85431690Y-101510797D02*
X84742261Y-101510797D01*
X85086976Y-101510797D02*
X85086976Y-100304297D01*
X84972071Y-100476654D01*
X84857166Y-100591559D01*
X84742261Y-100649011D01*
D15*
X81565714Y-123856666D02*
X81603809Y-123894761D01*
X81641904Y-124009047D01*
X81641904Y-124085238D01*
X81603809Y-124199523D01*
X81527619Y-124275714D01*
X81451428Y-124313809D01*
X81299047Y-124351904D01*
X81184761Y-124351904D01*
X81032380Y-124313809D01*
X80956190Y-124275714D01*
X80880000Y-124199523D01*
X80841904Y-124085238D01*
X80841904Y-124009047D01*
X80880000Y-123894761D01*
X80918095Y-123856666D01*
X81641904Y-123132857D02*
X81641904Y-123513809D01*
X80841904Y-123513809D01*
X81641904Y-122866190D02*
X80841904Y-122866190D01*
X81641904Y-122485238D02*
X80841904Y-122485238D01*
X80841904Y-122180476D01*
X80880000Y-122104285D01*
X80918095Y-122066190D01*
X80994285Y-122028095D01*
X81108571Y-122028095D01*
X81184761Y-122066190D01*
X81222857Y-122104285D01*
X81260952Y-122180476D01*
X81260952Y-122485238D01*
X76777857Y-86747142D02*
X76815952Y-86632857D01*
X76854047Y-86594761D01*
X76930238Y-86556666D01*
X77044523Y-86556666D01*
X77120714Y-86594761D01*
X77158809Y-86632857D01*
X77196904Y-86709047D01*
X77196904Y-87013809D01*
X76396904Y-87013809D01*
X76396904Y-86747142D01*
X76435000Y-86670952D01*
X76473095Y-86632857D01*
X76549285Y-86594761D01*
X76625476Y-86594761D01*
X76701666Y-86632857D01*
X76739761Y-86670952D01*
X76777857Y-86747142D01*
X76777857Y-87013809D01*
X77196904Y-85756666D02*
X76815952Y-86023333D01*
X77196904Y-86213809D02*
X76396904Y-86213809D01*
X76396904Y-85909047D01*
X76435000Y-85832857D01*
X76473095Y-85794761D01*
X76549285Y-85756666D01*
X76663571Y-85756666D01*
X76739761Y-85794761D01*
X76777857Y-85832857D01*
X76815952Y-85909047D01*
X76815952Y-86213809D01*
X77196904Y-85413809D02*
X76396904Y-85413809D01*
X76435000Y-84613809D02*
X76396904Y-84690000D01*
X76396904Y-84804285D01*
X76435000Y-84918571D01*
X76511190Y-84994761D01*
X76587380Y-85032857D01*
X76739761Y-85070952D01*
X76854047Y-85070952D01*
X77006428Y-85032857D01*
X77082619Y-84994761D01*
X77158809Y-84918571D01*
X77196904Y-84804285D01*
X77196904Y-84728095D01*
X77158809Y-84613809D01*
X77120714Y-84575714D01*
X76854047Y-84575714D01*
X76854047Y-84728095D01*
X77196904Y-84232857D02*
X76396904Y-84232857D01*
X76777857Y-84232857D02*
X76777857Y-83775714D01*
X77196904Y-83775714D02*
X76396904Y-83775714D01*
X76396904Y-83509047D02*
X76396904Y-83051904D01*
X77196904Y-83280476D02*
X76396904Y-83280476D01*
X63861904Y-123291428D02*
X63061904Y-123291428D01*
X63442857Y-123291428D02*
X63442857Y-122834285D01*
X63861904Y-122834285D02*
X63061904Y-122834285D01*
X63633333Y-122491428D02*
X63633333Y-122110476D01*
X63861904Y-122567619D02*
X63061904Y-122300952D01*
X63861904Y-122034285D01*
X63861904Y-121310476D02*
X63480952Y-121577142D01*
X63861904Y-121767619D02*
X63061904Y-121767619D01*
X63061904Y-121462857D01*
X63100000Y-121386666D01*
X63138095Y-121348571D01*
X63214285Y-121310476D01*
X63328571Y-121310476D01*
X63404761Y-121348571D01*
X63442857Y-121386666D01*
X63480952Y-121462857D01*
X63480952Y-121767619D01*
X63861904Y-120967619D02*
X63061904Y-120967619D01*
X63061904Y-120777142D01*
X63100000Y-120662857D01*
X63176190Y-120586666D01*
X63252380Y-120548571D01*
X63404761Y-120510476D01*
X63519047Y-120510476D01*
X63671428Y-120548571D01*
X63747619Y-120586666D01*
X63823809Y-120662857D01*
X63861904Y-120777142D01*
X63861904Y-120967619D01*
D16*
X91850270Y-150127546D02*
X91868655Y-150072392D01*
X91868655Y-149980468D01*
X91850270Y-149943699D01*
X91831885Y-149925314D01*
X91795116Y-149906929D01*
X91758346Y-149906929D01*
X91721577Y-149925314D01*
X91703192Y-149943699D01*
X91684807Y-149980468D01*
X91666422Y-150054007D01*
X91648038Y-150090777D01*
X91629653Y-150109161D01*
X91592883Y-150127546D01*
X91556114Y-150127546D01*
X91519344Y-150109161D01*
X91500960Y-150090777D01*
X91482575Y-150054007D01*
X91482575Y-149962083D01*
X91500960Y-149906929D01*
X91482575Y-149667927D02*
X91482575Y-149594388D01*
X91500960Y-149557619D01*
X91537729Y-149520849D01*
X91611268Y-149502464D01*
X91739961Y-149502464D01*
X91813500Y-149520849D01*
X91850270Y-149557619D01*
X91868655Y-149594388D01*
X91868655Y-149667927D01*
X91850270Y-149704697D01*
X91813500Y-149741466D01*
X91739961Y-149759851D01*
X91611268Y-149759851D01*
X91537729Y-149741466D01*
X91500960Y-149704697D01*
X91482575Y-149667927D01*
X91868655Y-149153154D02*
X91868655Y-149337001D01*
X91482575Y-149337001D01*
X91868655Y-149024460D02*
X91482575Y-149024460D01*
X91482575Y-148932537D01*
X91500960Y-148877382D01*
X91537729Y-148840613D01*
X91574499Y-148822228D01*
X91648038Y-148803843D01*
X91703192Y-148803843D01*
X91776731Y-148822228D01*
X91813500Y-148840613D01*
X91850270Y-148877382D01*
X91868655Y-148932537D01*
X91868655Y-149024460D01*
X91666422Y-148638380D02*
X91666422Y-148509687D01*
X91868655Y-148454533D02*
X91868655Y-148638380D01*
X91482575Y-148638380D01*
X91482575Y-148454533D01*
X91868655Y-148068453D02*
X91684807Y-148197146D01*
X91868655Y-148289070D02*
X91482575Y-148289070D01*
X91482575Y-148141992D01*
X91500960Y-148105222D01*
X91519344Y-148086838D01*
X91556114Y-148068453D01*
X91611268Y-148068453D01*
X91648038Y-148086838D01*
X91666422Y-148105222D01*
X91684807Y-148141992D01*
X91684807Y-148289070D01*
D15*
X93559833Y-78112880D02*
X93083642Y-78112880D01*
X93083642Y-77112880D01*
X93893166Y-77589071D02*
X94226500Y-77589071D01*
X94369357Y-78112880D02*
X93893166Y-78112880D01*
X93893166Y-77112880D01*
X94369357Y-77112880D01*
X94655071Y-77112880D02*
X94988404Y-78112880D01*
X95321738Y-77112880D01*
X95655071Y-77589071D02*
X95988404Y-77589071D01*
X96131261Y-78112880D02*
X95655071Y-78112880D01*
X95655071Y-77112880D01*
X96131261Y-77112880D01*
X97036023Y-78112880D02*
X96559833Y-78112880D01*
X96559833Y-77112880D01*
X98083642Y-77827166D02*
X98559833Y-77827166D01*
X97988404Y-78112880D02*
X98321738Y-77112880D01*
X98655071Y-78112880D01*
X99512214Y-78112880D02*
X98940785Y-78112880D01*
X99226500Y-78112880D02*
X99226500Y-77112880D01*
X99131261Y-77255738D01*
X99036023Y-77350976D01*
X98940785Y-77398595D01*
X100131261Y-77112880D02*
X100226500Y-77112880D01*
X100321738Y-77160500D01*
X100369357Y-77208119D01*
X100416976Y-77303357D01*
X100464595Y-77493833D01*
X100464595Y-77731928D01*
X100416976Y-77922404D01*
X100369357Y-78017642D01*
X100321738Y-78065261D01*
X100226500Y-78112880D01*
X100131261Y-78112880D01*
X100036023Y-78065261D01*
X99988404Y-78017642D01*
X99940785Y-77922404D01*
X99893166Y-77731928D01*
X99893166Y-77493833D01*
X99940785Y-77303357D01*
X99988404Y-77208119D01*
X100036023Y-77160500D01*
X100131261Y-77112880D01*
X101083642Y-77112880D02*
X101178880Y-77112880D01*
X101274119Y-77160500D01*
X101321738Y-77208119D01*
X101369357Y-77303357D01*
X101416976Y-77493833D01*
X101416976Y-77731928D01*
X101369357Y-77922404D01*
X101321738Y-78017642D01*
X101274119Y-78065261D01*
X101178880Y-78112880D01*
X101083642Y-78112880D01*
X100988404Y-78065261D01*
X100940785Y-78017642D01*
X100893166Y-77922404D01*
X100845547Y-77731928D01*
X100845547Y-77493833D01*
X100893166Y-77303357D01*
X100940785Y-77208119D01*
X100988404Y-77160500D01*
X101083642Y-77112880D01*
X101845547Y-78112880D02*
X101845547Y-77112880D01*
X102416976Y-78112880D02*
X101988404Y-77541452D01*
X102416976Y-77112880D02*
X101845547Y-77684309D01*
X66937452Y-77112880D02*
X67508880Y-77112880D01*
X67223166Y-78112880D02*
X67223166Y-77112880D01*
X68032690Y-77112880D02*
X68223166Y-77112880D01*
X68318404Y-77160500D01*
X68413642Y-77255738D01*
X68461261Y-77446214D01*
X68461261Y-77779547D01*
X68413642Y-77970023D01*
X68318404Y-78065261D01*
X68223166Y-78112880D01*
X68032690Y-78112880D01*
X67937452Y-78065261D01*
X67842214Y-77970023D01*
X67794595Y-77779547D01*
X67794595Y-77446214D01*
X67842214Y-77255738D01*
X67937452Y-77160500D01*
X68032690Y-77112880D01*
X68889833Y-78112880D02*
X68889833Y-77112880D01*
X69461261Y-78112880D01*
X69461261Y-77112880D01*
X69937452Y-77589071D02*
X70270785Y-77589071D01*
X70413642Y-78112880D02*
X69937452Y-78112880D01*
X69937452Y-77112880D01*
X70413642Y-77112880D01*
X71937452Y-77589071D02*
X72080309Y-77636690D01*
X72127928Y-77684309D01*
X72175547Y-77779547D01*
X72175547Y-77922404D01*
X72127928Y-78017642D01*
X72080309Y-78065261D01*
X71985071Y-78112880D01*
X71604119Y-78112880D01*
X71604119Y-77112880D01*
X71937452Y-77112880D01*
X72032690Y-77160500D01*
X72080309Y-77208119D01*
X72127928Y-77303357D01*
X72127928Y-77398595D01*
X72080309Y-77493833D01*
X72032690Y-77541452D01*
X71937452Y-77589071D01*
X71604119Y-77589071D01*
X72556500Y-77208119D02*
X72604119Y-77160500D01*
X72699357Y-77112880D01*
X72937452Y-77112880D01*
X73032690Y-77160500D01*
X73080309Y-77208119D01*
X73127928Y-77303357D01*
X73127928Y-77398595D01*
X73080309Y-77541452D01*
X72508880Y-78112880D01*
X73127928Y-78112880D01*
X74032690Y-77112880D02*
X73556500Y-77112880D01*
X73508880Y-77589071D01*
X73556500Y-77541452D01*
X73651738Y-77493833D01*
X73889833Y-77493833D01*
X73985071Y-77541452D01*
X74032690Y-77589071D01*
X74080309Y-77684309D01*
X74080309Y-77922404D01*
X74032690Y-78017642D01*
X73985071Y-78065261D01*
X73889833Y-78112880D01*
X73651738Y-78112880D01*
X73556500Y-78065261D01*
X73508880Y-78017642D01*
X74508880Y-78112880D02*
X74508880Y-77112880D01*
X75080309Y-78112880D02*
X74651738Y-77541452D01*
X75080309Y-77112880D02*
X74508880Y-77684309D01*
X64508880Y-106640261D02*
X64651738Y-106687880D01*
X64889833Y-106687880D01*
X64985071Y-106640261D01*
X65032690Y-106592642D01*
X65080309Y-106497404D01*
X65080309Y-106402166D01*
X65032690Y-106306928D01*
X64985071Y-106259309D01*
X64889833Y-106211690D01*
X64699357Y-106164071D01*
X64604119Y-106116452D01*
X64556500Y-106068833D01*
X64508880Y-105973595D01*
X64508880Y-105878357D01*
X64556500Y-105783119D01*
X64604119Y-105735500D01*
X64699357Y-105687880D01*
X64937452Y-105687880D01*
X65080309Y-105735500D01*
X65461261Y-106402166D02*
X65937452Y-106402166D01*
X65366023Y-106687880D02*
X65699357Y-105687880D01*
X66032690Y-106687880D01*
X66223166Y-105687880D02*
X66794595Y-105687880D01*
X66508880Y-106687880D02*
X66508880Y-105687880D01*
X67127928Y-105687880D02*
X67127928Y-106497404D01*
X67175547Y-106592642D01*
X67223166Y-106640261D01*
X67318404Y-106687880D01*
X67508880Y-106687880D01*
X67604119Y-106640261D01*
X67651738Y-106592642D01*
X67699357Y-106497404D01*
X67699357Y-105687880D01*
X68746976Y-106687880D02*
X68413642Y-106211690D01*
X68175547Y-106687880D02*
X68175547Y-105687880D01*
X68556500Y-105687880D01*
X68651738Y-105735500D01*
X68699357Y-105783119D01*
X68746976Y-105878357D01*
X68746976Y-106021214D01*
X68699357Y-106116452D01*
X68651738Y-106164071D01*
X68556500Y-106211690D01*
X68175547Y-106211690D01*
X69127928Y-106402166D02*
X69604119Y-106402166D01*
X69032690Y-106687880D02*
X69366023Y-105687880D01*
X69699357Y-106687880D01*
X69889833Y-105687880D02*
X70461261Y-105687880D01*
X70175547Y-106687880D02*
X70175547Y-105687880D01*
X70794595Y-106687880D02*
X70794595Y-105687880D01*
X71461261Y-105687880D02*
X71651738Y-105687880D01*
X71746976Y-105735500D01*
X71842214Y-105830738D01*
X71889833Y-106021214D01*
X71889833Y-106354547D01*
X71842214Y-106545023D01*
X71746976Y-106640261D01*
X71651738Y-106687880D01*
X71461261Y-106687880D01*
X71366023Y-106640261D01*
X71270785Y-106545023D01*
X71223166Y-106354547D01*
X71223166Y-106021214D01*
X71270785Y-105830738D01*
X71366023Y-105735500D01*
X71461261Y-105687880D01*
X72318404Y-106687880D02*
X72318404Y-105687880D01*
X72889833Y-106687880D01*
X72889833Y-105687880D01*
X74461261Y-106164071D02*
X74604119Y-106211690D01*
X74651738Y-106259309D01*
X74699357Y-106354547D01*
X74699357Y-106497404D01*
X74651738Y-106592642D01*
X74604119Y-106640261D01*
X74508880Y-106687880D01*
X74127928Y-106687880D01*
X74127928Y-105687880D01*
X74461261Y-105687880D01*
X74556500Y-105735500D01*
X74604119Y-105783119D01*
X74651738Y-105878357D01*
X74651738Y-105973595D01*
X74604119Y-106068833D01*
X74556500Y-106116452D01*
X74461261Y-106164071D01*
X74127928Y-106164071D01*
X75651738Y-106687880D02*
X75080309Y-106687880D01*
X75366023Y-106687880D02*
X75366023Y-105687880D01*
X75270785Y-105830738D01*
X75175547Y-105925976D01*
X75080309Y-105973595D01*
X76270785Y-105687880D02*
X76366023Y-105687880D01*
X76461261Y-105735500D01*
X76508880Y-105783119D01*
X76556500Y-105878357D01*
X76604119Y-106068833D01*
X76604119Y-106306928D01*
X76556500Y-106497404D01*
X76508880Y-106592642D01*
X76461261Y-106640261D01*
X76366023Y-106687880D01*
X76270785Y-106687880D01*
X76175547Y-106640261D01*
X76127928Y-106592642D01*
X76080309Y-106497404D01*
X76032690Y-106306928D01*
X76032690Y-106068833D01*
X76080309Y-105878357D01*
X76127928Y-105783119D01*
X76175547Y-105735500D01*
X76270785Y-105687880D01*
X77032690Y-106687880D02*
X77032690Y-105687880D01*
X77604119Y-106687880D02*
X77175547Y-106116452D01*
X77604119Y-105687880D02*
X77032690Y-106259309D01*
X93036023Y-106687880D02*
X93036023Y-105687880D01*
X93274119Y-105687880D01*
X93416976Y-105735500D01*
X93512214Y-105830738D01*
X93559833Y-105925976D01*
X93607452Y-106116452D01*
X93607452Y-106259309D01*
X93559833Y-106449785D01*
X93512214Y-106545023D01*
X93416976Y-106640261D01*
X93274119Y-106687880D01*
X93036023Y-106687880D01*
X94607452Y-106687880D02*
X94274119Y-106211690D01*
X94036023Y-106687880D02*
X94036023Y-105687880D01*
X94416976Y-105687880D01*
X94512214Y-105735500D01*
X94559833Y-105783119D01*
X94607452Y-105878357D01*
X94607452Y-106021214D01*
X94559833Y-106116452D01*
X94512214Y-106164071D01*
X94416976Y-106211690D01*
X94036023Y-106211690D01*
X95036023Y-106687880D02*
X95036023Y-105687880D01*
X95369357Y-105687880D02*
X95702690Y-106687880D01*
X96036023Y-105687880D01*
X96369357Y-106164071D02*
X96702690Y-106164071D01*
X96845547Y-106687880D02*
X96369357Y-106687880D01*
X96369357Y-105687880D01*
X96845547Y-105687880D01*
X98369357Y-106164071D02*
X98512214Y-106211690D01*
X98559833Y-106259309D01*
X98607452Y-106354547D01*
X98607452Y-106497404D01*
X98559833Y-106592642D01*
X98512214Y-106640261D01*
X98416976Y-106687880D01*
X98036023Y-106687880D01*
X98036023Y-105687880D01*
X98369357Y-105687880D01*
X98464595Y-105735500D01*
X98512214Y-105783119D01*
X98559833Y-105878357D01*
X98559833Y-105973595D01*
X98512214Y-106068833D01*
X98464595Y-106116452D01*
X98369357Y-106164071D01*
X98036023Y-106164071D01*
X98988404Y-105783119D02*
X99036023Y-105735500D01*
X99131261Y-105687880D01*
X99369357Y-105687880D01*
X99464595Y-105735500D01*
X99512214Y-105783119D01*
X99559833Y-105878357D01*
X99559833Y-105973595D01*
X99512214Y-106116452D01*
X98940785Y-106687880D01*
X99559833Y-106687880D01*
X100178880Y-105687880D02*
X100274119Y-105687880D01*
X100369357Y-105735500D01*
X100416976Y-105783119D01*
X100464595Y-105878357D01*
X100512214Y-106068833D01*
X100512214Y-106306928D01*
X100464595Y-106497404D01*
X100416976Y-106592642D01*
X100369357Y-106640261D01*
X100274119Y-106687880D01*
X100178880Y-106687880D01*
X100083642Y-106640261D01*
X100036023Y-106592642D01*
X99988404Y-106497404D01*
X99940785Y-106306928D01*
X99940785Y-106068833D01*
X99988404Y-105878357D01*
X100036023Y-105783119D01*
X100083642Y-105735500D01*
X100178880Y-105687880D01*
X101131261Y-105687880D02*
X101226500Y-105687880D01*
X101321738Y-105735500D01*
X101369357Y-105783119D01*
X101416976Y-105878357D01*
X101464595Y-106068833D01*
X101464595Y-106306928D01*
X101416976Y-106497404D01*
X101369357Y-106592642D01*
X101321738Y-106640261D01*
X101226500Y-106687880D01*
X101131261Y-106687880D01*
X101036023Y-106640261D01*
X100988404Y-106592642D01*
X100940785Y-106497404D01*
X100893166Y-106306928D01*
X100893166Y-106068833D01*
X100940785Y-105878357D01*
X100988404Y-105783119D01*
X101036023Y-105735500D01*
X101131261Y-105687880D01*
X101893166Y-106687880D02*
X101893166Y-105687880D01*
X102464595Y-106687880D02*
X102036023Y-106116452D01*
X102464595Y-105687880D02*
X101893166Y-106259309D01*
D17*
X91454514Y-119181638D02*
X91132780Y-118722019D01*
X90902971Y-119181638D02*
X90902971Y-118216438D01*
X91270666Y-118216438D01*
X91362590Y-118262400D01*
X91408552Y-118308361D01*
X91454514Y-118400285D01*
X91454514Y-118538171D01*
X91408552Y-118630095D01*
X91362590Y-118676057D01*
X91270666Y-118722019D01*
X90902971Y-118722019D01*
X92373752Y-119181638D02*
X91822209Y-119181638D01*
X92097980Y-119181638D02*
X92097980Y-118216438D01*
X92006057Y-118354323D01*
X91914133Y-118446247D01*
X91822209Y-118492209D01*
X92925295Y-118630095D02*
X92833371Y-118584133D01*
X92787409Y-118538171D01*
X92741447Y-118446247D01*
X92741447Y-118400285D01*
X92787409Y-118308361D01*
X92833371Y-118262400D01*
X92925295Y-118216438D01*
X93109142Y-118216438D01*
X93201066Y-118262400D01*
X93247028Y-118308361D01*
X93292990Y-118400285D01*
X93292990Y-118446247D01*
X93247028Y-118538171D01*
X93201066Y-118584133D01*
X93109142Y-118630095D01*
X92925295Y-118630095D01*
X92833371Y-118676057D01*
X92787409Y-118722019D01*
X92741447Y-118813942D01*
X92741447Y-118997790D01*
X92787409Y-119089714D01*
X92833371Y-119135676D01*
X92925295Y-119181638D01*
X93109142Y-119181638D01*
X93201066Y-119135676D01*
X93247028Y-119089714D01*
X93292990Y-118997790D01*
X93292990Y-118813942D01*
X93247028Y-118722019D01*
X93201066Y-118676057D01*
X93109142Y-118630095D01*
X91454514Y-122356638D02*
X91132780Y-121897019D01*
X90902971Y-122356638D02*
X90902971Y-121391438D01*
X91270666Y-121391438D01*
X91362590Y-121437400D01*
X91408552Y-121483361D01*
X91454514Y-121575285D01*
X91454514Y-121713171D01*
X91408552Y-121805095D01*
X91362590Y-121851057D01*
X91270666Y-121897019D01*
X90902971Y-121897019D01*
X92373752Y-122356638D02*
X91822209Y-122356638D01*
X92097980Y-122356638D02*
X92097980Y-121391438D01*
X92006057Y-121529323D01*
X91914133Y-121621247D01*
X91822209Y-121667209D01*
X92695485Y-121391438D02*
X93338952Y-121391438D01*
X92925295Y-122356638D01*
X98439514Y-152074638D02*
X98117780Y-151615019D01*
X97887971Y-152074638D02*
X97887971Y-151109438D01*
X98255666Y-151109438D01*
X98347590Y-151155400D01*
X98393552Y-151201361D01*
X98439514Y-151293285D01*
X98439514Y-151431171D01*
X98393552Y-151523095D01*
X98347590Y-151569057D01*
X98255666Y-151615019D01*
X97887971Y-151615019D01*
X99358752Y-152074638D02*
X98807209Y-152074638D01*
X99082980Y-152074638D02*
X99082980Y-151109438D01*
X98991057Y-151247323D01*
X98899133Y-151339247D01*
X98807209Y-151385209D01*
X100186066Y-151109438D02*
X100002219Y-151109438D01*
X99910295Y-151155400D01*
X99864333Y-151201361D01*
X99772409Y-151339247D01*
X99726447Y-151523095D01*
X99726447Y-151890790D01*
X99772409Y-151982714D01*
X99818371Y-152028676D01*
X99910295Y-152074638D01*
X100094142Y-152074638D01*
X100186066Y-152028676D01*
X100232028Y-151982714D01*
X100277990Y-151890790D01*
X100277990Y-151660980D01*
X100232028Y-151569057D01*
X100186066Y-151523095D01*
X100094142Y-151477133D01*
X99910295Y-151477133D01*
X99818371Y-151523095D01*
X99772409Y-151569057D01*
X99726447Y-151660980D01*
X69229514Y-112196638D02*
X68907780Y-111737019D01*
X68677971Y-112196638D02*
X68677971Y-111231438D01*
X69045666Y-111231438D01*
X69137590Y-111277400D01*
X69183552Y-111323361D01*
X69229514Y-111415285D01*
X69229514Y-111553171D01*
X69183552Y-111645095D01*
X69137590Y-111691057D01*
X69045666Y-111737019D01*
X68677971Y-111737019D01*
X70148752Y-112196638D02*
X69597209Y-112196638D01*
X69872980Y-112196638D02*
X69872980Y-111231438D01*
X69781057Y-111369323D01*
X69689133Y-111461247D01*
X69597209Y-111507209D01*
X71022028Y-111231438D02*
X70562409Y-111231438D01*
X70516447Y-111691057D01*
X70562409Y-111645095D01*
X70654333Y-111599133D01*
X70884142Y-111599133D01*
X70976066Y-111645095D01*
X71022028Y-111691057D01*
X71067990Y-111782980D01*
X71067990Y-112012790D01*
X71022028Y-112104714D01*
X70976066Y-112150676D01*
X70884142Y-112196638D01*
X70654333Y-112196638D01*
X70562409Y-112150676D01*
X70516447Y-112104714D01*
X67959514Y-125531638D02*
X67637780Y-125072019D01*
X67407971Y-125531638D02*
X67407971Y-124566438D01*
X67775666Y-124566438D01*
X67867590Y-124612400D01*
X67913552Y-124658361D01*
X67959514Y-124750285D01*
X67959514Y-124888171D01*
X67913552Y-124980095D01*
X67867590Y-125026057D01*
X67775666Y-125072019D01*
X67407971Y-125072019D01*
X68878752Y-125531638D02*
X68327209Y-125531638D01*
X68602980Y-125531638D02*
X68602980Y-124566438D01*
X68511057Y-124704323D01*
X68419133Y-124796247D01*
X68327209Y-124842209D01*
X69706066Y-124888171D02*
X69706066Y-125531638D01*
X69476257Y-124520476D02*
X69246447Y-125209904D01*
X69843952Y-125209904D01*
X70499514Y-83621638D02*
X70177780Y-83162019D01*
X69947971Y-83621638D02*
X69947971Y-82656438D01*
X70315666Y-82656438D01*
X70407590Y-82702400D01*
X70453552Y-82748361D01*
X70499514Y-82840285D01*
X70499514Y-82978171D01*
X70453552Y-83070095D01*
X70407590Y-83116057D01*
X70315666Y-83162019D01*
X69947971Y-83162019D01*
X71418752Y-83621638D02*
X70867209Y-83621638D01*
X71142980Y-83621638D02*
X71142980Y-82656438D01*
X71051057Y-82794323D01*
X70959133Y-82886247D01*
X70867209Y-82932209D01*
X71740485Y-82656438D02*
X72337990Y-82656438D01*
X72016257Y-83024133D01*
X72154142Y-83024133D01*
X72246066Y-83070095D01*
X72292028Y-83116057D01*
X72337990Y-83207980D01*
X72337990Y-83437790D01*
X72292028Y-83529714D01*
X72246066Y-83575676D01*
X72154142Y-83621638D01*
X71878371Y-83621638D01*
X71786447Y-83575676D01*
X71740485Y-83529714D01*
X83834514Y-93781638D02*
X83512780Y-93322019D01*
X83282971Y-93781638D02*
X83282971Y-92816438D01*
X83650666Y-92816438D01*
X83742590Y-92862400D01*
X83788552Y-92908361D01*
X83834514Y-93000285D01*
X83834514Y-93138171D01*
X83788552Y-93230095D01*
X83742590Y-93276057D01*
X83650666Y-93322019D01*
X83282971Y-93322019D01*
X84753752Y-93781638D02*
X84202209Y-93781638D01*
X84477980Y-93781638D02*
X84477980Y-92816438D01*
X84386057Y-92954323D01*
X84294133Y-93046247D01*
X84202209Y-93092209D01*
X85121447Y-92908361D02*
X85167409Y-92862400D01*
X85259333Y-92816438D01*
X85489142Y-92816438D01*
X85581066Y-92862400D01*
X85627028Y-92908361D01*
X85672990Y-93000285D01*
X85672990Y-93092209D01*
X85627028Y-93230095D01*
X85075485Y-93781638D01*
X85672990Y-93781638D01*
X80555797Y-116980607D02*
X79981273Y-117382773D01*
X80555797Y-117670035D02*
X79349297Y-117670035D01*
X79349297Y-117210416D01*
X79406750Y-117095511D01*
X79464202Y-117038059D01*
X79579107Y-116980607D01*
X79751464Y-116980607D01*
X79866369Y-117038059D01*
X79923821Y-117095511D01*
X79981273Y-117210416D01*
X79981273Y-117670035D01*
X80555797Y-115831559D02*
X80555797Y-116520988D01*
X80555797Y-116176273D02*
X79349297Y-116176273D01*
X79521654Y-116291178D01*
X79636559Y-116406083D01*
X79694011Y-116520988D01*
X80555797Y-114682511D02*
X80555797Y-115371940D01*
X80555797Y-115027226D02*
X79349297Y-115027226D01*
X79521654Y-115142130D01*
X79636559Y-115257035D01*
X79694011Y-115371940D01*
X67959514Y-128706638D02*
X67637780Y-128247019D01*
X67407971Y-128706638D02*
X67407971Y-127741438D01*
X67775666Y-127741438D01*
X67867590Y-127787400D01*
X67913552Y-127833361D01*
X67959514Y-127925285D01*
X67959514Y-128063171D01*
X67913552Y-128155095D01*
X67867590Y-128201057D01*
X67775666Y-128247019D01*
X67407971Y-128247019D01*
X68878752Y-128706638D02*
X68327209Y-128706638D01*
X68602980Y-128706638D02*
X68602980Y-127741438D01*
X68511057Y-127879323D01*
X68419133Y-127971247D01*
X68327209Y-128017209D01*
X69476257Y-127741438D02*
X69568180Y-127741438D01*
X69660104Y-127787400D01*
X69706066Y-127833361D01*
X69752028Y-127925285D01*
X69797990Y-128109133D01*
X69797990Y-128338942D01*
X69752028Y-128522790D01*
X69706066Y-128614714D01*
X69660104Y-128660676D01*
X69568180Y-128706638D01*
X69476257Y-128706638D01*
X69384333Y-128660676D01*
X69338371Y-128614714D01*
X69292409Y-128522790D01*
X69246447Y-128338942D01*
X69246447Y-128109133D01*
X69292409Y-127925285D01*
X69338371Y-127833361D01*
X69384333Y-127787400D01*
X69476257Y-127741438D01*
X91914133Y-125531638D02*
X91592400Y-125072019D01*
X91362590Y-125531638D02*
X91362590Y-124566438D01*
X91730285Y-124566438D01*
X91822209Y-124612400D01*
X91868171Y-124658361D01*
X91914133Y-124750285D01*
X91914133Y-124888171D01*
X91868171Y-124980095D01*
X91822209Y-125026057D01*
X91730285Y-125072019D01*
X91362590Y-125072019D01*
X92373752Y-125531638D02*
X92557600Y-125531638D01*
X92649523Y-125485676D01*
X92695485Y-125439714D01*
X92787409Y-125301828D01*
X92833371Y-125117980D01*
X92833371Y-124750285D01*
X92787409Y-124658361D01*
X92741447Y-124612400D01*
X92649523Y-124566438D01*
X92465676Y-124566438D01*
X92373752Y-124612400D01*
X92327790Y-124658361D01*
X92281828Y-124750285D01*
X92281828Y-124980095D01*
X92327790Y-125072019D01*
X92373752Y-125117980D01*
X92465676Y-125163942D01*
X92649523Y-125163942D01*
X92741447Y-125117980D01*
X92787409Y-125072019D01*
X92833371Y-124980095D01*
X99496638Y-122080866D02*
X99037019Y-122402600D01*
X99496638Y-122632409D02*
X98531438Y-122632409D01*
X98531438Y-122264714D01*
X98577400Y-122172790D01*
X98623361Y-122126828D01*
X98715285Y-122080866D01*
X98853171Y-122080866D01*
X98945095Y-122126828D01*
X98991057Y-122172790D01*
X99037019Y-122264714D01*
X99037019Y-122632409D01*
X98945095Y-121529323D02*
X98899133Y-121621247D01*
X98853171Y-121667209D01*
X98761247Y-121713171D01*
X98715285Y-121713171D01*
X98623361Y-121667209D01*
X98577400Y-121621247D01*
X98531438Y-121529323D01*
X98531438Y-121345476D01*
X98577400Y-121253552D01*
X98623361Y-121207590D01*
X98715285Y-121161628D01*
X98761247Y-121161628D01*
X98853171Y-121207590D01*
X98899133Y-121253552D01*
X98945095Y-121345476D01*
X98945095Y-121529323D01*
X98991057Y-121621247D01*
X99037019Y-121667209D01*
X99128942Y-121713171D01*
X99312790Y-121713171D01*
X99404714Y-121667209D01*
X99450676Y-121621247D01*
X99496638Y-121529323D01*
X99496638Y-121345476D01*
X99450676Y-121253552D01*
X99404714Y-121207590D01*
X99312790Y-121161628D01*
X99128942Y-121161628D01*
X99037019Y-121207590D01*
X98991057Y-121253552D01*
X98945095Y-121345476D01*
X105955797Y-122121083D02*
X105381273Y-122523250D01*
X105955797Y-122810511D02*
X104749297Y-122810511D01*
X104749297Y-122350892D01*
X104806750Y-122235988D01*
X104864202Y-122178535D01*
X104979107Y-122121083D01*
X105151464Y-122121083D01*
X105266369Y-122178535D01*
X105323821Y-122235988D01*
X105381273Y-122350892D01*
X105381273Y-122810511D01*
X104749297Y-121718916D02*
X104749297Y-120914583D01*
X105955797Y-121431654D01*
X107116638Y-89060866D02*
X106657019Y-89382600D01*
X107116638Y-89612409D02*
X106151438Y-89612409D01*
X106151438Y-89244714D01*
X106197400Y-89152790D01*
X106243361Y-89106828D01*
X106335285Y-89060866D01*
X106473171Y-89060866D01*
X106565095Y-89106828D01*
X106611057Y-89152790D01*
X106657019Y-89244714D01*
X106657019Y-89612409D01*
X106151438Y-88233552D02*
X106151438Y-88417400D01*
X106197400Y-88509323D01*
X106243361Y-88555285D01*
X106381247Y-88647209D01*
X106565095Y-88693171D01*
X106932790Y-88693171D01*
X107024714Y-88647209D01*
X107070676Y-88601247D01*
X107116638Y-88509323D01*
X107116638Y-88325476D01*
X107070676Y-88233552D01*
X107024714Y-88187590D01*
X106932790Y-88141628D01*
X106702980Y-88141628D01*
X106611057Y-88187590D01*
X106565095Y-88233552D01*
X106519133Y-88325476D01*
X106519133Y-88509323D01*
X106565095Y-88601247D01*
X106611057Y-88647209D01*
X106702980Y-88693171D01*
X95089133Y-96956638D02*
X94767400Y-96497019D01*
X94537590Y-96956638D02*
X94537590Y-95991438D01*
X94905285Y-95991438D01*
X94997209Y-96037400D01*
X95043171Y-96083361D01*
X95089133Y-96175285D01*
X95089133Y-96313171D01*
X95043171Y-96405095D01*
X94997209Y-96451057D01*
X94905285Y-96497019D01*
X94537590Y-96497019D01*
X95962409Y-95991438D02*
X95502790Y-95991438D01*
X95456828Y-96451057D01*
X95502790Y-96405095D01*
X95594714Y-96359133D01*
X95824523Y-96359133D01*
X95916447Y-96405095D01*
X95962409Y-96451057D01*
X96008371Y-96542980D01*
X96008371Y-96772790D01*
X95962409Y-96864714D01*
X95916447Y-96910676D01*
X95824523Y-96956638D01*
X95594714Y-96956638D01*
X95502790Y-96910676D01*
X95456828Y-96864714D01*
X100169133Y-112831638D02*
X99847400Y-112372019D01*
X99617590Y-112831638D02*
X99617590Y-111866438D01*
X99985285Y-111866438D01*
X100077209Y-111912400D01*
X100123171Y-111958361D01*
X100169133Y-112050285D01*
X100169133Y-112188171D01*
X100123171Y-112280095D01*
X100077209Y-112326057D01*
X99985285Y-112372019D01*
X99617590Y-112372019D01*
X100996447Y-112188171D02*
X100996447Y-112831638D01*
X100766638Y-111820476D02*
X100536828Y-112509904D01*
X101134333Y-112509904D01*
X77271638Y-100490866D02*
X76812019Y-100812600D01*
X77271638Y-101042409D02*
X76306438Y-101042409D01*
X76306438Y-100674714D01*
X76352400Y-100582790D01*
X76398361Y-100536828D01*
X76490285Y-100490866D01*
X76628171Y-100490866D01*
X76720095Y-100536828D01*
X76766057Y-100582790D01*
X76812019Y-100674714D01*
X76812019Y-101042409D01*
X76306438Y-100169133D02*
X76306438Y-99571628D01*
X76674133Y-99893361D01*
X76674133Y-99755476D01*
X76720095Y-99663552D01*
X76766057Y-99617590D01*
X76857980Y-99571628D01*
X77087790Y-99571628D01*
X77179714Y-99617590D01*
X77225676Y-99663552D01*
X77271638Y-99755476D01*
X77271638Y-100031247D01*
X77225676Y-100123171D01*
X77179714Y-100169133D01*
X102780797Y-122121083D02*
X102206273Y-122523250D01*
X102780797Y-122810511D02*
X101574297Y-122810511D01*
X101574297Y-122350892D01*
X101631750Y-122235988D01*
X101689202Y-122178535D01*
X101804107Y-122121083D01*
X101976464Y-122121083D01*
X102091369Y-122178535D01*
X102148821Y-122235988D01*
X102206273Y-122350892D01*
X102206273Y-122810511D01*
X101689202Y-121661464D02*
X101631750Y-121604011D01*
X101574297Y-121489107D01*
X101574297Y-121201845D01*
X101631750Y-121086940D01*
X101689202Y-121029488D01*
X101804107Y-120972035D01*
X101919011Y-120972035D01*
X102091369Y-121029488D01*
X102780797Y-121718916D01*
X102780797Y-120972035D01*
X84253916Y-109765797D02*
X83851750Y-109191273D01*
X83564488Y-109765797D02*
X83564488Y-108559297D01*
X84024107Y-108559297D01*
X84139011Y-108616750D01*
X84196464Y-108674202D01*
X84253916Y-108789107D01*
X84253916Y-108961464D01*
X84196464Y-109076369D01*
X84139011Y-109133821D01*
X84024107Y-109191273D01*
X83564488Y-109191273D01*
X85402964Y-109765797D02*
X84713535Y-109765797D01*
X85058250Y-109765797D02*
X85058250Y-108559297D01*
X84943345Y-108731654D01*
X84828440Y-108846559D01*
X84713535Y-108904011D01*
D12*
X61053214Y-109291428D02*
X61017500Y-109362857D01*
X60946071Y-109434285D01*
X60838928Y-109541428D01*
X60803214Y-109612857D01*
X60803214Y-109684285D01*
X60981785Y-109648571D02*
X60946071Y-109720000D01*
X60874642Y-109791428D01*
X60731785Y-109827142D01*
X60481785Y-109827142D01*
X60338928Y-109791428D01*
X60267500Y-109720000D01*
X60231785Y-109648571D01*
X60231785Y-109505714D01*
X60267500Y-109434285D01*
X60338928Y-109362857D01*
X60481785Y-109327142D01*
X60731785Y-109327142D01*
X60874642Y-109362857D01*
X60946071Y-109434285D01*
X60981785Y-109505714D01*
X60981785Y-109648571D01*
X60231785Y-109077142D02*
X60231785Y-108612857D01*
X60517500Y-108862857D01*
X60517500Y-108755714D01*
X60553214Y-108684285D01*
X60588928Y-108648571D01*
X60660357Y-108612857D01*
X60838928Y-108612857D01*
X60910357Y-108648571D01*
X60946071Y-108684285D01*
X60981785Y-108755714D01*
X60981785Y-108970000D01*
X60946071Y-109041428D01*
X60910357Y-109077142D01*
X64228214Y-100401428D02*
X64192500Y-100472857D01*
X64121071Y-100544285D01*
X64013928Y-100651428D01*
X63978214Y-100722857D01*
X63978214Y-100794285D01*
X64156785Y-100758571D02*
X64121071Y-100830000D01*
X64049642Y-100901428D01*
X63906785Y-100937142D01*
X63656785Y-100937142D01*
X63513928Y-100901428D01*
X63442500Y-100830000D01*
X63406785Y-100758571D01*
X63406785Y-100615714D01*
X63442500Y-100544285D01*
X63513928Y-100472857D01*
X63656785Y-100437142D01*
X63906785Y-100437142D01*
X64049642Y-100472857D01*
X64121071Y-100544285D01*
X64156785Y-100615714D01*
X64156785Y-100758571D01*
X63478214Y-100151428D02*
X63442500Y-100115714D01*
X63406785Y-100044285D01*
X63406785Y-99865714D01*
X63442500Y-99794285D01*
X63478214Y-99758571D01*
X63549642Y-99722857D01*
X63621071Y-99722857D01*
X63728214Y-99758571D01*
X64156785Y-100187142D01*
X64156785Y-99722857D01*
X95813571Y-130268214D02*
X95742142Y-130232500D01*
X95670714Y-130161071D01*
X95563571Y-130053928D01*
X95492142Y-130018214D01*
X95420714Y-130018214D01*
X95456428Y-130196785D02*
X95385000Y-130161071D01*
X95313571Y-130089642D01*
X95277857Y-129946785D01*
X95277857Y-129696785D01*
X95313571Y-129553928D01*
X95385000Y-129482500D01*
X95456428Y-129446785D01*
X95599285Y-129446785D01*
X95670714Y-129482500D01*
X95742142Y-129553928D01*
X95777857Y-129696785D01*
X95777857Y-129946785D01*
X95742142Y-130089642D01*
X95670714Y-130161071D01*
X95599285Y-130196785D01*
X95456428Y-130196785D01*
X96492142Y-130196785D02*
X96063571Y-130196785D01*
X96277857Y-130196785D02*
X96277857Y-129446785D01*
X96206428Y-129553928D01*
X96135000Y-129625357D01*
X96063571Y-129661071D01*
X81978571Y-129800000D02*
X81907142Y-129764285D01*
X81800000Y-129764285D01*
X81692857Y-129800000D01*
X81621428Y-129871428D01*
X81585714Y-129942857D01*
X81550000Y-130085714D01*
X81550000Y-130192857D01*
X81585714Y-130335714D01*
X81621428Y-130407142D01*
X81692857Y-130478571D01*
X81800000Y-130514285D01*
X81871428Y-130514285D01*
X81978571Y-130478571D01*
X82014285Y-130442857D01*
X82014285Y-130192857D01*
X81871428Y-130192857D01*
X82335714Y-130514285D02*
X82335714Y-129764285D01*
X82764285Y-130514285D01*
X82764285Y-129764285D01*
X83121428Y-130514285D02*
X83121428Y-129764285D01*
X83300000Y-129764285D01*
X83407142Y-129800000D01*
X83478571Y-129871428D01*
X83514285Y-129942857D01*
X83550000Y-130085714D01*
X83550000Y-130192857D01*
X83514285Y-130335714D01*
X83478571Y-130407142D01*
X83407142Y-130478571D01*
X83300000Y-130514285D01*
X83121428Y-130514285D01*
X86530714Y-80984285D02*
X86673571Y-80984285D01*
X86745000Y-80948571D01*
X86780714Y-80912857D01*
X86852142Y-80805714D01*
X86887857Y-80662857D01*
X86887857Y-80377142D01*
X86852142Y-80305714D01*
X86816428Y-80270000D01*
X86745000Y-80234285D01*
X86602142Y-80234285D01*
X86530714Y-80270000D01*
X86495000Y-80305714D01*
X86459285Y-80377142D01*
X86459285Y-80555714D01*
X86495000Y-80627142D01*
X86530714Y-80662857D01*
X86602142Y-80698571D01*
X86745000Y-80698571D01*
X86816428Y-80662857D01*
X86852142Y-80627142D01*
X86887857Y-80555714D01*
X87102142Y-80234285D02*
X87352142Y-80984285D01*
X87602142Y-80234285D01*
X85717142Y-130478571D02*
X85824285Y-130514285D01*
X86002857Y-130514285D01*
X86074285Y-130478571D01*
X86110000Y-130442857D01*
X86145714Y-130371428D01*
X86145714Y-130300000D01*
X86110000Y-130228571D01*
X86074285Y-130192857D01*
X86002857Y-130157142D01*
X85860000Y-130121428D01*
X85788571Y-130085714D01*
X85752857Y-130050000D01*
X85717142Y-129978571D01*
X85717142Y-129907142D01*
X85752857Y-129835714D01*
X85788571Y-129800000D01*
X85860000Y-129764285D01*
X86038571Y-129764285D01*
X86145714Y-129800000D01*
X86395714Y-129764285D02*
X86574285Y-130514285D01*
X86717142Y-129978571D01*
X86860000Y-130514285D01*
X87038571Y-129764285D01*
X93694285Y-137257285D02*
X93694285Y-137793000D01*
X93658571Y-137900142D01*
X93587142Y-137971571D01*
X93480000Y-138007285D01*
X93408571Y-138007285D01*
X94194285Y-137257285D02*
X94337142Y-137257285D01*
X94408571Y-137293000D01*
X94480000Y-137364428D01*
X94515714Y-137507285D01*
X94515714Y-137757285D01*
X94480000Y-137900142D01*
X94408571Y-137971571D01*
X94337142Y-138007285D01*
X94194285Y-138007285D01*
X94122857Y-137971571D01*
X94051428Y-137900142D01*
X94015714Y-137757285D01*
X94015714Y-137507285D01*
X94051428Y-137364428D01*
X94122857Y-137293000D01*
X94194285Y-137257285D01*
X61658571Y-80270000D02*
X61587142Y-80234285D01*
X61480000Y-80234285D01*
X61372857Y-80270000D01*
X61301428Y-80341428D01*
X61265714Y-80412857D01*
X61230000Y-80555714D01*
X61230000Y-80662857D01*
X61265714Y-80805714D01*
X61301428Y-80877142D01*
X61372857Y-80948571D01*
X61480000Y-80984285D01*
X61551428Y-80984285D01*
X61658571Y-80948571D01*
X61694285Y-80912857D01*
X61694285Y-80662857D01*
X61551428Y-80662857D01*
X62015714Y-80984285D02*
X62015714Y-80234285D01*
X62444285Y-80984285D01*
X62444285Y-80234285D01*
X62801428Y-80984285D02*
X62801428Y-80234285D01*
X62980000Y-80234285D01*
X63087142Y-80270000D01*
X63158571Y-80341428D01*
X63194285Y-80412857D01*
X63230000Y-80555714D01*
X63230000Y-80662857D01*
X63194285Y-80805714D01*
X63158571Y-80877142D01*
X63087142Y-80948571D01*
X62980000Y-80984285D01*
X62801428Y-80984285D01*
X89830714Y-137614428D02*
X89937857Y-137650142D01*
X89973571Y-137685857D01*
X90009285Y-137757285D01*
X90009285Y-137864428D01*
X89973571Y-137935857D01*
X89937857Y-137971571D01*
X89866428Y-138007285D01*
X89580714Y-138007285D01*
X89580714Y-137257285D01*
X89830714Y-137257285D01*
X89902142Y-137293000D01*
X89937857Y-137328714D01*
X89973571Y-137400142D01*
X89973571Y-137471571D01*
X89937857Y-137543000D01*
X89902142Y-137578714D01*
X89830714Y-137614428D01*
X89580714Y-137614428D01*
X90473571Y-137257285D02*
X90616428Y-137257285D01*
X90687857Y-137293000D01*
X90759285Y-137364428D01*
X90795000Y-137507285D01*
X90795000Y-137757285D01*
X90759285Y-137900142D01*
X90687857Y-137971571D01*
X90616428Y-138007285D01*
X90473571Y-138007285D01*
X90402142Y-137971571D01*
X90330714Y-137900142D01*
X90295000Y-137757285D01*
X90295000Y-137507285D01*
X90330714Y-137364428D01*
X90402142Y-137293000D01*
X90473571Y-137257285D01*
X81978571Y-137293000D02*
X81907142Y-137257285D01*
X81800000Y-137257285D01*
X81692857Y-137293000D01*
X81621428Y-137364428D01*
X81585714Y-137435857D01*
X81550000Y-137578714D01*
X81550000Y-137685857D01*
X81585714Y-137828714D01*
X81621428Y-137900142D01*
X81692857Y-137971571D01*
X81800000Y-138007285D01*
X81871428Y-138007285D01*
X81978571Y-137971571D01*
X82014285Y-137935857D01*
X82014285Y-137685857D01*
X81871428Y-137685857D01*
X82335714Y-138007285D02*
X82335714Y-137257285D01*
X82764285Y-138007285D01*
X82764285Y-137257285D01*
X83121428Y-138007285D02*
X83121428Y-137257285D01*
X83300000Y-137257285D01*
X83407142Y-137293000D01*
X83478571Y-137364428D01*
X83514285Y-137435857D01*
X83550000Y-137578714D01*
X83550000Y-137685857D01*
X83514285Y-137828714D01*
X83478571Y-137900142D01*
X83407142Y-137971571D01*
X83300000Y-138007285D01*
X83121428Y-138007285D01*
X85717142Y-137971571D02*
X85824285Y-138007285D01*
X86002857Y-138007285D01*
X86074285Y-137971571D01*
X86110000Y-137935857D01*
X86145714Y-137864428D01*
X86145714Y-137793000D01*
X86110000Y-137721571D01*
X86074285Y-137685857D01*
X86002857Y-137650142D01*
X85860000Y-137614428D01*
X85788571Y-137578714D01*
X85752857Y-137543000D01*
X85717142Y-137471571D01*
X85717142Y-137400142D01*
X85752857Y-137328714D01*
X85788571Y-137293000D01*
X85860000Y-137257285D01*
X86038571Y-137257285D01*
X86145714Y-137293000D01*
X86395714Y-137257285D02*
X86574285Y-138007285D01*
X86717142Y-137471571D01*
X86860000Y-138007285D01*
X87038571Y-137257285D01*
X74858571Y-137257285D02*
X74858571Y-137793000D01*
X74822857Y-137900142D01*
X74751428Y-137971571D01*
X74644285Y-138007285D01*
X74572857Y-138007285D01*
X75215714Y-138007285D02*
X75215714Y-137257285D01*
X78615000Y-137614428D02*
X78722142Y-137650142D01*
X78757857Y-137685857D01*
X78793571Y-137757285D01*
X78793571Y-137864428D01*
X78757857Y-137935857D01*
X78722142Y-137971571D01*
X78650714Y-138007285D01*
X78365000Y-138007285D01*
X78365000Y-137257285D01*
X78615000Y-137257285D01*
X78686428Y-137293000D01*
X78722142Y-137328714D01*
X78757857Y-137400142D01*
X78757857Y-137471571D01*
X78722142Y-137543000D01*
X78686428Y-137578714D01*
X78615000Y-137614428D01*
X78365000Y-137614428D01*
X79115000Y-138007285D02*
X79115000Y-137257285D01*
X78347142Y-130514285D02*
X78347142Y-129764285D01*
X78704285Y-130514285D02*
X78704285Y-129764285D01*
X79132857Y-130514285D01*
X79132857Y-129764285D01*
X81978571Y-80270000D02*
X81907142Y-80234285D01*
X81800000Y-80234285D01*
X81692857Y-80270000D01*
X81621428Y-80341428D01*
X81585714Y-80412857D01*
X81550000Y-80555714D01*
X81550000Y-80662857D01*
X81585714Y-80805714D01*
X81621428Y-80877142D01*
X81692857Y-80948571D01*
X81800000Y-80984285D01*
X81871428Y-80984285D01*
X81978571Y-80948571D01*
X82014285Y-80912857D01*
X82014285Y-80662857D01*
X81871428Y-80662857D01*
X82335714Y-80984285D02*
X82335714Y-80234285D01*
X82764285Y-80984285D01*
X82764285Y-80234285D01*
X83121428Y-80984285D02*
X83121428Y-80234285D01*
X83300000Y-80234285D01*
X83407142Y-80270000D01*
X83478571Y-80341428D01*
X83514285Y-80412857D01*
X83550000Y-80555714D01*
X83550000Y-80662857D01*
X83514285Y-80805714D01*
X83478571Y-80877142D01*
X83407142Y-80948571D01*
X83300000Y-80984285D01*
X83121428Y-80984285D01*
X89420000Y-129764285D02*
X89562857Y-129764285D01*
X89634285Y-129800000D01*
X89705714Y-129871428D01*
X89741428Y-130014285D01*
X89741428Y-130264285D01*
X89705714Y-130407142D01*
X89634285Y-130478571D01*
X89562857Y-130514285D01*
X89420000Y-130514285D01*
X89348571Y-130478571D01*
X89277142Y-130407142D01*
X89241428Y-130264285D01*
X89241428Y-130014285D01*
X89277142Y-129871428D01*
X89348571Y-129800000D01*
X89420000Y-129764285D01*
X90062857Y-129764285D02*
X90062857Y-130371428D01*
X90098571Y-130442857D01*
X90134285Y-130478571D01*
X90205714Y-130514285D01*
X90348571Y-130514285D01*
X90420000Y-130478571D01*
X90455714Y-130442857D01*
X90491428Y-130371428D01*
X90491428Y-129764285D01*
X90741428Y-129764285D02*
X91170000Y-129764285D01*
X90955714Y-130514285D02*
X90955714Y-129764285D01*
X107378571Y-80270000D02*
X107307142Y-80234285D01*
X107200000Y-80234285D01*
X107092857Y-80270000D01*
X107021428Y-80341428D01*
X106985714Y-80412857D01*
X106950000Y-80555714D01*
X106950000Y-80662857D01*
X106985714Y-80805714D01*
X107021428Y-80877142D01*
X107092857Y-80948571D01*
X107200000Y-80984285D01*
X107271428Y-80984285D01*
X107378571Y-80948571D01*
X107414285Y-80912857D01*
X107414285Y-80662857D01*
X107271428Y-80662857D01*
X107735714Y-80984285D02*
X107735714Y-80234285D01*
X108164285Y-80984285D01*
X108164285Y-80234285D01*
X108521428Y-80984285D02*
X108521428Y-80234285D01*
X108700000Y-80234285D01*
X108807142Y-80270000D01*
X108878571Y-80341428D01*
X108914285Y-80412857D01*
X108950000Y-80555714D01*
X108950000Y-80662857D01*
X108914285Y-80805714D01*
X108878571Y-80877142D01*
X108807142Y-80948571D01*
X108700000Y-80984285D01*
X108521428Y-80984285D01*
D15*
X107751638Y-109439528D02*
X106786438Y-109439528D01*
X106786438Y-109209719D01*
X106832400Y-109071833D01*
X106924323Y-108979909D01*
X107016247Y-108933947D01*
X107200095Y-108887985D01*
X107337980Y-108887985D01*
X107521828Y-108933947D01*
X107613752Y-108979909D01*
X107705676Y-109071833D01*
X107751638Y-109209719D01*
X107751638Y-109439528D01*
X107751638Y-107968747D02*
X107751638Y-108520290D01*
X107751638Y-108244519D02*
X106786438Y-108244519D01*
X106924323Y-108336442D01*
X107016247Y-108428366D01*
X107062209Y-108520290D01*
X107751638Y-107049509D02*
X107751638Y-107601052D01*
X107751638Y-107325280D02*
X106786438Y-107325280D01*
X106924323Y-107417204D01*
X107016247Y-107509128D01*
X107062209Y-107601052D01*
D18*
X63936638Y-86262028D02*
X62971438Y-86262028D01*
X62971438Y-86032219D01*
X63017400Y-85894333D01*
X63109323Y-85802409D01*
X63201247Y-85756447D01*
X63385095Y-85710485D01*
X63522980Y-85710485D01*
X63706828Y-85756447D01*
X63798752Y-85802409D01*
X63890676Y-85894333D01*
X63936638Y-86032219D01*
X63936638Y-86262028D01*
X63936638Y-84791247D02*
X63936638Y-85342790D01*
X63936638Y-85067019D02*
X62971438Y-85067019D01*
X63109323Y-85158942D01*
X63201247Y-85250866D01*
X63247209Y-85342790D01*
X62971438Y-84193742D02*
X62971438Y-84101819D01*
X63017400Y-84009895D01*
X63063361Y-83963933D01*
X63155285Y-83917971D01*
X63339133Y-83872009D01*
X63568942Y-83872009D01*
X63752790Y-83917971D01*
X63844714Y-83963933D01*
X63890676Y-84009895D01*
X63936638Y-84101819D01*
X63936638Y-84193742D01*
X63890676Y-84285666D01*
X63844714Y-84331628D01*
X63752790Y-84377590D01*
X63568942Y-84423552D01*
X63339133Y-84423552D01*
X63155285Y-84377590D01*
X63063361Y-84331628D01*
X63017400Y-84285666D01*
X62971438Y-84193742D01*
X63936638Y-92787409D02*
X62971438Y-92787409D01*
X62971438Y-92557600D01*
X63017400Y-92419714D01*
X63109323Y-92327790D01*
X63201247Y-92281828D01*
X63385095Y-92235866D01*
X63522980Y-92235866D01*
X63706828Y-92281828D01*
X63798752Y-92327790D01*
X63890676Y-92419714D01*
X63936638Y-92557600D01*
X63936638Y-92787409D01*
X63936638Y-91776247D02*
X63936638Y-91592400D01*
X63890676Y-91500476D01*
X63844714Y-91454514D01*
X63706828Y-91362590D01*
X63522980Y-91316628D01*
X63155285Y-91316628D01*
X63063361Y-91362590D01*
X63017400Y-91408552D01*
X62971438Y-91500476D01*
X62971438Y-91684323D01*
X63017400Y-91776247D01*
X63063361Y-91822209D01*
X63155285Y-91868171D01*
X63385095Y-91868171D01*
X63477019Y-91822209D01*
X63522980Y-91776247D01*
X63568942Y-91684323D01*
X63568942Y-91500476D01*
X63522980Y-91408552D01*
X63477019Y-91362590D01*
X63385095Y-91316628D01*
D14*
X66476638Y-101042409D02*
X65511438Y-101042409D01*
X65511438Y-100812600D01*
X65557400Y-100674714D01*
X65649323Y-100582790D01*
X65741247Y-100536828D01*
X65925095Y-100490866D01*
X66062980Y-100490866D01*
X66246828Y-100536828D01*
X66338752Y-100582790D01*
X66430676Y-100674714D01*
X66476638Y-100812600D01*
X66476638Y-101042409D01*
X65511438Y-100169133D02*
X65511438Y-99525666D01*
X66476638Y-99939323D01*
X76001638Y-90247409D02*
X75036438Y-90247409D01*
X75036438Y-90017600D01*
X75082400Y-89879714D01*
X75174323Y-89787790D01*
X75266247Y-89741828D01*
X75450095Y-89695866D01*
X75587980Y-89695866D01*
X75771828Y-89741828D01*
X75863752Y-89787790D01*
X75955676Y-89879714D01*
X76001638Y-90017600D01*
X76001638Y-90247409D01*
X75036438Y-88868552D02*
X75036438Y-89052400D01*
X75082400Y-89144323D01*
X75128361Y-89190285D01*
X75266247Y-89282209D01*
X75450095Y-89328171D01*
X75817790Y-89328171D01*
X75909714Y-89282209D01*
X75955676Y-89236247D01*
X76001638Y-89144323D01*
X76001638Y-88960476D01*
X75955676Y-88868552D01*
X75909714Y-88822590D01*
X75817790Y-88776628D01*
X75587980Y-88776628D01*
X75496057Y-88822590D01*
X75450095Y-88868552D01*
X75404133Y-88960476D01*
X75404133Y-89144323D01*
X75450095Y-89236247D01*
X75496057Y-89282209D01*
X75587980Y-89328171D01*
X72826638Y-90247409D02*
X71861438Y-90247409D01*
X71861438Y-90017600D01*
X71907400Y-89879714D01*
X71999323Y-89787790D01*
X72091247Y-89741828D01*
X72275095Y-89695866D01*
X72412980Y-89695866D01*
X72596828Y-89741828D01*
X72688752Y-89787790D01*
X72780676Y-89879714D01*
X72826638Y-90017600D01*
X72826638Y-90247409D01*
X71861438Y-88822590D02*
X71861438Y-89282209D01*
X72321057Y-89328171D01*
X72275095Y-89282209D01*
X72229133Y-89190285D01*
X72229133Y-88960476D01*
X72275095Y-88868552D01*
X72321057Y-88822590D01*
X72412980Y-88776628D01*
X72642790Y-88776628D01*
X72734714Y-88822590D01*
X72780676Y-88868552D01*
X72826638Y-88960476D01*
X72826638Y-89190285D01*
X72780676Y-89282209D01*
X72734714Y-89328171D01*
X69651638Y-90247409D02*
X68686438Y-90247409D01*
X68686438Y-90017600D01*
X68732400Y-89879714D01*
X68824323Y-89787790D01*
X68916247Y-89741828D01*
X69100095Y-89695866D01*
X69237980Y-89695866D01*
X69421828Y-89741828D01*
X69513752Y-89787790D01*
X69605676Y-89879714D01*
X69651638Y-90017600D01*
X69651638Y-90247409D01*
X69008171Y-88868552D02*
X69651638Y-88868552D01*
X68640476Y-89098361D02*
X69329904Y-89328171D01*
X69329904Y-88730666D01*
X66476638Y-90247409D02*
X65511438Y-90247409D01*
X65511438Y-90017600D01*
X65557400Y-89879714D01*
X65649323Y-89787790D01*
X65741247Y-89741828D01*
X65925095Y-89695866D01*
X66062980Y-89695866D01*
X66246828Y-89741828D01*
X66338752Y-89787790D01*
X66430676Y-89879714D01*
X66476638Y-90017600D01*
X66476638Y-90247409D01*
X65511438Y-89374133D02*
X65511438Y-88776628D01*
X65879133Y-89098361D01*
X65879133Y-88960476D01*
X65925095Y-88868552D01*
X65971057Y-88822590D01*
X66062980Y-88776628D01*
X66292790Y-88776628D01*
X66384714Y-88822590D01*
X66430676Y-88868552D01*
X66476638Y-88960476D01*
X66476638Y-89236247D01*
X66430676Y-89328171D01*
X66384714Y-89374133D01*
X72826638Y-101042409D02*
X71861438Y-101042409D01*
X71861438Y-100812600D01*
X71907400Y-100674714D01*
X71999323Y-100582790D01*
X72091247Y-100536828D01*
X72275095Y-100490866D01*
X72412980Y-100490866D01*
X72596828Y-100536828D01*
X72688752Y-100582790D01*
X72780676Y-100674714D01*
X72826638Y-100812600D01*
X72826638Y-101042409D01*
X71953361Y-100123171D02*
X71907400Y-100077209D01*
X71861438Y-99985285D01*
X71861438Y-99755476D01*
X71907400Y-99663552D01*
X71953361Y-99617590D01*
X72045285Y-99571628D01*
X72137209Y-99571628D01*
X72275095Y-99617590D01*
X72826638Y-100169133D01*
X72826638Y-99571628D01*
X69651638Y-101042409D02*
X68686438Y-101042409D01*
X68686438Y-100812600D01*
X68732400Y-100674714D01*
X68824323Y-100582790D01*
X68916247Y-100536828D01*
X69100095Y-100490866D01*
X69237980Y-100490866D01*
X69421828Y-100536828D01*
X69513752Y-100582790D01*
X69605676Y-100674714D01*
X69651638Y-100812600D01*
X69651638Y-101042409D01*
X69651638Y-99571628D02*
X69651638Y-100123171D01*
X69651638Y-99847400D02*
X68686438Y-99847400D01*
X68824323Y-99939323D01*
X68916247Y-100031247D01*
X68962209Y-100123171D01*
D19*
X100097771Y-86221388D02*
X100134540Y-86258158D01*
X100171310Y-86368466D01*
X100171310Y-86442005D01*
X100134540Y-86552314D01*
X100061001Y-86625853D01*
X99987462Y-86662622D01*
X99840384Y-86699392D01*
X99730076Y-86699392D01*
X99582998Y-86662622D01*
X99509459Y-86625853D01*
X99435920Y-86552314D01*
X99399150Y-86442005D01*
X99399150Y-86368466D01*
X99435920Y-86258158D01*
X99472689Y-86221388D01*
X100171310Y-85485998D02*
X100171310Y-85927232D01*
X100171310Y-85706615D02*
X99399150Y-85706615D01*
X99509459Y-85780154D01*
X99582998Y-85853693D01*
X99619767Y-85927232D01*
X99399150Y-84824146D02*
X99399150Y-84971224D01*
X99435920Y-85044763D01*
X99472689Y-85081533D01*
X99582998Y-85155072D01*
X99730076Y-85191841D01*
X100024232Y-85191841D01*
X100097771Y-85155072D01*
X100134540Y-85118302D01*
X100171310Y-85044763D01*
X100171310Y-84897685D01*
X100134540Y-84824146D01*
X100097771Y-84787377D01*
X100024232Y-84750607D01*
X99840384Y-84750607D01*
X99766845Y-84787377D01*
X99730076Y-84824146D01*
X99693306Y-84897685D01*
X99693306Y-85044763D01*
X99730076Y-85118302D01*
X99766845Y-85155072D01*
X99840384Y-85191841D01*
X100097771Y-91936388D02*
X100134540Y-91973158D01*
X100171310Y-92083466D01*
X100171310Y-92157005D01*
X100134540Y-92267314D01*
X100061001Y-92340853D01*
X99987462Y-92377622D01*
X99840384Y-92414392D01*
X99730076Y-92414392D01*
X99582998Y-92377622D01*
X99509459Y-92340853D01*
X99435920Y-92267314D01*
X99399150Y-92157005D01*
X99399150Y-92083466D01*
X99435920Y-91973158D01*
X99472689Y-91936388D01*
X100171310Y-91200998D02*
X100171310Y-91642232D01*
X100171310Y-91421615D02*
X99399150Y-91421615D01*
X99509459Y-91495154D01*
X99582998Y-91568693D01*
X99619767Y-91642232D01*
X99399150Y-90502377D02*
X99399150Y-90870072D01*
X99766845Y-90906841D01*
X99730076Y-90870072D01*
X99693306Y-90796533D01*
X99693306Y-90612685D01*
X99730076Y-90539146D01*
X99766845Y-90502377D01*
X99840384Y-90465607D01*
X100024232Y-90465607D01*
X100097771Y-90502377D01*
X100134540Y-90539146D01*
X100171310Y-90612685D01*
X100171310Y-90796533D01*
X100134540Y-90870072D01*
X100097771Y-90906841D01*
D18*
X100344514Y-115914714D02*
X100298552Y-115960676D01*
X100160666Y-116006638D01*
X100068742Y-116006638D01*
X99930857Y-115960676D01*
X99838933Y-115868752D01*
X99792971Y-115776828D01*
X99747009Y-115592980D01*
X99747009Y-115455095D01*
X99792971Y-115271247D01*
X99838933Y-115179323D01*
X99930857Y-115087400D01*
X100068742Y-115041438D01*
X100160666Y-115041438D01*
X100298552Y-115087400D01*
X100344514Y-115133361D01*
X101263752Y-116006638D02*
X100712209Y-116006638D01*
X100987980Y-116006638D02*
X100987980Y-115041438D01*
X100896057Y-115179323D01*
X100804133Y-115271247D01*
X100712209Y-115317209D01*
X102091066Y-115363171D02*
X102091066Y-116006638D01*
X101861257Y-114995476D02*
X101631447Y-115684904D01*
X102228952Y-115684904D01*
D20*
X63209714Y-118365485D02*
X63255676Y-118411447D01*
X63301638Y-118549333D01*
X63301638Y-118641257D01*
X63255676Y-118779142D01*
X63163752Y-118871066D01*
X63071828Y-118917028D01*
X62887980Y-118962990D01*
X62750095Y-118962990D01*
X62566247Y-118917028D01*
X62474323Y-118871066D01*
X62382400Y-118779142D01*
X62336438Y-118641257D01*
X62336438Y-118549333D01*
X62382400Y-118411447D01*
X62428361Y-118365485D01*
X63301638Y-117446247D02*
X63301638Y-117997790D01*
X63301638Y-117722019D02*
X62336438Y-117722019D01*
X62474323Y-117813942D01*
X62566247Y-117905866D01*
X62612209Y-117997790D01*
X62336438Y-117124514D02*
X62336438Y-116527009D01*
X62704133Y-116848742D01*
X62704133Y-116710857D01*
X62750095Y-116618933D01*
X62796057Y-116572971D01*
X62887980Y-116527009D01*
X63117790Y-116527009D01*
X63209714Y-116572971D01*
X63255676Y-116618933D01*
X63301638Y-116710857D01*
X63301638Y-116986628D01*
X63255676Y-117078552D01*
X63209714Y-117124514D01*
D18*
X75909714Y-126985485D02*
X75955676Y-127031447D01*
X76001638Y-127169333D01*
X76001638Y-127261257D01*
X75955676Y-127399142D01*
X75863752Y-127491066D01*
X75771828Y-127537028D01*
X75587980Y-127582990D01*
X75450095Y-127582990D01*
X75266247Y-127537028D01*
X75174323Y-127491066D01*
X75082400Y-127399142D01*
X75036438Y-127261257D01*
X75036438Y-127169333D01*
X75082400Y-127031447D01*
X75128361Y-126985485D01*
X76001638Y-126066247D02*
X76001638Y-126617790D01*
X76001638Y-126342019D02*
X75036438Y-126342019D01*
X75174323Y-126433942D01*
X75266247Y-126525866D01*
X75312209Y-126617790D01*
X75128361Y-125698552D02*
X75082400Y-125652590D01*
X75036438Y-125560666D01*
X75036438Y-125330857D01*
X75082400Y-125238933D01*
X75128361Y-125192971D01*
X75220285Y-125147009D01*
X75312209Y-125147009D01*
X75450095Y-125192971D01*
X76001638Y-125744514D01*
X76001638Y-125147009D01*
X90819514Y-89879714D02*
X90773552Y-89925676D01*
X90635666Y-89971638D01*
X90543742Y-89971638D01*
X90405857Y-89925676D01*
X90313933Y-89833752D01*
X90267971Y-89741828D01*
X90222009Y-89557980D01*
X90222009Y-89420095D01*
X90267971Y-89236247D01*
X90313933Y-89144323D01*
X90405857Y-89052400D01*
X90543742Y-89006438D01*
X90635666Y-89006438D01*
X90773552Y-89052400D01*
X90819514Y-89098361D01*
X91738752Y-89971638D02*
X91187209Y-89971638D01*
X91462980Y-89971638D02*
X91462980Y-89006438D01*
X91371057Y-89144323D01*
X91279133Y-89236247D01*
X91187209Y-89282209D01*
X92657990Y-89971638D02*
X92106447Y-89971638D01*
X92382219Y-89971638D02*
X92382219Y-89006438D01*
X92290295Y-89144323D01*
X92198371Y-89236247D01*
X92106447Y-89282209D01*
X61939714Y-126985485D02*
X61985676Y-127031447D01*
X62031638Y-127169333D01*
X62031638Y-127261257D01*
X61985676Y-127399142D01*
X61893752Y-127491066D01*
X61801828Y-127537028D01*
X61617980Y-127582990D01*
X61480095Y-127582990D01*
X61296247Y-127537028D01*
X61204323Y-127491066D01*
X61112400Y-127399142D01*
X61066438Y-127261257D01*
X61066438Y-127169333D01*
X61112400Y-127031447D01*
X61158361Y-126985485D01*
X62031638Y-126066247D02*
X62031638Y-126617790D01*
X62031638Y-126342019D02*
X61066438Y-126342019D01*
X61204323Y-126433942D01*
X61296247Y-126525866D01*
X61342209Y-126617790D01*
X61066438Y-125468742D02*
X61066438Y-125376819D01*
X61112400Y-125284895D01*
X61158361Y-125238933D01*
X61250285Y-125192971D01*
X61434133Y-125147009D01*
X61663942Y-125147009D01*
X61847790Y-125192971D01*
X61939714Y-125238933D01*
X61985676Y-125284895D01*
X62031638Y-125376819D01*
X62031638Y-125468742D01*
X61985676Y-125560666D01*
X61939714Y-125606628D01*
X61847790Y-125652590D01*
X61663942Y-125698552D01*
X61434133Y-125698552D01*
X61250285Y-125652590D01*
X61158361Y-125606628D01*
X61112400Y-125560666D01*
X61066438Y-125468742D01*
X102074133Y-100674714D02*
X102028171Y-100720676D01*
X101890285Y-100766638D01*
X101798361Y-100766638D01*
X101660476Y-100720676D01*
X101568552Y-100628752D01*
X101522590Y-100536828D01*
X101476628Y-100352980D01*
X101476628Y-100215095D01*
X101522590Y-100031247D01*
X101568552Y-99939323D01*
X101660476Y-99847400D01*
X101798361Y-99801438D01*
X101890285Y-99801438D01*
X102028171Y-99847400D01*
X102074133Y-99893361D01*
X102533752Y-100766638D02*
X102717600Y-100766638D01*
X102809523Y-100720676D01*
X102855485Y-100674714D01*
X102947409Y-100536828D01*
X102993371Y-100352980D01*
X102993371Y-99985285D01*
X102947409Y-99893361D01*
X102901447Y-99847400D01*
X102809523Y-99801438D01*
X102625676Y-99801438D01*
X102533752Y-99847400D01*
X102487790Y-99893361D01*
X102441828Y-99985285D01*
X102441828Y-100215095D01*
X102487790Y-100307019D01*
X102533752Y-100352980D01*
X102625676Y-100398942D01*
X102809523Y-100398942D01*
X102901447Y-100352980D01*
X102947409Y-100307019D01*
X102993371Y-100215095D01*
X93819133Y-100674714D02*
X93773171Y-100720676D01*
X93635285Y-100766638D01*
X93543361Y-100766638D01*
X93405476Y-100720676D01*
X93313552Y-100628752D01*
X93267590Y-100536828D01*
X93221628Y-100352980D01*
X93221628Y-100215095D01*
X93267590Y-100031247D01*
X93313552Y-99939323D01*
X93405476Y-99847400D01*
X93543361Y-99801438D01*
X93635285Y-99801438D01*
X93773171Y-99847400D01*
X93819133Y-99893361D01*
X94370676Y-100215095D02*
X94278752Y-100169133D01*
X94232790Y-100123171D01*
X94186828Y-100031247D01*
X94186828Y-99985285D01*
X94232790Y-99893361D01*
X94278752Y-99847400D01*
X94370676Y-99801438D01*
X94554523Y-99801438D01*
X94646447Y-99847400D01*
X94692409Y-99893361D01*
X94738371Y-99985285D01*
X94738371Y-100031247D01*
X94692409Y-100123171D01*
X94646447Y-100169133D01*
X94554523Y-100215095D01*
X94370676Y-100215095D01*
X94278752Y-100261057D01*
X94232790Y-100307019D01*
X94186828Y-100398942D01*
X94186828Y-100582790D01*
X94232790Y-100674714D01*
X94278752Y-100720676D01*
X94370676Y-100766638D01*
X94554523Y-100766638D01*
X94646447Y-100720676D01*
X94692409Y-100674714D01*
X94738371Y-100582790D01*
X94738371Y-100398942D01*
X94692409Y-100307019D01*
X94646447Y-100261057D01*
X94554523Y-100215095D01*
X82389133Y-89879714D02*
X82343171Y-89925676D01*
X82205285Y-89971638D01*
X82113361Y-89971638D01*
X81975476Y-89925676D01*
X81883552Y-89833752D01*
X81837590Y-89741828D01*
X81791628Y-89557980D01*
X81791628Y-89420095D01*
X81837590Y-89236247D01*
X81883552Y-89144323D01*
X81975476Y-89052400D01*
X82113361Y-89006438D01*
X82205285Y-89006438D01*
X82343171Y-89052400D01*
X82389133Y-89098361D01*
X82710866Y-89006438D02*
X83354333Y-89006438D01*
X82940676Y-89971638D01*
D20*
X95089133Y-86069714D02*
X95043171Y-86115676D01*
X94905285Y-86161638D01*
X94813361Y-86161638D01*
X94675476Y-86115676D01*
X94583552Y-86023752D01*
X94537590Y-85931828D01*
X94491628Y-85747980D01*
X94491628Y-85610095D01*
X94537590Y-85426247D01*
X94583552Y-85334323D01*
X94675476Y-85242400D01*
X94813361Y-85196438D01*
X94905285Y-85196438D01*
X95043171Y-85242400D01*
X95089133Y-85288361D01*
X95916447Y-85196438D02*
X95732600Y-85196438D01*
X95640676Y-85242400D01*
X95594714Y-85288361D01*
X95502790Y-85426247D01*
X95456828Y-85610095D01*
X95456828Y-85977790D01*
X95502790Y-86069714D01*
X95548752Y-86115676D01*
X95640676Y-86161638D01*
X95824523Y-86161638D01*
X95916447Y-86115676D01*
X95962409Y-86069714D01*
X96008371Y-85977790D01*
X96008371Y-85747980D01*
X95962409Y-85656057D01*
X95916447Y-85610095D01*
X95824523Y-85564133D01*
X95640676Y-85564133D01*
X95548752Y-85610095D01*
X95502790Y-85656057D01*
X95456828Y-85747980D01*
D18*
X94454133Y-93689714D02*
X94408171Y-93735676D01*
X94270285Y-93781638D01*
X94178361Y-93781638D01*
X94040476Y-93735676D01*
X93948552Y-93643752D01*
X93902590Y-93551828D01*
X93856628Y-93367980D01*
X93856628Y-93230095D01*
X93902590Y-93046247D01*
X93948552Y-92954323D01*
X94040476Y-92862400D01*
X94178361Y-92816438D01*
X94270285Y-92816438D01*
X94408171Y-92862400D01*
X94454133Y-92908361D01*
X95327409Y-92816438D02*
X94867790Y-92816438D01*
X94821828Y-93276057D01*
X94867790Y-93230095D01*
X94959714Y-93184133D01*
X95189523Y-93184133D01*
X95281447Y-93230095D01*
X95327409Y-93276057D01*
X95373371Y-93367980D01*
X95373371Y-93597790D01*
X95327409Y-93689714D01*
X95281447Y-93735676D01*
X95189523Y-93781638D01*
X94959714Y-93781638D01*
X94867790Y-93735676D01*
X94821828Y-93689714D01*
X93819133Y-103849714D02*
X93773171Y-103895676D01*
X93635285Y-103941638D01*
X93543361Y-103941638D01*
X93405476Y-103895676D01*
X93313552Y-103803752D01*
X93267590Y-103711828D01*
X93221628Y-103527980D01*
X93221628Y-103390095D01*
X93267590Y-103206247D01*
X93313552Y-103114323D01*
X93405476Y-103022400D01*
X93543361Y-102976438D01*
X93635285Y-102976438D01*
X93773171Y-103022400D01*
X93819133Y-103068361D01*
X94646447Y-103298171D02*
X94646447Y-103941638D01*
X94416638Y-102930476D02*
X94186828Y-103619904D01*
X94784333Y-103619904D01*
D14*
X104614133Y-103849714D02*
X104568171Y-103895676D01*
X104430285Y-103941638D01*
X104338361Y-103941638D01*
X104200476Y-103895676D01*
X104108552Y-103803752D01*
X104062590Y-103711828D01*
X104016628Y-103527980D01*
X104016628Y-103390095D01*
X104062590Y-103206247D01*
X104108552Y-103114323D01*
X104200476Y-103022400D01*
X104338361Y-102976438D01*
X104430285Y-102976438D01*
X104568171Y-103022400D01*
X104614133Y-103068361D01*
X104935866Y-102976438D02*
X105533371Y-102976438D01*
X105211638Y-103344133D01*
X105349523Y-103344133D01*
X105441447Y-103390095D01*
X105487409Y-103436057D01*
X105533371Y-103527980D01*
X105533371Y-103757790D01*
X105487409Y-103849714D01*
X105441447Y-103895676D01*
X105349523Y-103941638D01*
X105073752Y-103941638D01*
X104981828Y-103895676D01*
X104935866Y-103849714D01*
D18*
X90644133Y-112739714D02*
X90598171Y-112785676D01*
X90460285Y-112831638D01*
X90368361Y-112831638D01*
X90230476Y-112785676D01*
X90138552Y-112693752D01*
X90092590Y-112601828D01*
X90046628Y-112417980D01*
X90046628Y-112280095D01*
X90092590Y-112096247D01*
X90138552Y-112004323D01*
X90230476Y-111912400D01*
X90368361Y-111866438D01*
X90460285Y-111866438D01*
X90598171Y-111912400D01*
X90644133Y-111958361D01*
X91011828Y-111958361D02*
X91057790Y-111912400D01*
X91149714Y-111866438D01*
X91379523Y-111866438D01*
X91471447Y-111912400D01*
X91517409Y-111958361D01*
X91563371Y-112050285D01*
X91563371Y-112142209D01*
X91517409Y-112280095D01*
X90965866Y-112831638D01*
X91563371Y-112831638D01*
X90644133Y-115914714D02*
X90598171Y-115960676D01*
X90460285Y-116006638D01*
X90368361Y-116006638D01*
X90230476Y-115960676D01*
X90138552Y-115868752D01*
X90092590Y-115776828D01*
X90046628Y-115592980D01*
X90046628Y-115455095D01*
X90092590Y-115271247D01*
X90138552Y-115179323D01*
X90230476Y-115087400D01*
X90368361Y-115041438D01*
X90460285Y-115041438D01*
X90598171Y-115087400D01*
X90644133Y-115133361D01*
X91563371Y-116006638D02*
X91011828Y-116006638D01*
X91287600Y-116006638D02*
X91287600Y-115041438D01*
X91195676Y-115179323D01*
X91103752Y-115271247D01*
X91011828Y-115317209D01*
M02*
