G04 #@! TF.GenerationSoftware,KiCad,Pcbnew,(5.1.6-0-10_14)*
G04 #@! TF.CreationDate,2020-09-02T19:52:59+02:00*
G04 #@! TF.ProjectId,inglorious-bastard,696e676c-6f72-4696-9f75-732d62617374,rev?*
G04 #@! TF.SameCoordinates,Original*
G04 #@! TF.FileFunction,Soldermask,Bot*
G04 #@! TF.FilePolarity,Negative*
%FSLAX46Y46*%
G04 Gerber Fmt 4.6, Leading zero omitted, Abs format (unit mm)*
G04 Created by KiCad (PCBNEW (5.1.6-0-10_14)) date 2020-09-02 19:52:59*
%MOMM*%
%LPD*%
G01*
G04 APERTURE LIST*
%ADD10O,2.100000X2.100000*%
%ADD11R,2.100000X2.100000*%
%ADD12C,0.600000*%
%ADD13O,3.516000X3.516000*%
%ADD14R,3.516000X3.516000*%
%ADD15R,3.916000X3.916000*%
%ADD16O,3.916000X3.916000*%
%ADD17O,2.640000X2.640000*%
%ADD18R,2.640000X2.640000*%
%ADD19R,2.030400X2.030400*%
%ADD20O,2.030400X2.030400*%
%ADD21R,2.132000X2.132000*%
%ADD22O,2.132000X2.132000*%
%ADD23O,1.608000X1.608000*%
%ADD24R,1.608000X1.608000*%
G04 APERTURE END LIST*
D10*
X97790000Y-146558000D03*
D11*
X100330000Y-146558000D03*
D12*
X76569000Y-133211000D03*
X75069000Y-133211000D03*
X75069000Y-131711000D03*
X76569000Y-131711000D03*
X75819000Y-133211000D03*
X75819000Y-131711000D03*
X93587000Y-133211000D03*
X92087000Y-133211000D03*
X92087000Y-131711000D03*
X93587000Y-131711000D03*
X92837000Y-133211000D03*
X92837000Y-131711000D03*
D10*
X80645000Y-97155000D03*
X83185000Y-97155000D03*
X85725000Y-97155000D03*
X88265000Y-97155000D03*
X88265000Y-104775000D03*
X85725000Y-104775000D03*
X83185000Y-104775000D03*
D11*
X80645000Y-104775000D03*
D13*
X84455000Y-123063000D03*
X84455000Y-118364000D03*
D14*
X84455000Y-113665000D03*
D13*
X89408000Y-85090000D03*
X84709000Y-85090000D03*
D14*
X80010000Y-85090000D03*
D13*
X66540000Y-120400000D03*
X71370000Y-120400000D03*
X76200000Y-120400000D03*
X66540000Y-115570000D03*
X71370000Y-115570000D03*
D14*
X76200000Y-115570000D03*
D15*
X79375000Y-141478000D03*
D16*
X79375000Y-146558000D03*
X79375000Y-151638000D03*
X84455000Y-141478000D03*
X84455000Y-146558000D03*
X84455000Y-151638000D03*
X89535000Y-141478000D03*
X89535000Y-146558000D03*
X89535000Y-151638000D03*
D17*
X92710000Y-80010000D03*
X97790000Y-80010000D03*
D18*
X102870000Y-80010000D03*
D17*
X66040000Y-80010000D03*
X71120000Y-80010000D03*
D18*
X76200000Y-80010000D03*
D17*
X66040000Y-108585000D03*
X71120000Y-108585000D03*
D18*
X76200000Y-108585000D03*
D17*
X92710000Y-108585000D03*
X97790000Y-108585000D03*
D18*
X102870000Y-108585000D03*
D10*
X88265000Y-118745000D03*
X95885000Y-118745000D03*
X88265000Y-121920000D03*
X95885000Y-121920000D03*
X95250000Y-151638000D03*
X102870000Y-151638000D03*
X73660000Y-111760000D03*
X66040000Y-111760000D03*
X64770000Y-125095000D03*
X72390000Y-125095000D03*
X67310000Y-83185000D03*
X74930000Y-83185000D03*
X88265000Y-93345000D03*
X80645000Y-93345000D03*
X80010000Y-120015000D03*
X80010000Y-112395000D03*
X64770000Y-128270000D03*
X72390000Y-128270000D03*
X88265000Y-125095000D03*
X95885000Y-125095000D03*
X99060000Y-125730000D03*
X99060000Y-118110000D03*
X105410000Y-118110000D03*
X105410000Y-125730000D03*
X106680000Y-85090000D03*
X106680000Y-92710000D03*
X91440000Y-96520000D03*
X99060000Y-96520000D03*
X96520000Y-112395000D03*
X104140000Y-112395000D03*
X76835000Y-96520000D03*
X76835000Y-104140000D03*
X102235000Y-118110000D03*
X102235000Y-125730000D03*
X88265000Y-109220000D03*
X80645000Y-109220000D03*
D19*
X62230000Y-111760000D03*
D20*
X62230000Y-109220000D03*
X62230000Y-106680000D03*
D19*
X62230000Y-97790000D03*
D20*
X62230000Y-100330000D03*
X62230000Y-102870000D03*
D19*
X98425000Y-128270000D03*
D20*
X95885000Y-128270000D03*
X93345000Y-128270000D03*
D21*
X82550000Y-128270000D03*
X86995000Y-78740000D03*
X86360000Y-128270000D03*
X93980000Y-135763000D03*
X62230000Y-78740000D03*
X90170000Y-135763000D03*
X82550000Y-135763000D03*
D22*
X86360000Y-135763000D03*
D21*
X74930000Y-135763000D03*
X78740000Y-135763000D03*
D22*
X78740000Y-128270000D03*
D21*
X82550000Y-78740000D03*
D22*
X90170000Y-128270000D03*
D21*
X107950000Y-78740000D03*
D11*
X107315000Y-112395000D03*
D10*
X107315000Y-104775000D03*
X60960000Y-83820000D03*
D11*
X60960000Y-86360000D03*
D10*
X60960000Y-93345000D03*
D11*
X60960000Y-90805000D03*
X66040000Y-104140000D03*
D10*
X66040000Y-96520000D03*
D11*
X75565000Y-93345000D03*
D10*
X75565000Y-85725000D03*
D11*
X72390000Y-85725000D03*
D10*
X72390000Y-93345000D03*
D11*
X69215000Y-85725000D03*
D10*
X69215000Y-93345000D03*
D11*
X66040000Y-93345000D03*
D10*
X66040000Y-85725000D03*
D11*
X72390000Y-104140000D03*
D10*
X72390000Y-96520000D03*
D11*
X69215000Y-96520000D03*
D10*
X69215000Y-104140000D03*
D23*
X101600000Y-86995000D03*
D24*
X101600000Y-84455000D03*
D23*
X101600000Y-92710000D03*
D24*
X101600000Y-90170000D03*
D10*
X103505000Y-115570000D03*
X98425000Y-115570000D03*
D23*
X61595000Y-116745000D03*
D24*
X61595000Y-118745000D03*
D10*
X75565000Y-128905000D03*
X75565000Y-123825000D03*
X88900000Y-89535000D03*
X93980000Y-89535000D03*
X61595000Y-128905000D03*
X61595000Y-123825000D03*
X99695000Y-100330000D03*
X104775000Y-100330000D03*
X91440000Y-100330000D03*
X96520000Y-100330000D03*
X80010000Y-89535000D03*
X85090000Y-89535000D03*
D23*
X96250000Y-84455000D03*
D24*
X94250000Y-84455000D03*
D10*
X97155000Y-93345000D03*
X92075000Y-93345000D03*
X91440000Y-103505000D03*
X96520000Y-103505000D03*
X102235000Y-103505000D03*
X99695000Y-103505000D03*
X88265000Y-112395000D03*
X93345000Y-112395000D03*
X93345000Y-115570000D03*
X88265000Y-115570000D03*
M02*
