M48
; DRILL file {KiCad (5.1.6-0-10_14)} date Wednesday, September 02, 2020 at 07:53:02 PM
; FORMAT={-:-/ absolute / inch / decimal}
; #@! TF.CreationDate,2020-09-02T19:53:02+02:00
; #@! TF.GenerationSoftware,Kicad,Pcbnew,(5.1.6-0-10_14)
; #@! TF.FileFunction,Plated,1,2,PTH
FMAT,2
INCH
T1C0.0394
T2C0.0472
T3C0.0551
T4C0.0945
T5C0.1102
%
G90
G05
T1
X3.15Y-3.525
X3.35Y-3.525
X2.425Y-4.5963
X2.425Y-4.675
X3.475Y-4.8
X3.775Y-4.8
X2.85Y-3.375
X2.85Y-3.675
X2.4Y-3.575
X2.4Y-3.675
X3.475Y-4.925
X3.775Y-4.925
X3.8Y-4.425
X4.1Y-4.425
X3.6Y-3.95
X3.8Y-3.95
X3.875Y-4.55
X4.075Y-4.55
X2.55Y-4.925
X2.85Y-4.925
X2.975Y-3.375
X2.975Y-3.675
X4.0Y-3.55
X4.0Y-3.65
X3.675Y-5.05
X3.775Y-5.05
X3.875Y-5.05
X3.925Y-3.95
X4.125Y-3.95
X3.475Y-4.675
X3.775Y-4.675
X3.175Y-3.825
X3.175Y-4.125
X3.275Y-3.825
X3.275Y-4.125
X3.375Y-3.825
X3.375Y-4.125
X3.475Y-3.825
X3.475Y-4.125
X3.475Y-4.425
X3.675Y-4.425
X2.55Y-5.05
X2.85Y-5.05
X3.6Y-3.8
X3.9Y-3.8
X2.45Y-4.2
X2.45Y-4.3
X2.45Y-4.4
X4.0Y-3.325
X4.0Y-3.425
X2.4Y-3.3
X2.4Y-3.4
X2.425Y-4.875
X2.425Y-5.075
X2.6Y-4.4
X2.9Y-4.4
X2.6Y-3.8
X2.6Y-4.1
X3.925Y-4.075
X4.025Y-4.075
X4.225Y-4.125
X4.225Y-4.425
X2.725Y-3.8
X2.725Y-4.1
X3.5Y-3.525
X3.7Y-3.525
X3.15Y-4.425
X3.15Y-4.725
X4.2Y-3.35
X4.2Y-3.65
X3.175Y-4.3
X3.475Y-4.3
X3.85Y-5.77
X3.95Y-5.77
X3.6Y-4.075
X3.8Y-4.075
X3.75Y-5.97
X4.05Y-5.97
X2.975Y-4.875
X2.975Y-5.075
X2.85Y-3.8
X2.85Y-4.1
X3.625Y-3.675
X3.825Y-3.675
X3.175Y-3.675
X3.475Y-3.675
X4.15Y-4.65
X4.15Y-4.95
X4.025Y-4.65
X4.025Y-4.95
X3.7106Y-3.325
X3.7894Y-3.325
X2.6Y-3.375
X2.6Y-3.675
X2.45Y-3.85
X2.45Y-3.95
X2.45Y-4.05
X2.65Y-3.275
X2.95Y-3.275
X3.9Y-4.65
X3.9Y-4.95
X3.025Y-3.8
X3.025Y-4.1
X2.725Y-3.375
X2.725Y-3.675
X3.475Y-4.55
X3.675Y-4.55
T2
X3.25Y-5.05
X2.95Y-5.345
X3.425Y-3.1
X4.25Y-3.1
X3.4Y-5.05
X3.7Y-5.345
X3.25Y-3.1
X3.55Y-5.05
X3.1Y-5.345
X3.1Y-5.05
X2.45Y-3.1
X3.55Y-5.345
X3.25Y-5.345
X3.4Y-5.345
T3
X2.6Y-4.275
X2.8Y-4.275
X3.0Y-4.275
X3.65Y-3.15
X3.85Y-3.15
X4.05Y-3.15
X3.65Y-4.275
X3.85Y-4.275
X4.05Y-4.275
X2.6Y-3.15
X2.8Y-3.15
X3.0Y-3.15
T4
X3.325Y-4.475
X3.325Y-4.66
X3.325Y-4.845
X3.15Y-3.35
X3.335Y-3.35
X3.52Y-3.35
X2.6197Y-4.55
X2.6197Y-4.7402
X2.8098Y-4.55
X2.8098Y-4.7402
X3.0Y-4.55
X3.0Y-4.7402
T5
X3.125Y-5.57
X3.125Y-5.77
X3.125Y-5.97
X3.325Y-5.57
X3.325Y-5.77
X3.325Y-5.97
X3.525Y-5.57
X3.525Y-5.77
X3.525Y-5.97
T0
M30
