G04 #@! TF.GenerationSoftware,KiCad,Pcbnew,(5.1.6-0-10_14)*
G04 #@! TF.CreationDate,2020-09-02T19:52:59+02:00*
G04 #@! TF.ProjectId,inglorious-bastard,696e676c-6f72-4696-9f75-732d62617374,rev?*
G04 #@! TF.SameCoordinates,Original*
G04 #@! TF.FileFunction,Profile,NP*
%FSLAX46Y46*%
G04 Gerber Fmt 4.6, Leading zero omitted, Abs format (unit mm)*
G04 Created by KiCad (PCBNEW (5.1.6-0-10_14)) date 2020-09-02 19:52:59*
%MOMM*%
%LPD*%
G01*
G04 APERTURE LIST*
G04 #@! TA.AperFunction,Profile*
%ADD10C,0.050000*%
G04 #@! TD*
G04 APERTURE END LIST*
D10*
X73787000Y-131445000D02*
G75*
G02*
X73787000Y-133477000I0J-1016000D01*
G01*
X77851000Y-133477000D02*
G75*
G02*
X77851000Y-131445000I0J1016000D01*
G01*
X90805000Y-131445000D02*
G75*
G02*
X90805000Y-133477000I0J-1016000D01*
G01*
X94869000Y-133477000D02*
G75*
G02*
X94869000Y-131445000I0J1016000D01*
G01*
X90805000Y-131445000D02*
X77851000Y-131445000D01*
X77851000Y-133477000D02*
X90805000Y-133477000D01*
X73787000Y-133477000D02*
X64135000Y-133477000D01*
X60325000Y-131445000D02*
X73787000Y-131445000D01*
X94869000Y-131445000D02*
X108585000Y-131445000D01*
X104775000Y-133477000D02*
X94869000Y-133477000D01*
X64135000Y-154813000D02*
X104775000Y-154813000D01*
X62230000Y-135382000D02*
X62230000Y-152908000D01*
X106680000Y-152908000D02*
X106680000Y-135382000D01*
X64135000Y-154813000D02*
G75*
G02*
X62230000Y-152908000I0J1905000D01*
G01*
X106680000Y-152908000D02*
G75*
G02*
X104775000Y-154813000I-1905000J0D01*
G01*
X62230000Y-135382000D02*
G75*
G02*
X64135000Y-133477000I1905000J0D01*
G01*
X104775000Y-133477000D02*
G75*
G02*
X106680000Y-135382000I0J-1905000D01*
G01*
X58420000Y-78105000D02*
X58420000Y-129540000D01*
X110490000Y-78105000D02*
X110490000Y-129540000D01*
X60325000Y-76200000D02*
X108585000Y-76200000D01*
X60325000Y-131445000D02*
G75*
G02*
X58420000Y-129540000I0J1905000D01*
G01*
X58420000Y-78105000D02*
G75*
G02*
X60325000Y-76200000I1905000J0D01*
G01*
X108585000Y-76200000D02*
G75*
G02*
X110490000Y-78105000I0J-1905000D01*
G01*
X110490000Y-129540000D02*
G75*
G02*
X108585000Y-131445000I-1905000J0D01*
G01*
M02*
